<?xml version="1.0" encoding="UTF-8" standalone="no"?>
<!DOCTYPE svg PUBLIC "-//W3C//DTD SVG 1.1//EN"
 "http://www.w3.org/Graphics/SVG/1.1/DTD/svg11.dtd">
<!-- Generated by graphviz version 2.43.0 (0)
 -->
<!-- Title: /home/runner/work/cbmc/cbmc/src/cprover/chc_db.cpp Pages: 1 -->
<svg width="1501pt" height="764pt"
 viewBox="0.00 0.00 1501.00 764.00" xmlns="http://www.w3.org/2000/svg" xmlns:xlink="http://www.w3.org/1999/xlink">
<g id="graph0" class="graph" transform="scale(1 1) rotate(0) translate(4 760)">
<title>/home/runner/work/cbmc/cbmc/src/cprover/chc_db.cpp</title>
<!-- Node1 -->
<g id="Node000001" class="node">
<title>Node1</title>
<g id="a_Node000001"><a xlink:title="CHC (Constrained Horn Clause) database.">
<polygon fill="#999999" stroke="#666666" points="537,-756 399,-756 399,-715 537,-715 537,-756"/>
<text text-anchor="start" x="407" y="-744" font-family="Helvetica,sans-Serif" font-size="10.00">/home/runner/work/cbmc</text>
<text text-anchor="start" x="407" y="-733" font-family="Helvetica,sans-Serif" font-size="10.00">/cbmc/src/cprover/chc</text>
<text text-anchor="middle" x="468" y="-722" font-family="Helvetica,sans-Serif" font-size="10.00">_db.cpp</text>
</a>
</g>
</g>
<!-- Node2 -->
<g id="Node000002" class="node">
<title>Node2</title>
<g id="a_Node000002"><a xlink:href="chc__db_8h.html" target="_top" xlink:title="CHC (Constrained Horn Clause) database.">
<polygon fill="white" stroke="#666666" points="497.5,-679 438.5,-679 438.5,-660 497.5,-660 497.5,-679"/>
<text text-anchor="middle" x="468" y="-667" font-family="Helvetica,sans-Serif" font-size="10.00">chc_db.h</text>
</a>
</g>
</g>
<!-- Node1&#45;&gt;Node2 -->
<g id="edge1_Node000001_Node000002" class="edge">
<title>Node1&#45;&gt;Node2</title>
<g id="a_edge1_Node000001_Node000002"><a xlink:title=" ">
<path fill="none" stroke="#63b8ff" d="M468,-714.95C468,-706.85 468,-697.5 468,-689.47"/>
<polygon fill="#63b8ff" stroke="#63b8ff" points="471.5,-689.26 468,-679.26 464.5,-689.26 471.5,-689.26"/>
</a>
</g>
</g>
<!-- Node3 -->
<g id="Node000003" class="node">
<title>Node3</title>
<g id="a_Node000003"><a xlink:href="expr__iterator_8h.html" target="_top" xlink:title="Forward depth&#45;first search iterators These iterators&#39; copy operations are expensive,...">
<polygon fill="white" stroke="#666666" points="456.5,-459 349.5,-459 349.5,-440 456.5,-440 456.5,-459"/>
<text text-anchor="middle" x="403" y="-447" font-family="Helvetica,sans-Serif" font-size="10.00">util/expr_iterator.h</text>
</a>
</g>
</g>
<!-- Node2&#45;&gt;Node3 -->
<g id="edge2_Node000002_Node000003" class="edge">
<title>Node2&#45;&gt;Node3</title>
<g id="a_edge2_Node000002_Node000003"><a xlink:title=" ">
<path fill="none" stroke="#63b8ff" d="M465.45,-659.95C455.87,-627.81 421.85,-513.72 408.47,-468.83"/>
<polygon fill="#63b8ff" stroke="#63b8ff" points="411.81,-467.81 405.6,-459.22 405.1,-469.81 411.81,-467.81"/>
</a>
</g>
</g>
<!-- Node6 -->
<g id="Node000006" class="node">
<title>Node6</title>
<g id="a_Node000006"><a xlink:title=" ">
<polygon fill="#e0e0e0" stroke="#999999" points="682.5,-349 617.5,-349 617.5,-330 682.5,-330 682.5,-349"/>
<text text-anchor="middle" x="650" y="-337" font-family="Helvetica,sans-Serif" font-size="10.00">functional</text>
</a>
</g>
</g>
<!-- Node2&#45;&gt;Node6 -->
<g id="edge65_Node000002_Node000006" class="edge">
<title>Node2&#45;&gt;Node6</title>
<g id="a_edge65_Node000002_Node000006"><a xlink:title=" ">
<path fill="none" stroke="#63b8ff" d="M471.37,-659.98C478.2,-641.93 493,-598.41 493,-560.5 493,-560.5 493,-560.5 493,-503.5 493,-429.95 576.94,-376.81 622.07,-353.56"/>
<polygon fill="#63b8ff" stroke="#63b8ff" points="623.69,-356.66 631.06,-349.05 620.55,-350.4 623.69,-356.66"/>
</a>
</g>
</g>
<!-- Node7 -->
<g id="Node000007" class="node">
<title>Node7</title>
<g id="a_Node000007"><a xlink:title=" ">
<polygon fill="#e0e0e0" stroke="#999999" points="202,-404 170,-404 170,-385 202,-385 202,-404"/>
<text text-anchor="middle" x="186" y="-392" font-family="Helvetica,sans-Serif" font-size="10.00">set</text>
</a>
</g>
</g>
<!-- Node2&#45;&gt;Node7 -->
<g id="edge67_Node000002_Node000007" class="edge">
<title>Node2&#45;&gt;Node7</title>
<g id="a_edge67_Node000002_Node000007"><a xlink:title=" ">
<path fill="none" stroke="#63b8ff" d="M438.43,-663.8C389.25,-654.11 296,-626.96 296,-560.5 296,-560.5 296,-560.5 296,-503.5 296,-456.45 244.12,-423.08 211.62,-406.8"/>
<polygon fill="#63b8ff" stroke="#63b8ff" points="212.76,-403.47 202.23,-402.3 209.73,-409.78 212.76,-403.47"/>
</a>
</g>
</g>
<!-- Node16 -->
<g id="Node000016" class="node">
<title>Node16</title>
<g id="a_Node000016"><a xlink:title=" ">
<polygon fill="#e0e0e0" stroke="#999999" points="523.5,-74 476.5,-74 476.5,-55 523.5,-55 523.5,-74"/>
<text text-anchor="middle" x="500" y="-62" font-family="Helvetica,sans-Serif" font-size="10.00">vector</text>
</a>
</g>
</g>
<!-- Node2&#45;&gt;Node16 -->
<g id="edge68_Node000002_Node000016" class="edge">
<title>Node2&#45;&gt;Node16</title>
<g id="a_edge68_Node000002_Node000016"><a xlink:title=" ">
<path fill="none" stroke="#63b8ff" d="M438.37,-668.04C335.49,-665.63 0,-650.87 0,-560.5 0,-560.5 0,-560.5 0,-173.5 0,-77.9 353.67,-66.71 466.11,-65.57"/>
<polygon fill="#63b8ff" stroke="#63b8ff" points="466.25,-69.07 476.22,-65.49 466.19,-62.07 466.25,-69.07"/>
</a>
</g>
</g>
<!-- Node41 -->
<g id="Node000041" class="node">
<title>Node41</title>
<g id="a_Node000041"><a xlink:href="find__symbols_8h.html" target="_top" xlink:title=" ">
<polygon fill="white" stroke="#666666" points="218.5,-459 109.5,-459 109.5,-440 218.5,-440 218.5,-459"/>
<text text-anchor="middle" x="164" y="-447" font-family="Helvetica,sans-Serif" font-size="10.00">util/find_symbols.h</text>
</a>
</g>
</g>
<!-- Node2&#45;&gt;Node41 -->
<g id="edge36_Node000002_Node000041" class="edge">
<title>Node2&#45;&gt;Node41</title>
<g id="a_edge36_Node000002_Node000041"><a xlink:title=" ">
<path fill="none" stroke="#63b8ff" d="M438.28,-667.87C399.18,-665.68 329.82,-657.01 282,-624 223.59,-583.68 185.74,-504.23 170.98,-468.57"/>
<polygon fill="#63b8ff" stroke="#63b8ff" points="174.12,-466.98 167.15,-459 167.62,-469.59 174.12,-466.98"/>
</a>
</g>
</g>
<!-- Node43 -->
<g id="Node000043" class="node">
<title>Node43</title>
<g id="a_Node000043"><a xlink:href="mathematical__expr_8h.html" target="_top" xlink:title="API to expression classes for &#39;mathematical&#39; expressions.">
<polygon fill="white" stroke="#666666" points="687.5,-624 548.5,-624 548.5,-605 687.5,-605 687.5,-624"/>
<text text-anchor="middle" x="618" y="-612" font-family="Helvetica,sans-Serif" font-size="10.00">util/mathematical_expr.h</text>
</a>
</g>
</g>
<!-- Node2&#45;&gt;Node43 -->
<g id="edge40_Node000002_Node000043" class="edge">
<title>Node2&#45;&gt;Node43</title>
<g id="a_edge40_Node000002_Node000043"><a xlink:title=" ">
<path fill="none" stroke="#63b8ff" d="M492.1,-659.98C516.88,-651.23 555.7,-637.51 583.69,-627.62"/>
<polygon fill="#63b8ff" stroke="#63b8ff" points="585.2,-630.8 593.46,-624.17 582.87,-624.2 585.2,-630.8"/>
</a>
</g>
</g>
<!-- Node47 -->
<g id="Node000047" class="node">
<title>Node47</title>
<g id="a_Node000047"><a xlink:href="std__expr_8h.html" target="_top" xlink:title="API to expression classes.">
<polygon fill="white" stroke="#666666" points="755.5,-569 688.5,-569 688.5,-550 755.5,-550 755.5,-569"/>
<text text-anchor="middle" x="722" y="-557" font-family="Helvetica,sans-Serif" font-size="10.00">std_expr.h</text>
</a>
</g>
</g>
<!-- Node2&#45;&gt;Node47 -->
<g id="edge64_Node000002_Node000047" class="edge">
<title>Node2&#45;&gt;Node47</title>
<g id="a_edge64_Node000002_Node000047"><a xlink:title=" ">
<path fill="none" stroke="#63b8ff" d="M497.75,-666.25C552.65,-661.53 667.03,-648.93 697,-624 710.22,-613 716.49,-594.05 719.44,-579.71"/>
<polygon fill="#63b8ff" stroke="#63b8ff" points="722.96,-579.88 721.16,-569.44 716.05,-578.72 722.96,-579.88"/>
</a>
</g>
</g>
<!-- Node51 -->
<g id="Node000051" class="node">
<title>Node51</title>
<g id="a_Node000051"><a xlink:title=" ">
<polygon fill="#e0e0e0" stroke="#999999" points="782,-624 744,-624 744,-605 782,-605 782,-624"/>
<text text-anchor="middle" x="763" y="-612" font-family="Helvetica,sans-Serif" font-size="10.00">map</text>
</a>
</g>
</g>
<!-- Node2&#45;&gt;Node51 -->
<g id="edge66_Node000002_Node000051" class="edge">
<title>Node2&#45;&gt;Node51</title>
<g id="a_edge66_Node000002_Node000051"><a xlink:title=" ">
<path fill="none" stroke="#63b8ff" d="M497.62,-664.3C546.33,-657.2 646.3,-641.86 730,-624 731.27,-623.73 732.56,-623.44 733.87,-623.14"/>
<polygon fill="#63b8ff" stroke="#63b8ff" points="734.98,-626.48 743.87,-620.72 733.33,-619.67 734.98,-626.48"/>
</a>
</g>
</g>
<!-- Node4 -->
<g id="Node000004" class="node">
<title>Node4</title>
<g id="a_Node000004"><a xlink:title=" ">
<polygon fill="#e0e0e0" stroke="#999999" points="267.5,-404 220.5,-404 220.5,-385 267.5,-385 267.5,-404"/>
<text text-anchor="middle" x="244" y="-392" font-family="Helvetica,sans-Serif" font-size="10.00">deque</text>
</a>
</g>
</g>
<!-- Node3&#45;&gt;Node4 -->
<g id="edge3_Node000003_Node000004" class="edge">
<title>Node3&#45;&gt;Node4</title>
<g id="a_edge3_Node000003_Node000004"><a xlink:title=" ">
<path fill="none" stroke="#63b8ff" d="M377.45,-439.98C350.24,-430.91 307.07,-416.52 277.23,-406.58"/>
<polygon fill="#63b8ff" stroke="#63b8ff" points="278.26,-403.23 267.67,-403.39 276.05,-409.87 278.26,-403.23"/>
</a>
</g>
</g>
<!-- Node5 -->
<g id="Node000005" class="node">
<title>Node5</title>
<g id="a_Node000005"><a xlink:title=" ">
<polygon fill="#e0e0e0" stroke="#999999" points="338.5,-404 285.5,-404 285.5,-385 338.5,-385 338.5,-404"/>
<text text-anchor="middle" x="312" y="-392" font-family="Helvetica,sans-Serif" font-size="10.00">iterator</text>
</a>
</g>
</g>
<!-- Node3&#45;&gt;Node5 -->
<g id="edge4_Node000003_Node000005" class="edge">
<title>Node3&#45;&gt;Node5</title>
<g id="a_edge4_Node000003_Node000005"><a xlink:title=" ">
<path fill="none" stroke="#63b8ff" d="M388.38,-439.98C374.14,-431.69 352.25,-418.94 335.55,-409.22"/>
<polygon fill="#63b8ff" stroke="#63b8ff" points="337.29,-406.18 326.89,-404.17 333.77,-412.23 337.29,-406.18"/>
</a>
</g>
</g>
<!-- Node3&#45;&gt;Node6 -->
<g id="edge5_Node000003_Node000006" class="edge">
<title>Node3&#45;&gt;Node6</title>
<g id="a_edge5_Node000003_Node000006"><a xlink:title=" ">
<path fill="none" stroke="#63b8ff" d="M422.8,-439.84C466.26,-420.84 570.21,-375.39 621.03,-353.17"/>
<polygon fill="#63b8ff" stroke="#63b8ff" points="622.69,-356.26 630.45,-349.05 619.89,-349.85 622.69,-356.26"/>
</a>
</g>
</g>
<!-- Node3&#45;&gt;Node7 -->
<g id="edge6_Node000003_Node000007" class="edge">
<title>Node3&#45;&gt;Node7</title>
<g id="a_edge6_Node000003_Node000007"><a xlink:title=" ">
<path fill="none" stroke="#63b8ff" d="M361.75,-439.98C322.89,-431.69 263.16,-418.29 212,-404 211.9,-403.97 211.8,-403.94 211.7,-403.92"/>
<polygon fill="#63b8ff" stroke="#63b8ff" points="212.75,-400.58 202.16,-401.02 210.72,-407.27 212.75,-400.58"/>
</a>
</g>
</g>
<!-- Node8 -->
<g id="Node000008" class="node">
<title>Node8</title>
<g id="a_Node000008"><a xlink:title=" ">
<polygon fill="#e0e0e0" stroke="#999999" points="421,-404 357,-404 357,-385 421,-385 421,-404"/>
<text text-anchor="middle" x="389" y="-392" font-family="Helvetica,sans-Serif" font-size="10.00">algorithm</text>
</a>
</g>
</g>
<!-- Node3&#45;&gt;Node8 -->
<g id="edge7_Node000003_Node000008" class="edge">
<title>Node3&#45;&gt;Node8</title>
<g id="a_edge7_Node000003_Node000008"><a xlink:title=" ">
<path fill="none" stroke="#63b8ff" d="M400.69,-439.75C398.83,-432.72 396.16,-422.62 393.85,-413.84"/>
<polygon fill="#63b8ff" stroke="#63b8ff" points="397.21,-412.86 391.27,-404.09 390.44,-414.65 397.21,-412.86"/>
</a>
</g>
</g>
<!-- Node9 -->
<g id="Node000009" class="node">
<title>Node9</title>
<g id="a_Node000009"><a xlink:href="expr_8h.html" target="_top" xlink:title=" ">
<polygon fill="white" stroke="#666666" points="907.5,-404 860.5,-404 860.5,-385 907.5,-385 907.5,-404"/>
<text text-anchor="middle" x="884" y="-392" font-family="Helvetica,sans-Serif" font-size="10.00">expr.h</text>
</a>
</g>
</g>
<!-- Node3&#45;&gt;Node9 -->
<g id="edge8_Node000003_Node000009" class="edge">
<title>Node3&#45;&gt;Node9</title>
<g id="a_edge8_Node000003_Node000009"><a xlink:title=" ">
<path fill="none" stroke="#63b8ff" d="M456.73,-445.43C540.68,-440.11 707.86,-427.45 848,-404 848.76,-403.87 849.53,-403.74 850.3,-403.6"/>
<polygon fill="#63b8ff" stroke="#63b8ff" points="851.37,-406.95 860.47,-401.53 849.97,-400.1 851.37,-406.95"/>
</a>
</g>
</g>
<!-- Node17 -->
<g id="Node000017" class="node">
<title>Node17</title>
<g id="a_Node000017"><a xlink:href="src_2util_2invariant_8h.html" target="_top" xlink:title=" ">
<polygon fill="#fff0f0" stroke="red" points="696.5,-74 627.5,-74 627.5,-55 696.5,-55 696.5,-74"/>
<text text-anchor="middle" x="662" y="-62" font-family="Helvetica,sans-Serif" font-size="10.00">invariant.h</text>
</a>
</g>
</g>
<!-- Node3&#45;&gt;Node17 -->
<g id="edge35_Node000003_Node000017" class="edge">
<title>Node3&#45;&gt;Node17</title>
<g id="a_edge35_Node000003_Node000017"><a xlink:title=" ">
<path fill="none" stroke="#63b8ff" d="M408.92,-439.93C414.79,-431.17 423.78,-417.05 430,-404 467.39,-325.58 448.84,-292.96 496,-220 535.63,-158.69 604.94,-105.14 640.15,-80.27"/>
<polygon fill="#63b8ff" stroke="#63b8ff" points="642.51,-82.89 648.72,-74.31 638.51,-77.14 642.51,-82.89"/>
</a>
</g>
</g>
<!-- Node9&#45;&gt;Node6 -->
<g id="edge34_Node000009_Node000006" class="edge">
<title>Node9&#45;&gt;Node6</title>
<g id="a_edge34_Node000009_Node000006"><a xlink:title=" ">
<path fill="none" stroke="#63b8ff" d="M860.38,-387.89C856.26,-386.92 852.01,-385.92 848,-385 794.47,-372.66 732.69,-358.85 692.57,-349.93"/>
<polygon fill="#63b8ff" stroke="#63b8ff" points="693.13,-346.47 682.61,-347.72 691.61,-353.3 693.13,-346.47"/>
</a>
</g>
</g>
<!-- Node10 -->
<g id="Node000010" class="node">
<title>Node10</title>
<g id="a_Node000010"><a xlink:href="as__const_8h.html" target="_top" xlink:title=" ">
<polygon fill="white" stroke="#666666" points="1135,-349 1067,-349 1067,-330 1135,-330 1135,-349"/>
<text text-anchor="middle" x="1101" y="-337" font-family="Helvetica,sans-Serif" font-size="10.00">as_const.h</text>
</a>
</g>
</g>
<!-- Node9&#45;&gt;Node10 -->
<g id="edge9_Node000009_Node000010" class="edge">
<title>Node9&#45;&gt;Node10</title>
<g id="a_edge9_Node000009_Node000010"><a xlink:title=" ">
<path fill="none" stroke="#63b8ff" d="M907.64,-387.73C943.38,-379 1011.79,-362.29 1056.91,-351.27"/>
<polygon fill="#63b8ff" stroke="#63b8ff" points="1057.84,-354.64 1066.72,-348.87 1056.18,-347.84 1057.84,-354.64"/>
</a>
</g>
</g>
<!-- Node11 -->
<g id="Node000011" class="node">
<title>Node11</title>
<g id="a_Node000011"><a xlink:href="deprecate_8h.html" target="_top" xlink:title=" ">
<polygon fill="white" stroke="#666666" points="1238,-129 1164,-129 1164,-110 1238,-110 1238,-129"/>
<text text-anchor="middle" x="1201" y="-117" font-family="Helvetica,sans-Serif" font-size="10.00">deprecate.h</text>
</a>
</g>
</g>
<!-- Node9&#45;&gt;Node11 -->
<g id="edge10_Node000009_Node000011" class="edge">
<title>Node9&#45;&gt;Node11</title>
<g id="a_edge10_Node000009_Node000011"><a xlink:title=" ">
<path fill="none" stroke="#63b8ff" d="M907.59,-391.46C963.66,-386.28 1103.31,-371.46 1144,-349 1177.2,-330.67 1201,-323.42 1201,-285.5 1201,-285.5 1201,-285.5 1201,-228.5 1201,-197.19 1201,-160.77 1201,-139.23"/>
<polygon fill="#63b8ff" stroke="#63b8ff" points="1204.5,-139.18 1201,-129.18 1197.5,-139.18 1204.5,-139.18"/>
</a>
</g>
</g>
<!-- Node12 -->
<g id="Node000012" class="node">
<title>Node12</title>
<g id="a_Node000012"><a xlink:href="type_8h.html" target="_top" xlink:title="Defines typet, type_with_subtypet and type_with_subtypest.">
<polygon fill="white" stroke="#666666" points="824.5,-349 777.5,-349 777.5,-330 824.5,-330 824.5,-349"/>
<text text-anchor="middle" x="801" y="-337" font-family="Helvetica,sans-Serif" font-size="10.00">type.h</text>
</a>
</g>
</g>
<!-- Node9&#45;&gt;Node12 -->
<g id="edge11_Node000009_Node000012" class="edge">
<title>Node9&#45;&gt;Node12</title>
<g id="a_edge11_Node000009_Node000012"><a xlink:title=" ">
<path fill="none" stroke="#63b8ff" d="M870.66,-384.98C857.91,-376.84 838.45,-364.41 823.33,-354.76"/>
<polygon fill="#63b8ff" stroke="#63b8ff" points="824.89,-351.6 814.58,-349.17 821.12,-357.5 824.89,-351.6"/>
</a>
</g>
</g>
<!-- Node38 -->
<g id="Node000038" class="node">
<title>Node38</title>
<g id="a_Node000038"><a xlink:href="validation__mode_8h.html" target="_top" xlink:title=" ">
<polygon fill="white" stroke="#666666" points="872.5,-239 765.5,-239 765.5,-220 872.5,-220 872.5,-239"/>
<text text-anchor="middle" x="819" y="-227" font-family="Helvetica,sans-Serif" font-size="10.00">validation_mode.h</text>
</a>
</g>
</g>
<!-- Node9&#45;&gt;Node38 -->
<g id="edge33_Node000009_Node000038" class="edge">
<title>Node9&#45;&gt;Node38</title>
<g id="a_edge33_Node000009_Node000038"><a xlink:title=" ">
<path fill="none" stroke="#63b8ff" d="M887.49,-384.87C896.95,-360.84 921.65,-293.67 910,-275 900.35,-259.54 883.59,-249.3 867.07,-242.59"/>
<polygon fill="#63b8ff" stroke="#63b8ff" points="868.02,-239.21 857.42,-239.04 865.6,-245.78 868.02,-239.21"/>
</a>
</g>
</g>
<!-- Node39 -->
<g id="Node000039" class="node">
<title>Node39</title>
<g id="a_Node000039"><a xlink:href="validate__types_8h.html" target="_top" xlink:title=" ">
<polygon fill="white" stroke="#666666" points="901,-294 803,-294 803,-275 901,-275 901,-294"/>
<text text-anchor="middle" x="852" y="-282" font-family="Helvetica,sans-Serif" font-size="10.00">validate_types.h</text>
</a>
</g>
</g>
<!-- Node9&#45;&gt;Node39 -->
<g id="edge32_Node000009_Node000039" class="edge">
<title>Node9&#45;&gt;Node39</title>
<g id="a_edge32_Node000009_Node000039"><a xlink:title=" ">
<path fill="none" stroke="#63b8ff" d="M881.38,-384.66C876.18,-367.09 864.43,-327.45 857.47,-303.95"/>
<polygon fill="#63b8ff" stroke="#63b8ff" points="860.76,-302.75 854.57,-294.16 854.05,-304.74 860.76,-302.75"/>
</a>
</g>
</g>
<!-- Node40 -->
<g id="Node000040" class="node">
<title>Node40</title>
<g id="a_Node000040"><a xlink:href="validate__expressions_8h.html" target="_top" xlink:title=" ">
<polygon fill="white" stroke="#666666" points="1048.5,-349 919.5,-349 919.5,-330 1048.5,-330 1048.5,-349"/>
<text text-anchor="middle" x="984" y="-337" font-family="Helvetica,sans-Serif" font-size="10.00">validate_expressions.h</text>
</a>
</g>
</g>
<!-- Node9&#45;&gt;Node40 -->
<g id="edge31_Node000009_Node000040" class="edge">
<title>Node9&#45;&gt;Node40</title>
<g id="a_edge31_Node000009_Node000040"><a xlink:title=" ">
<path fill="none" stroke="#63b8ff" d="M900.07,-384.98C915.86,-376.61 940.22,-363.7 958.63,-353.95"/>
<polygon fill="#63b8ff" stroke="#63b8ff" points="960.44,-356.95 967.64,-349.17 957.17,-350.76 960.44,-356.95"/>
</a>
</g>
</g>
<!-- Node13 -->
<g id="Node000013" class="node">
<title>Node13</title>
<g id="a_Node000013"><a xlink:href="source__location_8h.html" target="_top" xlink:title=" ">
<polygon fill="white" stroke="#666666" points="870,-184 768,-184 768,-165 870,-165 870,-184"/>
<text text-anchor="middle" x="819" y="-172" font-family="Helvetica,sans-Serif" font-size="10.00">source_location.h</text>
</a>
</g>
</g>
<!-- Node12&#45;&gt;Node13 -->
<g id="edge12_Node000012_Node000013" class="edge">
<title>Node12&#45;&gt;Node13</title>
<g id="a_edge12_Node000012_Node000013"><a xlink:title=" ">
<path fill="none" stroke="#63b8ff" d="M792.99,-329.88C775.47,-309.91 736.86,-259.24 757,-220 763.96,-206.44 777.19,-196.07 789.65,-188.78"/>
<polygon fill="#63b8ff" stroke="#63b8ff" points="791.35,-191.84 798.48,-184 788.02,-185.68 791.35,-191.84"/>
</a>
</g>
</g>
<!-- Node36 -->
<g id="Node000036" class="node">
<title>Node36</title>
<g id="a_Node000036"><a xlink:href="validate_8h.html" target="_top" xlink:title=" ">
<polygon fill="white" stroke="#666666" points="1022.5,-294 957.5,-294 957.5,-275 1022.5,-275 1022.5,-294"/>
<text text-anchor="middle" x="990" y="-282" font-family="Helvetica,sans-Serif" font-size="10.00">validate.h</text>
</a>
</g>
</g>
<!-- Node12&#45;&gt;Node36 -->
<g id="edge22_Node000012_Node000036" class="edge">
<title>Node12&#45;&gt;Node36</title>
<g id="a_edge22_Node000012_Node000036"><a xlink:title=" ">
<path fill="none" stroke="#63b8ff" d="M824.55,-331.89C855.89,-323.11 911.76,-307.44 949.83,-296.77"/>
<polygon fill="#63b8ff" stroke="#63b8ff" points="950.89,-300.1 959.57,-294.03 949,-293.36 950.89,-300.1"/>
</a>
</g>
</g>
<!-- Node12&#45;&gt;Node38 -->
<g id="edge30_Node000012_Node000038" class="edge">
<title>Node12&#45;&gt;Node38</title>
<g id="a_edge30_Node000012_Node000038"><a xlink:title=" ">
<path fill="none" stroke="#63b8ff" d="M798.05,-329.73C794.34,-317.34 789,-294.1 794,-275 796.55,-265.26 801.75,-255.41 806.76,-247.46"/>
<polygon fill="#63b8ff" stroke="#63b8ff" points="809.69,-249.37 812.37,-239.12 803.89,-245.46 809.69,-249.37"/>
</a>
</g>
</g>
<!-- Node12&#45;&gt;Node39 -->
<g id="edge29_Node000012_Node000039" class="edge">
<title>Node12&#45;&gt;Node39</title>
<g id="a_edge29_Node000012_Node000039"><a xlink:title=" ">
<path fill="none" stroke="#63b8ff" d="M809.42,-329.75C816.77,-322.11 827.63,-310.82 836.54,-301.56"/>
<polygon fill="#63b8ff" stroke="#63b8ff" points="839.32,-303.72 843.74,-294.09 834.28,-298.87 839.32,-303.72"/>
</a>
</g>
</g>
<!-- Node13&#45;&gt;Node11 -->
<g id="edge13_Node000013_Node000011" class="edge">
<title>Node13&#45;&gt;Node11</title>
<g id="a_edge13_Node000013_Node000011"><a xlink:title=" ">
<path fill="none" stroke="#63b8ff" d="M870.12,-166.41C944.53,-156.08 1081.64,-137.06 1153.78,-127.05"/>
<polygon fill="#63b8ff" stroke="#63b8ff" points="1154.51,-130.48 1163.94,-125.64 1153.55,-123.55 1154.51,-130.48"/>
</a>
</g>
</g>
<!-- Node14 -->
<g id="Node000014" class="node">
<title>Node14</title>
<g id="a_Node000014"><a xlink:href="irep_8h.html" target="_top" xlink:title=" ">
<polygon fill="#fff0f0" stroke="red" points="558,-129 514,-129 514,-110 558,-110 558,-129"/>
<text text-anchor="middle" x="536" y="-117" font-family="Helvetica,sans-Serif" font-size="10.00">irep.h</text>
</a>
</g>
</g>
<!-- Node13&#45;&gt;Node14 -->
<g id="edge14_Node000013_Node000014" class="edge">
<title>Node13&#45;&gt;Node14</title>
<g id="a_edge14_Node000013_Node000014"><a xlink:title=" ">
<path fill="none" stroke="#63b8ff" d="M773.53,-164.98C716.06,-154.22 618.57,-135.96 568.22,-126.53"/>
<polygon fill="#63b8ff" stroke="#63b8ff" points="568.7,-123.06 558.22,-124.66 567.41,-129.94 568.7,-123.06"/>
</a>
</g>
</g>
<!-- Node15 -->
<g id="Node000015" class="node">
<title>Node15</title>
<g id="a_Node000015"><a xlink:title=" ">
<polygon fill="#e0e0e0" stroke="#999999" points="958,-19 914,-19 914,0 958,0 958,-19"/>
<text text-anchor="middle" x="936" y="-7" font-family="Helvetica,sans-Serif" font-size="10.00">string</text>
</a>
</g>
</g>
<!-- Node13&#45;&gt;Node15 -->
<g id="edge21_Node000013_Node000015" class="edge">
<title>Node13&#45;&gt;Node15</title>
<g id="a_edge21_Node000013_Node000015"><a xlink:title=" ">
<path fill="none" stroke="#63b8ff" d="M826.64,-164.84C834.31,-156.03 846.35,-141.86 856,-129 882.32,-93.93 910.41,-50.83 925.29,-27.48"/>
<polygon fill="#63b8ff" stroke="#63b8ff" points="928.25,-29.35 930.66,-19.03 922.34,-25.6 928.25,-29.35"/>
</a>
</g>
</g>
<!-- Node35 -->
<g id="Node000035" class="node">
<title>Node35</title>
<g id="a_Node000035"><a xlink:title=" ">
<polygon fill="#e0e0e0" stroke="#999999" points="847,-129 791,-129 791,-110 847,-110 847,-129"/>
<text text-anchor="middle" x="819" y="-117" font-family="Helvetica,sans-Serif" font-size="10.00">optional</text>
</a>
</g>
</g>
<!-- Node13&#45;&gt;Node35 -->
<g id="edge20_Node000013_Node000035" class="edge">
<title>Node13&#45;&gt;Node35</title>
<g id="a_edge20_Node000013_Node000035"><a xlink:title=" ">
<path fill="none" stroke="#63b8ff" d="M819,-164.75C819,-157.8 819,-147.85 819,-139.13"/>
<polygon fill="#63b8ff" stroke="#63b8ff" points="822.5,-139.09 819,-129.09 815.5,-139.09 822.5,-139.09"/>
</a>
</g>
</g>
<!-- Node14&#45;&gt;Node15 -->
<g id="edge15_Node000014_Node000015" class="edge">
<title>Node14&#45;&gt;Node15</title>
<g id="a_edge15_Node000014_Node000015"><a xlink:title=" ">
<path fill="none" stroke="#63b8ff" d="M544.24,-109.77C558.16,-95.64 587.87,-68.03 619,-55 716.73,-14.11 844.7,-9.44 903.67,-9.72"/>
<polygon fill="#63b8ff" stroke="#63b8ff" points="903.82,-13.23 913.85,-9.83 903.89,-6.23 903.82,-13.23"/>
</a>
</g>
</g>
<!-- Node14&#45;&gt;Node16 -->
<g id="edge16_Node000014_Node000016" class="edge">
<title>Node14&#45;&gt;Node16</title>
<g id="a_edge16_Node000014_Node000016"><a xlink:title=" ">
<path fill="none" stroke="#63b8ff" d="M530.06,-109.75C525.02,-102.34 517.66,-91.5 511.49,-82.41"/>
<polygon fill="#63b8ff" stroke="#63b8ff" points="514.35,-80.39 505.83,-74.09 508.56,-84.33 514.35,-80.39"/>
</a>
</g>
</g>
<!-- Node14&#45;&gt;Node17 -->
<g id="edge17_Node000014_Node000017" class="edge">
<title>Node14&#45;&gt;Node17</title>
<g id="a_edge17_Node000014_Node000017"><a xlink:title=" ">
<path fill="none" stroke="#63b8ff" d="M556.24,-109.98C576.7,-101.38 608.53,-87.99 631.93,-78.15"/>
<polygon fill="#63b8ff" stroke="#63b8ff" points="633.53,-81.27 641.39,-74.17 630.81,-74.82 633.53,-81.27"/>
</a>
</g>
</g>
<!-- Node17&#45;&gt;Node15 -->
<g id="edge18_Node000017_Node000015" class="edge">
<title>Node17&#45;&gt;Node15</title>
<g id="a_edge18_Node000017_Node000015"><a xlink:title=" ">
<path fill="none" stroke="#63b8ff" d="M696.7,-56.79C750.19,-46.44 852,-26.75 903.88,-16.71"/>
<polygon fill="#63b8ff" stroke="#63b8ff" points="904.71,-20.12 913.86,-14.78 903.38,-13.25 904.71,-20.12"/>
</a>
</g>
</g>
<!-- Node20 -->
<g id="Node000020" class="node">
<title>Node20</title>
<g id="a_Node000020"><a xlink:title=" ">
<polygon fill="#e0e0e0" stroke="#999999" points="586.5,-19 517.5,-19 517.5,0 586.5,0 586.5,-19"/>
<text text-anchor="middle" x="552" y="-7" font-family="Helvetica,sans-Serif" font-size="10.00">type_traits</text>
</a>
</g>
</g>
<!-- Node17&#45;&gt;Node20 -->
<g id="edge19_Node000017_Node000020" class="edge">
<title>Node17&#45;&gt;Node20</title>
<g id="a_edge19_Node000017_Node000020"><a xlink:title=" ">
<path fill="none" stroke="#63b8ff" d="M644.33,-54.98C626.71,-46.5 599.42,-33.35 579.07,-23.54"/>
<polygon fill="#63b8ff" stroke="#63b8ff" points="580.52,-20.36 569.99,-19.17 577.48,-26.66 580.52,-20.36"/>
</a>
</g>
</g>
<!-- Node36&#45;&gt;Node20 -->
<g id="edge23_Node000036_Node000020" class="edge">
<title>Node36&#45;&gt;Node20</title>
<g id="a_edge23_Node000036_Node000020"><a xlink:title=" ">
<path fill="none" stroke="#63b8ff" d="M976.37,-274.8C951.9,-259.3 901.26,-227.79 882,-220 802.1,-187.7 558.31,-196.71 505,-129 487.18,-106.37 532.75,-74.48 533,-74 540.34,-59.76 545.32,-42.23 548.33,-29.2"/>
<polygon fill="#63b8ff" stroke="#63b8ff" points="551.82,-29.61 550.48,-19.1 544.97,-28.15 551.82,-29.61"/>
</a>
</g>
</g>
<!-- Node37 -->
<g id="Node000037" class="node">
<title>Node37</title>
<g id="a_Node000037"><a xlink:href="exception__utils_8h.html" target="_top" xlink:title=" ">
<polygon fill="white" stroke="#666666" points="1029,-239 929,-239 929,-220 1029,-220 1029,-239"/>
<text text-anchor="middle" x="979" y="-227" font-family="Helvetica,sans-Serif" font-size="10.00">exception_utils.h</text>
</a>
</g>
</g>
<!-- Node36&#45;&gt;Node37 -->
<g id="edge24_Node000036_Node000037" class="edge">
<title>Node36&#45;&gt;Node37</title>
<g id="a_edge24_Node000036_Node000037"><a xlink:title=" ">
<path fill="none" stroke="#63b8ff" d="M988.18,-274.75C986.74,-267.8 984.68,-257.85 982.87,-249.13"/>
<polygon fill="#63b8ff" stroke="#63b8ff" points="986.24,-248.17 980.78,-239.09 979.39,-249.59 986.24,-248.17"/>
</a>
</g>
</g>
<!-- Node36&#45;&gt;Node38 -->
<g id="edge28_Node000036_Node000038" class="edge">
<title>Node36&#45;&gt;Node38</title>
<g id="a_edge28_Node000036_Node000038"><a xlink:title=" ">
<path fill="none" stroke="#63b8ff" d="M962.53,-274.98C933.82,-266.09 888.58,-252.07 856.58,-242.15"/>
<polygon fill="#63b8ff" stroke="#63b8ff" points="857.28,-238.7 846.69,-239.08 855.2,-245.39 857.28,-238.7"/>
</a>
</g>
</g>
<!-- Node37&#45;&gt;Node13 -->
<g id="edge27_Node000037_Node000013" class="edge">
<title>Node37&#45;&gt;Node13</title>
<g id="a_edge27_Node000037_Node000013"><a xlink:title=" ">
<path fill="none" stroke="#63b8ff" d="M953.29,-219.98C926.55,-211.13 884.47,-197.19 854.55,-187.28"/>
<polygon fill="#63b8ff" stroke="#63b8ff" points="855.5,-183.9 844.91,-184.08 853.3,-190.55 855.5,-183.9"/>
</a>
</g>
</g>
<!-- Node37&#45;&gt;Node15 -->
<g id="edge25_Node000037_Node000015" class="edge">
<title>Node37&#45;&gt;Node15</title>
<g id="a_edge25_Node000037_Node000015"><a xlink:title=" ">
<path fill="none" stroke="#63b8ff" d="M977.31,-219.95C970.99,-187.88 948.56,-74.2 939.67,-29.12"/>
<polygon fill="#63b8ff" stroke="#63b8ff" points="943.09,-28.36 937.72,-19.22 936.22,-29.71 943.09,-28.36"/>
</a>
</g>
</g>
<!-- Node37&#45;&gt;Node17 -->
<g id="edge26_Node000037_Node000017" class="edge">
<title>Node37&#45;&gt;Node17</title>
<g id="a_edge26_Node000037_Node000017"><a xlink:title=" ">
<path fill="none" stroke="#63b8ff" d="M972.67,-219.71C956.17,-197.52 909.46,-138.94 856,-110 808.79,-84.45 747.45,-73.52 706.5,-68.88"/>
<polygon fill="#63b8ff" stroke="#63b8ff" points="706.87,-65.4 696.55,-67.83 706.13,-72.36 706.87,-65.4"/>
</a>
</g>
</g>
<!-- Node41&#45;&gt;Node7 -->
<g id="edge38_Node000041_Node000007" class="edge">
<title>Node41&#45;&gt;Node7</title>
<g id="a_edge38_Node000041_Node000007"><a xlink:title=" ">
<path fill="none" stroke="#63b8ff" d="M167.63,-439.75C170.58,-432.65 174.83,-422.4 178.51,-413.56"/>
<polygon fill="#63b8ff" stroke="#63b8ff" points="181.83,-414.67 182.43,-404.09 175.37,-411.98 181.83,-414.67"/>
</a>
</g>
</g>
<!-- Node41&#45;&gt;Node14 -->
<g id="edge37_Node000041_Node000014" class="edge">
<title>Node41&#45;&gt;Node14</title>
<g id="a_edge37_Node000041_Node000014"><a xlink:title=" ">
<path fill="none" stroke="#63b8ff" d="M160.77,-439.95C156.47,-427.01 150.54,-402.15 161,-385 262.79,-218.22 450.21,-350.78 552,-184 560.58,-169.94 554.33,-151.47 547.28,-138.07"/>
<polygon fill="#63b8ff" stroke="#63b8ff" points="550.26,-136.23 542.21,-129.35 544.21,-139.75 550.26,-136.23"/>
</a>
</g>
</g>
<!-- Node42 -->
<g id="Node000042" class="node">
<title>Node42</title>
<g id="a_Node000042"><a xlink:title=" ">
<polygon fill="#e0e0e0" stroke="#999999" points="114,-404 28,-404 28,-385 114,-385 114,-404"/>
<text text-anchor="middle" x="71" y="-392" font-family="Helvetica,sans-Serif" font-size="10.00">unordered_set</text>
</a>
</g>
</g>
<!-- Node41&#45;&gt;Node42 -->
<g id="edge39_Node000041_Node000042" class="edge">
<title>Node41&#45;&gt;Node42</title>
<g id="a_edge39_Node000041_Node000042"><a xlink:title=" ">
<path fill="none" stroke="#63b8ff" d="M149.06,-439.98C134.5,-431.69 112.13,-418.94 95.07,-409.22"/>
<polygon fill="#63b8ff" stroke="#63b8ff" points="96.64,-406.08 86.21,-404.17 93.17,-412.16 96.64,-406.08"/>
</a>
</g>
</g>
<!-- Node44 -->
<g id="Node000044" class="node">
<title>Node44</title>
<g id="a_Node000044"><a xlink:href="mathematical__types_8h.html" target="_top" xlink:title="Mathematical types.">
<polygon fill="white" stroke="#666666" points="691,-514 565,-514 565,-495 691,-495 691,-514"/>
<text text-anchor="middle" x="628" y="-502" font-family="Helvetica,sans-Serif" font-size="10.00">mathematical_types.h</text>
</a>
</g>
</g>
<!-- Node43&#45;&gt;Node44 -->
<g id="edge41_Node000043_Node000044" class="edge">
<title>Node43&#45;&gt;Node44</title>
<g id="a_edge41_Node000043_Node000044"><a xlink:title=" ">
<path fill="none" stroke="#63b8ff" d="M618.82,-604.66C620.44,-587.17 624.08,-547.8 626.26,-524.27"/>
<polygon fill="#63b8ff" stroke="#63b8ff" points="629.76,-524.44 627.2,-514.16 622.79,-523.79 629.76,-524.44"/>
</a>
</g>
</g>
<!-- Node43&#45;&gt;Node47 -->
<g id="edge50_Node000043_Node000047" class="edge">
<title>Node43&#45;&gt;Node47</title>
<g id="a_edge50_Node000043_Node000047"><a xlink:title=" ">
<path fill="none" stroke="#63b8ff" d="M634.71,-604.98C651.21,-596.57 676.7,-583.59 695.88,-573.81"/>
<polygon fill="#63b8ff" stroke="#63b8ff" points="697.67,-576.83 704.99,-569.17 694.49,-570.59 697.67,-576.83"/>
</a>
</g>
</g>
<!-- Node44&#45;&gt;Node12 -->
<g id="edge49_Node000044_Node000012" class="edge">
<title>Node44&#45;&gt;Node12</title>
<g id="a_edge49_Node000044_Node000012"><a xlink:title=" ">
<path fill="none" stroke="#63b8ff" d="M637.3,-494.74C665.11,-468.53 747.92,-390.51 783.94,-356.57"/>
<polygon fill="#63b8ff" stroke="#63b8ff" points="786.77,-358.71 791.65,-349.31 781.97,-353.62 786.77,-358.71"/>
</a>
</g>
</g>
<!-- Node44&#45;&gt;Node17 -->
<g id="edge48_Node000044_Node000017" class="edge">
<title>Node44&#45;&gt;Node17</title>
<g id="a_edge48_Node000044_Node000017"><a xlink:title=" ">
<path fill="none" stroke="#63b8ff" d="M626.55,-494.82C622.73,-471.39 612.42,-404.84 609,-349 608.48,-340.57 608.17,-338.4 609,-330 609.31,-326.88 646.2,-143.81 658.25,-84.11"/>
<polygon fill="#63b8ff" stroke="#63b8ff" points="661.7,-84.68 660.25,-74.18 654.84,-83.29 661.7,-84.68"/>
</a>
</g>
</g>
<!-- Node45 -->
<g id="Node000045" class="node">
<title>Node45</title>
<g id="a_Node000045"><a xlink:href="expr__cast_8h.html" target="_top" xlink:title="Templated functions to cast to specific exprt&#45;derived classes.">
<polygon fill="white" stroke="#666666" points="781.5,-459 708.5,-459 708.5,-440 781.5,-440 781.5,-459"/>
<text text-anchor="middle" x="745" y="-447" font-family="Helvetica,sans-Serif" font-size="10.00">expr_cast.h</text>
</a>
</g>
</g>
<!-- Node44&#45;&gt;Node45 -->
<g id="edge42_Node000044_Node000045" class="edge">
<title>Node44&#45;&gt;Node45</title>
<g id="a_edge42_Node000044_Node000045"><a xlink:title=" ">
<path fill="none" stroke="#63b8ff" d="M646.8,-494.98C665.62,-486.46 694.82,-473.23 716.5,-463.41"/>
<polygon fill="#63b8ff" stroke="#63b8ff" points="718.2,-466.48 725.86,-459.17 715.31,-460.11 718.2,-466.48"/>
</a>
</g>
</g>
<!-- Node45&#45;&gt;Node6 -->
<g id="edge45_Node000045_Node000006" class="edge">
<title>Node45&#45;&gt;Node6</title>
<g id="a_edge45_Node000045_Node000006"><a xlink:title=" ">
<path fill="none" stroke="#63b8ff" d="M735.96,-439.89C726.86,-431.11 712.57,-416.97 701,-404 687.39,-388.74 672.88,-370.45 662.83,-357.43"/>
<polygon fill="#63b8ff" stroke="#63b8ff" points="665.51,-355.17 656.65,-349.36 659.95,-359.43 665.51,-355.17"/>
</a>
</g>
</g>
<!-- Node45&#45;&gt;Node9 -->
<g id="edge47_Node000045_Node000009" class="edge">
<title>Node45&#45;&gt;Node9</title>
<g id="a_edge47_Node000045_Node000009"><a xlink:title=" ">
<path fill="none" stroke="#63b8ff" d="M767.33,-439.98C790.2,-431.27 825.96,-417.63 851.86,-407.75"/>
<polygon fill="#63b8ff" stroke="#63b8ff" points="853.16,-411 861.26,-404.17 850.67,-404.46 853.16,-411"/>
</a>
</g>
</g>
<!-- Node45&#45;&gt;Node17 -->
<g id="edge46_Node000045_Node000017" class="edge">
<title>Node45&#45;&gt;Node17</title>
<g id="a_edge46_Node000045_Node000017"><a xlink:title=" ">
<path fill="none" stroke="#63b8ff" d="M743.7,-439.85C740.71,-420.24 733.01,-370.95 725,-330 705.77,-231.69 701.94,-206.76 676,-110 673.69,-101.4 670.78,-91.97 668.22,-84.02"/>
<polygon fill="#63b8ff" stroke="#63b8ff" points="671.47,-82.7 665.01,-74.3 664.82,-84.89 671.47,-82.7"/>
</a>
</g>
</g>
<!-- Node45&#45;&gt;Node20 -->
<g id="edge44_Node000045_Node000020" class="edge">
<title>Node45&#45;&gt;Node20</title>
<g id="a_edge44_Node000045_Node000020"><a xlink:title=" ">
<path fill="none" stroke="#63b8ff" d="M742.33,-439.93C735.79,-419.67 717.58,-367.66 692,-330 607.05,-204.94 503.27,-221.01 468,-74 466.03,-65.79 463.65,-62.23 468,-55 477.09,-39.89 493.22,-29.65 508.94,-22.83"/>
<polygon fill="#63b8ff" stroke="#63b8ff" points="510.58,-25.95 518.6,-19.02 508.01,-19.44 510.58,-25.95"/>
</a>
</g>
</g>
<!-- Node46 -->
<g id="Node000046" class="node">
<title>Node46</title>
<g id="a_Node000046"><a xlink:title=" ">
<polygon fill="#e0e0e0" stroke="#999999" points="838.5,-404 781.5,-404 781.5,-385 838.5,-385 838.5,-404"/>
<text text-anchor="middle" x="810" y="-392" font-family="Helvetica,sans-Serif" font-size="10.00">typeinfo</text>
</a>
</g>
</g>
<!-- Node45&#45;&gt;Node46 -->
<g id="edge43_Node000045_Node000046" class="edge">
<title>Node45&#45;&gt;Node46</title>
<g id="a_edge43_Node000045_Node000046"><a xlink:title=" ">
<path fill="none" stroke="#63b8ff" d="M755.44,-439.98C765.15,-432.07 779.82,-420.11 791.5,-410.58"/>
<polygon fill="#63b8ff" stroke="#63b8ff" points="793.83,-413.2 799.37,-404.17 789.4,-407.78 793.83,-413.2"/>
</a>
</g>
</g>
<!-- Node47&#45;&gt;Node11 -->
<g id="edge51_Node000047_Node000011" class="edge">
<title>Node47&#45;&gt;Node11</title>
<g id="a_edge51_Node000047_Node000011"><a xlink:title=" ">
<path fill="none" stroke="#63b8ff" d="M755.8,-557.23C846.9,-553.47 1095.85,-540.97 1173,-514 1215.48,-499.15 1236.5,-498.53 1258,-459 1262.04,-451.58 1258.8,-448.41 1258,-440 1253.76,-395.18 1239,-385.52 1239,-340.5 1239,-340.5 1239,-340.5 1239,-228.5 1239,-195.02 1222.55,-158.84 1211.3,-138.01"/>
<polygon fill="#63b8ff" stroke="#63b8ff" points="1214.24,-136.1 1206.28,-129.1 1208.13,-139.53 1214.24,-136.1"/>
</a>
</g>
</g>
<!-- Node47&#45;&gt;Node17 -->
<g id="edge53_Node000047_Node000017" class="edge">
<title>Node47&#45;&gt;Node17</title>
<g id="a_edge53_Node000047_Node000017"><a xlink:title=" ">
<path fill="none" stroke="#63b8ff" d="M688.18,-554.28C644.45,-548.05 571.98,-534.83 556,-514 449.47,-375.15 602.38,-146.13 649.15,-82.41"/>
<polygon fill="#63b8ff" stroke="#63b8ff" points="652.07,-84.35 655.23,-74.24 646.45,-80.17 652.07,-84.35"/>
</a>
</g>
</g>
<!-- Node47&#45;&gt;Node45 -->
<g id="edge52_Node000047_Node000045" class="edge">
<title>Node47&#45;&gt;Node45</title>
<g id="a_edge52_Node000047_Node000045"><a xlink:title=" ">
<path fill="none" stroke="#63b8ff" d="M723.88,-549.66C727.62,-532.09 736.07,-492.45 741.07,-468.95"/>
<polygon fill="#63b8ff" stroke="#63b8ff" points="744.5,-469.67 743.16,-459.16 737.65,-468.21 744.5,-469.67"/>
</a>
</g>
</g>
<!-- Node48 -->
<g id="Node000048" class="node">
<title>Node48</title>
<g id="a_Node000048"><a xlink:href="std__types_8h.html" target="_top" xlink:title="Pre&#45;defined types.">
<polygon fill="white" stroke="#666666" points="1163.5,-514 1090.5,-514 1090.5,-495 1163.5,-495 1163.5,-514"/>
<text text-anchor="middle" x="1127" y="-502" font-family="Helvetica,sans-Serif" font-size="10.00">std_types.h</text>
</a>
</g>
</g>
<!-- Node47&#45;&gt;Node48 -->
<g id="edge54_Node000047_Node000048" class="edge">
<title>Node47&#45;&gt;Node48</title>
<g id="a_edge54_Node000047_Node000048"><a xlink:title=" ">
<path fill="none" stroke="#63b8ff" d="M755.83,-554.07C828.12,-544.61 997.75,-522.41 1080.27,-511.62"/>
<polygon fill="#63b8ff" stroke="#63b8ff" points="1080.9,-515.06 1090.36,-510.29 1080,-508.12 1080.9,-515.06"/>
</a>
</g>
</g>
<!-- Node48&#45;&gt;Node9 -->
<g id="edge55_Node000048_Node000009" class="edge">
<title>Node48&#45;&gt;Node9</title>
<g id="a_edge55_Node000048_Node000009"><a xlink:title=" ">
<path fill="none" stroke="#63b8ff" d="M1107.53,-494.84C1064.76,-475.84 962.5,-430.39 912.5,-408.17"/>
<polygon fill="#63b8ff" stroke="#63b8ff" points="913.79,-404.91 903.23,-404.05 910.95,-411.31 913.79,-404.91"/>
</a>
</g>
</g>
<!-- Node48&#45;&gt;Node17 -->
<g id="edge57_Node000048_Node000017" class="edge">
<title>Node48&#45;&gt;Node17</title>
<g id="a_edge57_Node000048_Node000017"><a xlink:title=" ">
<path fill="none" stroke="#63b8ff" d="M1163.51,-500.18C1192.86,-495.61 1233.16,-484.77 1258,-459 1278.44,-437.79 1277,-424.96 1277,-395.5 1277,-395.5 1277,-395.5 1277,-173.5 1277,-142.29 1272.71,-127.69 1247,-110 1202.88,-79.64 836.34,-69.13 706.99,-66.34"/>
<polygon fill="#63b8ff" stroke="#63b8ff" points="706.72,-62.84 696.65,-66.13 706.58,-69.84 706.72,-62.84"/>
</a>
</g>
</g>
<!-- Node48&#45;&gt;Node36 -->
<g id="edge62_Node000048_Node000036" class="edge">
<title>Node48&#45;&gt;Node36</title>
<g id="a_edge62_Node000048_Node000036"><a xlink:title=" ">
<path fill="none" stroke="#63b8ff" d="M1129.32,-494.91C1137.56,-463.64 1163.83,-356.37 1144,-330 1130.59,-312.16 1073.52,-299.21 1032.77,-292.02"/>
<polygon fill="#63b8ff" stroke="#63b8ff" points="1033.25,-288.55 1022.8,-290.32 1032.07,-295.45 1033.25,-288.55"/>
</a>
</g>
</g>
<!-- Node48&#45;&gt;Node45 -->
<g id="edge56_Node000048_Node000045" class="edge">
<title>Node48&#45;&gt;Node45</title>
<g id="a_edge56_Node000048_Node000045"><a xlink:title=" ">
<path fill="none" stroke="#63b8ff" d="M1090.37,-498.42C1020.64,-488.74 868.9,-467.69 791.87,-457"/>
<polygon fill="#63b8ff" stroke="#63b8ff" points="791.9,-453.47 781.52,-455.57 790.94,-460.41 791.9,-453.47"/>
</a>
</g>
</g>
<!-- Node49 -->
<g id="Node000049" class="node">
<title>Node49</title>
<g id="a_Node000049"><a xlink:href="mp__arith_8h.html" target="_top" xlink:title=" ">
<polygon fill="white" stroke="#666666" points="1432.5,-459 1363.5,-459 1363.5,-440 1432.5,-440 1432.5,-459"/>
<text text-anchor="middle" x="1398" y="-447" font-family="Helvetica,sans-Serif" font-size="10.00">mp_arith.h</text>
</a>
</g>
</g>
<!-- Node48&#45;&gt;Node49 -->
<g id="edge58_Node000048_Node000049" class="edge">
<title>Node48&#45;&gt;Node49</title>
<g id="a_edge58_Node000048_Node000049"><a xlink:title=" ">
<path fill="none" stroke="#63b8ff" d="M1163.55,-496.35C1212.72,-486.74 1300.1,-469.65 1353.18,-459.27"/>
<polygon fill="#63b8ff" stroke="#63b8ff" points="1354.17,-462.64 1363.31,-457.28 1352.83,-455.77 1354.17,-462.64"/>
</a>
</g>
</g>
<!-- Node28 -->
<g id="Node000028" class="node">
<title>Node28</title>
<g id="a_Node000028"><a xlink:title=" ">
<polygon fill="#e0e0e0" stroke="#999999" points="1248.5,-459 1155.5,-459 1155.5,-440 1248.5,-440 1248.5,-459"/>
<text text-anchor="middle" x="1202" y="-447" font-family="Helvetica,sans-Serif" font-size="10.00">unordered_map</text>
</a>
</g>
</g>
<!-- Node48&#45;&gt;Node28 -->
<g id="edge63_Node000048_Node000028" class="edge">
<title>Node48&#45;&gt;Node28</title>
<g id="a_edge63_Node000048_Node000028"><a xlink:title=" ">
<path fill="none" stroke="#63b8ff" d="M1139.05,-494.98C1150.46,-486.92 1167.83,-474.65 1181.43,-465.03"/>
<polygon fill="#63b8ff" stroke="#63b8ff" points="1183.58,-467.8 1189.73,-459.17 1179.54,-462.08 1183.58,-467.8"/>
</a>
</g>
</g>
<!-- Node49&#45;&gt;Node15 -->
<g id="edge60_Node000049_Node000015" class="edge">
<title>Node49&#45;&gt;Node15</title>
<g id="a_edge60_Node000049_Node000015"><a xlink:title=" ">
<path fill="none" stroke="#63b8ff" d="M1422.17,-439.89C1438.98,-432.73 1460.68,-420.95 1474,-404 1492.2,-380.84 1493,-369.96 1493,-340.5 1493,-340.5 1493,-340.5 1493,-118.5 1493,-10.92 1087.49,-8.3 968.47,-9.84"/>
<polygon fill="#63b8ff" stroke="#63b8ff" points="968.13,-6.35 958.18,-10 968.23,-13.35 968.13,-6.35"/>
</a>
</g>
</g>
<!-- Node23 -->
<g id="Node000023" class="node">
<title>Node23</title>
<g id="a_Node000023"><a xlink:title=" ">
<polygon fill="#e0e0e0" stroke="#999999" points="1353,-404 1305,-404 1305,-385 1353,-385 1353,-404"/>
<text text-anchor="middle" x="1329" y="-392" font-family="Helvetica,sans-Serif" font-size="10.00">iosfwd</text>
</a>
</g>
</g>
<!-- Node49&#45;&gt;Node23 -->
<g id="edge59_Node000049_Node000023" class="edge">
<title>Node49&#45;&gt;Node23</title>
<g id="a_edge59_Node000049_Node000023"><a xlink:title=" ">
<path fill="none" stroke="#63b8ff" d="M1386.91,-439.98C1376.51,-432 1360.74,-419.88 1348.28,-410.31"/>
<polygon fill="#63b8ff" stroke="#63b8ff" points="1350.35,-407.49 1340.29,-404.17 1346.09,-413.04 1350.35,-407.49"/>
</a>
</g>
</g>
<!-- Node50 -->
<g id="Node000050" class="node">
<title>Node50</title>
<g id="a_Node000050"><a xlink:title=" ">
<polygon fill="#e0e0e0" stroke="#999999" points="1465,-404 1371,-404 1371,-385 1465,-385 1465,-404"/>
<text text-anchor="middle" x="1418" y="-392" font-family="Helvetica,sans-Serif" font-size="10.00">big&#45;int/bigint.hh</text>
</a>
</g>
</g>
<!-- Node49&#45;&gt;Node50 -->
<g id="edge61_Node000049_Node000050" class="edge">
<title>Node49&#45;&gt;Node50</title>
<g id="a_edge61_Node000049_Node000050"><a xlink:title=" ">
<path fill="none" stroke="#63b8ff" d="M1401.3,-439.75C1403.98,-432.65 1407.85,-422.4 1411.19,-413.56"/>
<polygon fill="#63b8ff" stroke="#63b8ff" points="1414.5,-414.68 1414.76,-404.09 1407.95,-412.21 1414.5,-414.68"/>
</a>
</g>
</g>
</g>
</svg>
