<?xml version="1.0" encoding="UTF-8" standalone="no"?>
<!DOCTYPE svg PUBLIC "-//W3C//DTD SVG 1.1//EN"
 "http://www.w3.org/Graphics/SVG/1.1/DTD/svg11.dtd">
<!-- Generated by graphviz version 2.43.0 (0)
 -->
<!-- Title: /home/runner/work/cbmc/cbmc/src/cprover/chc_wto.h Pages: 1 -->
<svg width="1441pt" height="753pt"
 viewBox="0.00 0.00 1441.00 753.00" xmlns="http://www.w3.org/2000/svg" xmlns:xlink="http://www.w3.org/1999/xlink">
<g id="graph0" class="graph" transform="scale(1 1) rotate(0) translate(4 749)">
<title>/home/runner/work/cbmc/cbmc/src/cprover/chc_wto.h</title>
<!-- Node1 -->
<g id="Node000001" class="node">
<title>Node1</title>
<g id="a_Node000001"><a xlink:title="Weak topological ordering (WTO) for CHC dependency graphs.">
<polygon fill="#999999" stroke="#666666" points="842.5,-745 687.5,-745 687.5,-715 842.5,-715 842.5,-745"/>
<text text-anchor="start" x="695.5" y="-733" font-family="Helvetica,sans-Serif" font-size="10.00">/home/runner/work/cbmc</text>
<text text-anchor="middle" x="765" y="-722" font-family="Helvetica,sans-Serif" font-size="10.00">/cbmc/src/cprover/chc_wto.h</text>
</a>
</g>
</g>
<!-- Node2 -->
<g id="Node000002" class="node">
<title>Node2</title>
<g id="a_Node000002"><a xlink:href="src_2util_2invariant_8h.html" target="_top" xlink:title=" ">
<polygon fill="white" stroke="#666666" points="892,-74 804,-74 804,-55 892,-55 892,-74"/>
<text text-anchor="middle" x="848" y="-62" font-family="Helvetica,sans-Serif" font-size="10.00">util/invariant.h</text>
</a>
</g>
</g>
<!-- Node1&#45;&gt;Node2 -->
<g id="edge1_Node000001_Node000002" class="edge">
<title>Node1&#45;&gt;Node2</title>
<g id="a_edge1_Node000001_Node000002"><a xlink:title=" ">
<path fill="none" stroke="#63b8ff" d="M842.65,-727.45C984.02,-722.5 1269,-701.83 1269,-615.5 1269,-615.5 1269,-615.5 1269,-173.5 1269,-98.68 1016.37,-74.97 902.5,-68.08"/>
<polygon fill="#63b8ff" stroke="#63b8ff" points="902.45,-64.57 892.26,-67.49 902.04,-71.56 902.45,-64.57"/>
</a>
</g>
</g>
<!-- Node7 -->
<g id="Node000007" class="node">
<title>Node7</title>
<g id="a_Node000007"><a xlink:href="chc__db_8h.html" target="_top" xlink:title="CHC (Constrained Horn Clause) database.">
<polygon fill="white" stroke="#666666" points="365.5,-679 306.5,-679 306.5,-660 365.5,-660 365.5,-679"/>
<text text-anchor="middle" x="336" y="-667" font-family="Helvetica,sans-Serif" font-size="10.00">chc_db.h</text>
</a>
</g>
</g>
<!-- Node1&#45;&gt;Node7 -->
<g id="edge6_Node000001_Node000007" class="edge">
<title>Node1&#45;&gt;Node7</title>
<g id="a_edge6_Node000001_Node000007"><a xlink:title=" ">
<path fill="none" stroke="#63b8ff" d="M687.31,-718.41C595.67,-705.91 446.86,-685.62 375.99,-675.95"/>
<polygon fill="#63b8ff" stroke="#63b8ff" points="376.09,-672.43 365.71,-674.55 375.14,-679.37 376.09,-672.43"/>
</a>
</g>
</g>
<!-- Node9 -->
<g id="Node000009" class="node">
<title>Node9</title>
<g id="a_Node000009"><a xlink:title=" ">
<polygon fill="#e0e0e0" stroke="#999999" points="713.5,-569 666.5,-569 666.5,-550 713.5,-550 713.5,-569"/>
<text text-anchor="middle" x="690" y="-557" font-family="Helvetica,sans-Serif" font-size="10.00">deque</text>
</a>
</g>
</g>
<!-- Node1&#45;&gt;Node9 -->
<g id="edge72_Node000001_Node000009" class="edge">
<title>Node1&#45;&gt;Node9</title>
<g id="a_edge72_Node000001_Node000009"><a xlink:title=" ">
<path fill="none" stroke="#63b8ff" d="M749.61,-714.81C730.62,-696.14 699.34,-661.3 687,-624 682.23,-609.57 683.46,-592.3 685.61,-579.41"/>
<polygon fill="#63b8ff" stroke="#63b8ff" points="689.08,-579.89 687.62,-569.4 682.22,-578.52 689.08,-579.89"/>
</a>
</g>
</g>
<!-- Node20 -->
<g id="Node000020" class="node">
<title>Node20</title>
<g id="a_Node000020"><a xlink:title=" ">
<polygon fill="#e0e0e0" stroke="#999999" points="99.5,-74 52.5,-74 52.5,-55 99.5,-55 99.5,-74"/>
<text text-anchor="middle" x="76" y="-62" font-family="Helvetica,sans-Serif" font-size="10.00">vector</text>
</a>
</g>
</g>
<!-- Node1&#45;&gt;Node20 -->
<g id="edge77_Node000001_Node000020" class="edge">
<title>Node1&#45;&gt;Node20</title>
<g id="a_edge77_Node000001_Node000020"><a xlink:title=" ">
<path fill="none" stroke="#63b8ff" d="M687.33,-726.76C540.56,-721.9 227.85,-708.37 124,-679 64.42,-662.15 0,-677.42 0,-615.5 0,-615.5 0,-615.5 0,-173.5 0,-134.47 33.61,-99.58 56.13,-80.6"/>
<polygon fill="#63b8ff" stroke="#63b8ff" points="58.56,-83.14 64.12,-74.12 54.15,-77.7 58.56,-83.14"/>
</a>
</g>
</g>
<!-- Node35 -->
<g id="Node000035" class="node">
<title>Node35</title>
<g id="a_Node000035"><a xlink:title=" ">
<polygon fill="#e0e0e0" stroke="#999999" points="388,-129 332,-129 332,-110 388,-110 388,-129"/>
<text text-anchor="middle" x="360" y="-117" font-family="Helvetica,sans-Serif" font-size="10.00">optional</text>
</a>
</g>
</g>
<!-- Node1&#45;&gt;Node35 -->
<g id="edge75_Node000001_Node000035" class="edge">
<title>Node1&#45;&gt;Node35</title>
<g id="a_edge75_Node000001_Node000035"><a xlink:title=" ">
<path fill="none" stroke="#63b8ff" d="M687.2,-724.92C499.65,-714.04 38,-680.65 38,-615.5 38,-615.5 38,-615.5 38,-338.5 38,-202.73 236.72,-145.74 321.94,-127.54"/>
<polygon fill="#63b8ff" stroke="#63b8ff" points="322.9,-130.92 331.99,-125.47 321.49,-124.06 322.9,-130.92"/>
</a>
</g>
</g>
<!-- Node28 -->
<g id="Node000028" class="node">
<title>Node28</title>
<g id="a_Node000028"><a xlink:title=" ">
<polygon fill="#e0e0e0" stroke="#999999" points="872.5,-459 779.5,-459 779.5,-440 872.5,-440 872.5,-459"/>
<text text-anchor="middle" x="826" y="-447" font-family="Helvetica,sans-Serif" font-size="10.00">unordered_map</text>
</a>
</g>
</g>
<!-- Node1&#45;&gt;Node28 -->
<g id="edge76_Node000001_Node000028" class="edge">
<title>Node1&#45;&gt;Node28</title>
<g id="a_edge76_Node000001_Node000028"><a xlink:title=" ">
<path fill="none" stroke="#63b8ff" d="M789.48,-714.99C818.5,-696.33 863,-660.41 863,-615.5 863,-615.5 863,-615.5 863,-558.5 863,-525.12 846.98,-488.91 836.02,-468.04"/>
<polygon fill="#63b8ff" stroke="#63b8ff" points="839.01,-466.21 831.14,-459.12 832.87,-469.57 839.01,-466.21"/>
</a>
</g>
</g>
<!-- Node52 -->
<g id="Node000052" class="node">
<title>Node52</title>
<g id="a_Node000052"><a xlink:title=" ">
<polygon fill="#e0e0e0" stroke="#999999" points="1357,-679 1297,-679 1297,-660 1357,-660 1357,-679"/>
<text text-anchor="middle" x="1327" y="-667" font-family="Helvetica,sans-Serif" font-size="10.00">iostream</text>
</a>
</g>
</g>
<!-- Node1&#45;&gt;Node52 -->
<g id="edge73_Node000001_Node000052" class="edge">
<title>Node1&#45;&gt;Node52</title>
<g id="a_edge73_Node000001_Node000052"><a xlink:title=" ">
<path fill="none" stroke="#63b8ff" d="M842.5,-723.82C944.02,-716.5 1127.41,-701.49 1283,-679 1284.26,-678.82 1285.53,-678.63 1286.82,-678.42"/>
<polygon fill="#63b8ff" stroke="#63b8ff" points="1287.5,-681.86 1296.77,-676.73 1286.32,-674.96 1287.5,-681.86"/>
</a>
</g>
</g>
<!-- Node53 -->
<g id="Node000053" class="node">
<title>Node53</title>
<g id="a_Node000053"><a xlink:title=" ">
<polygon fill="#e0e0e0" stroke="#999999" points="1433,-679 1375,-679 1375,-660 1433,-660 1433,-679"/>
<text text-anchor="middle" x="1404" y="-667" font-family="Helvetica,sans-Serif" font-size="10.00">memory</text>
</a>
</g>
</g>
<!-- Node1&#45;&gt;Node53 -->
<g id="edge74_Node000001_Node000053" class="edge">
<title>Node1&#45;&gt;Node53</title>
<g id="a_edge74_Node000001_Node000053"><a xlink:title=" ">
<path fill="none" stroke="#63b8ff" d="M842.72,-725.94C955.68,-720.74 1171.89,-707.94 1364.59,-679.01"/>
<polygon fill="#63b8ff" stroke="#63b8ff" points="1365.26,-682.45 1374.62,-677.49 1364.2,-675.53 1365.26,-682.45"/>
</a>
</g>
</g>
<!-- Node3 -->
<g id="Node000003" class="node">
<title>Node3</title>
<g id="a_Node000003"><a xlink:title=" ">
<polygon fill="#e0e0e0" stroke="#999999" points="907.5,-19 858.5,-19 858.5,0 907.5,0 907.5,-19"/>
<text text-anchor="middle" x="883" y="-7" font-family="Helvetica,sans-Serif" font-size="10.00">cstdlib</text>
</a>
</g>
</g>
<!-- Node2&#45;&gt;Node3 -->
<g id="edge2_Node000002_Node000003" class="edge">
<title>Node2&#45;&gt;Node3</title>
<g id="a_edge2_Node000002_Node000003"><a xlink:title=" ">
<path fill="none" stroke="#63b8ff" d="M853.78,-54.75C858.62,-47.42 865.68,-36.73 871.64,-27.7"/>
<polygon fill="#63b8ff" stroke="#63b8ff" points="874.74,-29.36 877.33,-19.09 868.9,-25.5 874.74,-29.36"/>
</a>
</g>
</g>
<!-- Node4 -->
<g id="Node000004" class="node">
<title>Node4</title>
<g id="a_Node000004"><a xlink:title=" ">
<polygon fill="#e0e0e0" stroke="#999999" points="840,-19 784,-19 784,0 840,0 840,-19"/>
<text text-anchor="middle" x="812" y="-7" font-family="Helvetica,sans-Serif" font-size="10.00">sstream</text>
</a>
</g>
</g>
<!-- Node2&#45;&gt;Node4 -->
<g id="edge3_Node000002_Node000004" class="edge">
<title>Node2&#45;&gt;Node4</title>
<g id="a_edge3_Node000002_Node000004"><a xlink:title=" ">
<path fill="none" stroke="#63b8ff" d="M842.06,-54.75C837.02,-47.34 829.66,-36.5 823.49,-27.41"/>
<polygon fill="#63b8ff" stroke="#63b8ff" points="826.35,-25.39 817.83,-19.09 820.56,-29.33 826.35,-25.39"/>
</a>
</g>
</g>
<!-- Node5 -->
<g id="Node000005" class="node">
<title>Node5</title>
<g id="a_Node000005"><a xlink:title=" ">
<polygon fill="#e0e0e0" stroke="#999999" points="619,-19 575,-19 575,0 619,0 619,-19"/>
<text text-anchor="middle" x="597" y="-7" font-family="Helvetica,sans-Serif" font-size="10.00">string</text>
</a>
</g>
</g>
<!-- Node2&#45;&gt;Node5 -->
<g id="edge4_Node000002_Node000005" class="edge">
<title>Node2&#45;&gt;Node5</title>
<g id="a_edge4_Node000002_Node000005"><a xlink:title=" ">
<path fill="none" stroke="#63b8ff" d="M807.67,-54.98C758.05,-44.51 674.78,-26.92 629.21,-17.3"/>
<polygon fill="#63b8ff" stroke="#63b8ff" points="629.79,-13.85 619.28,-15.2 628.34,-20.69 629.79,-13.85"/>
</a>
</g>
</g>
<!-- Node6 -->
<g id="Node000006" class="node">
<title>Node6</title>
<g id="a_Node000006"><a xlink:title=" ">
<polygon fill="#e0e0e0" stroke="#999999" points="450.5,-19 381.5,-19 381.5,0 450.5,0 450.5,-19"/>
<text text-anchor="middle" x="416" y="-7" font-family="Helvetica,sans-Serif" font-size="10.00">type_traits</text>
</a>
</g>
</g>
<!-- Node2&#45;&gt;Node6 -->
<g id="edge5_Node000002_Node000006" class="edge">
<title>Node2&#45;&gt;Node6</title>
<g id="a_edge5_Node000002_Node000006"><a xlink:title=" ">
<path fill="none" stroke="#63b8ff" d="M803.8,-58.08C721.1,-47.93 543.86,-26.19 460.75,-15.99"/>
<polygon fill="#63b8ff" stroke="#63b8ff" points="460.97,-12.49 450.62,-14.75 460.12,-19.44 460.97,-12.49"/>
</a>
</g>
</g>
<!-- Node8 -->
<g id="Node000008" class="node">
<title>Node8</title>
<g id="a_Node000008"><a xlink:href="expr__iterator_8h.html" target="_top" xlink:title="Forward depth&#45;first search iterators These iterators&#39; copy operations are expensive,...">
<polygon fill="white" stroke="#666666" points="500.5,-624 393.5,-624 393.5,-605 500.5,-605 500.5,-624"/>
<text text-anchor="middle" x="447" y="-612" font-family="Helvetica,sans-Serif" font-size="10.00">util/expr_iterator.h</text>
</a>
</g>
</g>
<!-- Node7&#45;&gt;Node8 -->
<g id="edge7_Node000007_Node000008" class="edge">
<title>Node7&#45;&gt;Node8</title>
<g id="a_edge7_Node000007_Node000008"><a xlink:title=" ">
<path fill="none" stroke="#63b8ff" d="M353.83,-659.98C371.61,-651.5 399.15,-638.35 419.68,-628.54"/>
<polygon fill="#63b8ff" stroke="#63b8ff" points="421.33,-631.64 428.84,-624.17 418.31,-625.32 421.33,-631.64"/>
</a>
</g>
</g>
<!-- Node11 -->
<g id="Node000011" class="node">
<title>Node11</title>
<g id="a_Node000011"><a xlink:title=" ">
<polygon fill="#e0e0e0" stroke="#999999" points="311.5,-349 246.5,-349 246.5,-330 311.5,-330 311.5,-349"/>
<text text-anchor="middle" x="279" y="-337" font-family="Helvetica,sans-Serif" font-size="10.00">functional</text>
</a>
</g>
</g>
<!-- Node7&#45;&gt;Node11 -->
<g id="edge68_Node000007_Node000011" class="edge">
<title>Node7&#45;&gt;Node11</title>
<g id="a_edge68_Node000007_Node000011"><a xlink:title=" ">
<path fill="none" stroke="#63b8ff" d="M334.48,-659.73C326.87,-615.99 293.01,-421.14 282.28,-359.36"/>
<polygon fill="#63b8ff" stroke="#63b8ff" points="285.66,-358.4 280.5,-349.15 278.77,-359.6 285.66,-358.4"/>
</a>
</g>
</g>
<!-- Node12 -->
<g id="Node000012" class="node">
<title>Node12</title>
<g id="a_Node000012"><a xlink:title=" ">
<polygon fill="#e0e0e0" stroke="#999999" points="278,-569 246,-569 246,-550 278,-550 278,-569"/>
<text text-anchor="middle" x="262" y="-557" font-family="Helvetica,sans-Serif" font-size="10.00">set</text>
</a>
</g>
</g>
<!-- Node7&#45;&gt;Node12 -->
<g id="edge70_Node000007_Node000012" class="edge">
<title>Node7&#45;&gt;Node12</title>
<g id="a_edge70_Node000007_Node000012"><a xlink:title=" ">
<path fill="none" stroke="#63b8ff" d="M329.94,-659.66C317.69,-641.77 289.75,-601 273.78,-577.69"/>
<polygon fill="#63b8ff" stroke="#63b8ff" points="276.47,-575.43 267.93,-569.16 270.7,-579.39 276.47,-575.43"/>
</a>
</g>
</g>
<!-- Node7&#45;&gt;Node20 -->
<g id="edge71_Node000007_Node000020" class="edge">
<title>Node7&#45;&gt;Node20</title>
<g id="a_edge71_Node000007_Node000020"><a xlink:title=" ">
<path fill="none" stroke="#63b8ff" d="M306.29,-666.81C248.91,-662.96 125.8,-651.63 95,-624 73.07,-604.33 76,-589.96 76,-560.5 76,-560.5 76,-560.5 76,-173.5 76,-142.19 76,-105.77 76,-84.23"/>
<polygon fill="#63b8ff" stroke="#63b8ff" points="79.5,-84.18 76,-74.18 72.5,-84.18 79.5,-84.18"/>
</a>
</g>
</g>
<!-- Node41 -->
<g id="Node000041" class="node">
<title>Node41</title>
<g id="a_Node000041"><a xlink:href="find__symbols_8h.html" target="_top" xlink:title=" ">
<polygon fill="white" stroke="#666666" points="269.5,-624 160.5,-624 160.5,-605 269.5,-605 269.5,-624"/>
<text text-anchor="middle" x="215" y="-612" font-family="Helvetica,sans-Serif" font-size="10.00">util/find_symbols.h</text>
</a>
</g>
</g>
<!-- Node7&#45;&gt;Node41 -->
<g id="edge39_Node000007_Node000041" class="edge">
<title>Node7&#45;&gt;Node41</title>
<g id="a_edge39_Node000007_Node000041"><a xlink:title=" ">
<path fill="none" stroke="#63b8ff" d="M316.56,-659.98C297.01,-651.42 266.62,-638.11 244.18,-628.28"/>
<polygon fill="#63b8ff" stroke="#63b8ff" points="245.36,-624.98 234.79,-624.17 242.55,-631.39 245.36,-624.98"/>
</a>
</g>
</g>
<!-- Node43 -->
<g id="Node000043" class="node">
<title>Node43</title>
<g id="a_Node000043"><a xlink:href="mathematical__expr_8h.html" target="_top" xlink:title="API to expression classes for &#39;mathematical&#39; expressions.">
<polygon fill="white" stroke="#666666" points="834.5,-624 695.5,-624 695.5,-605 834.5,-605 834.5,-624"/>
<text text-anchor="middle" x="765" y="-612" font-family="Helvetica,sans-Serif" font-size="10.00">util/mathematical_expr.h</text>
</a>
</g>
</g>
<!-- Node7&#45;&gt;Node43 -->
<g id="edge43_Node000007_Node000043" class="edge">
<title>Node7&#45;&gt;Node43</title>
<g id="a_edge43_Node000007_Node000043"><a xlink:title=" ">
<path fill="none" stroke="#63b8ff" d="M365.83,-664.82C431.34,-656.72 589.65,-637.16 686.05,-625.25"/>
<polygon fill="#63b8ff" stroke="#63b8ff" points="686.56,-628.72 696.05,-624.02 685.7,-621.77 686.56,-628.72"/>
</a>
</g>
</g>
<!-- Node49 -->
<g id="Node000049" class="node">
<title>Node49</title>
<g id="a_Node000049"><a xlink:href="std__expr_8h.html" target="_top" xlink:title="API to expression classes.">
<polygon fill="white" stroke="#666666" points="798.5,-569 731.5,-569 731.5,-550 798.5,-550 798.5,-569"/>
<text text-anchor="middle" x="765" y="-557" font-family="Helvetica,sans-Serif" font-size="10.00">std_expr.h</text>
</a>
</g>
</g>
<!-- Node7&#45;&gt;Node49 -->
<g id="edge67_Node000007_Node000049" class="edge">
<title>Node7&#45;&gt;Node49</title>
<g id="a_edge67_Node000007_Node000049"><a xlink:title=" ">
<path fill="none" stroke="#63b8ff" d="M365.83,-660.99C440.22,-642.26 634.23,-593.42 721.44,-571.47"/>
<polygon fill="#63b8ff" stroke="#63b8ff" points="722.44,-574.82 731.28,-568.99 720.73,-568.04 722.44,-574.82"/>
</a>
</g>
</g>
<!-- Node51 -->
<g id="Node000051" class="node">
<title>Node51</title>
<g id="a_Node000051"><a xlink:title=" ">
<polygon fill="#e0e0e0" stroke="#999999" points="142,-624 104,-624 104,-605 142,-605 142,-624"/>
<text text-anchor="middle" x="123" y="-612" font-family="Helvetica,sans-Serif" font-size="10.00">map</text>
</a>
</g>
</g>
<!-- Node7&#45;&gt;Node51 -->
<g id="edge69_Node000007_Node000051" class="edge">
<title>Node7&#45;&gt;Node51</title>
<g id="a_edge69_Node000007_Node000051"><a xlink:title=" ">
<path fill="none" stroke="#63b8ff" d="M306.25,-661.77C269.78,-653.41 206.13,-638.47 152,-624 151.9,-623.97 151.8,-623.95 151.7,-623.92"/>
<polygon fill="#63b8ff" stroke="#63b8ff" points="152.88,-620.62 142.31,-621.3 151,-627.36 152.88,-620.62"/>
</a>
</g>
</g>
<!-- Node8&#45;&gt;Node2 -->
<g id="edge38_Node000008_Node000002" class="edge">
<title>Node8&#45;&gt;Node2</title>
<g id="a_edge38_Node000008_Node000002"><a xlink:title=" ">
<path fill="none" stroke="#63b8ff" d="M478.58,-604.96C542.58,-587.2 684.8,-545.37 724,-514 754.42,-489.66 746.15,-470.01 771,-440 808.7,-394.47 830.34,-394.56 868,-349 907.71,-300.96 943,-292.83 943,-230.5 943,-230.5 943,-230.5 943,-173.5 943,-130.91 900.84,-97.14 872.69,-79.33"/>
<polygon fill="#63b8ff" stroke="#63b8ff" points="874.48,-76.32 864.12,-74.12 870.84,-82.31 874.48,-76.32"/>
</a>
</g>
</g>
<!-- Node8&#45;&gt;Node9 -->
<g id="edge8_Node000008_Node000009" class="edge">
<title>Node8&#45;&gt;Node9</title>
<g id="a_edge8_Node000008_Node000009"><a xlink:title=" ">
<path fill="none" stroke="#63b8ff" d="M486.7,-604.96C528.01,-596.06 594.56,-581.66 652,-569 653.44,-568.68 654.92,-568.36 656.41,-568.03"/>
<polygon fill="#63b8ff" stroke="#63b8ff" points="657.29,-571.42 666.29,-565.83 655.77,-564.58 657.29,-571.42"/>
</a>
</g>
</g>
<!-- Node10 -->
<g id="Node000010" class="node">
<title>Node10</title>
<g id="a_Node000010"><a xlink:title=" ">
<polygon fill="#e0e0e0" stroke="#999999" points="387.5,-569 334.5,-569 334.5,-550 387.5,-550 387.5,-569"/>
<text text-anchor="middle" x="361" y="-557" font-family="Helvetica,sans-Serif" font-size="10.00">iterator</text>
</a>
</g>
</g>
<!-- Node8&#45;&gt;Node10 -->
<g id="edge9_Node000008_Node000010" class="edge">
<title>Node8&#45;&gt;Node10</title>
<g id="a_edge9_Node000008_Node000010"><a xlink:title=" ">
<path fill="none" stroke="#63b8ff" d="M433.18,-604.98C419.85,-596.77 399.42,-584.18 383.69,-574.49"/>
<polygon fill="#63b8ff" stroke="#63b8ff" points="385.42,-571.44 375.07,-569.17 381.75,-577.4 385.42,-571.44"/>
</a>
</g>
</g>
<!-- Node8&#45;&gt;Node11 -->
<g id="edge10_Node000008_Node000011" class="edge">
<title>Node8&#45;&gt;Node11</title>
<g id="a_edge10_Node000008_Node000011"><a xlink:title=" ">
<path fill="none" stroke="#63b8ff" d="M441.6,-604.73C417.8,-566.06 322.04,-410.45 289.72,-357.92"/>
<polygon fill="#63b8ff" stroke="#63b8ff" points="292.52,-355.79 284.3,-349.11 286.56,-359.46 292.52,-355.79"/>
</a>
</g>
</g>
<!-- Node8&#45;&gt;Node12 -->
<g id="edge11_Node000008_Node000012" class="edge">
<title>Node8&#45;&gt;Node12</title>
<g id="a_edge11_Node000008_Node000012"><a xlink:title=" ">
<path fill="none" stroke="#63b8ff" d="M417.28,-604.98C381.55,-594.75 322.16,-577.73 288.12,-567.98"/>
<polygon fill="#63b8ff" stroke="#63b8ff" points="289,-564.59 278.42,-565.2 287.07,-571.32 289,-564.59"/>
</a>
</g>
</g>
<!-- Node13 -->
<g id="Node000013" class="node">
<title>Node13</title>
<g id="a_Node000013"><a xlink:title=" ">
<polygon fill="#e0e0e0" stroke="#999999" points="508,-569 444,-569 444,-550 508,-550 508,-569"/>
<text text-anchor="middle" x="476" y="-557" font-family="Helvetica,sans-Serif" font-size="10.00">algorithm</text>
</a>
</g>
</g>
<!-- Node8&#45;&gt;Node13 -->
<g id="edge12_Node000008_Node000013" class="edge">
<title>Node8&#45;&gt;Node13</title>
<g id="a_edge12_Node000008_Node000013"><a xlink:title=" ">
<path fill="none" stroke="#63b8ff" d="M451.79,-604.75C455.76,-597.49 461.53,-586.95 466.43,-577.98"/>
<polygon fill="#63b8ff" stroke="#63b8ff" points="469.57,-579.54 471.3,-569.09 463.43,-576.18 469.57,-579.54"/>
</a>
</g>
</g>
<!-- Node14 -->
<g id="Node000014" class="node">
<title>Node14</title>
<g id="a_Node000014"><a xlink:href="expr_8h.html" target="_top" xlink:title=" ">
<polygon fill="white" stroke="#666666" points="618.5,-404 571.5,-404 571.5,-385 618.5,-385 618.5,-404"/>
<text text-anchor="middle" x="595" y="-392" font-family="Helvetica,sans-Serif" font-size="10.00">expr.h</text>
</a>
</g>
</g>
<!-- Node8&#45;&gt;Node14 -->
<g id="edge13_Node000008_Node000014" class="edge">
<title>Node8&#45;&gt;Node14</title>
<g id="a_edge13_Node000008_Node000014"><a xlink:title=" ">
<path fill="none" stroke="#63b8ff" d="M467.34,-604.96C482.87,-597.52 503.77,-585.34 517,-569 555.48,-521.45 537.04,-494.41 565,-440 569.89,-430.49 576.43,-420.56 582.15,-412.5"/>
<polygon fill="#63b8ff" stroke="#63b8ff" points="585.06,-414.45 588.14,-404.31 579.41,-410.32 585.06,-414.45"/>
</a>
</g>
</g>
<!-- Node14&#45;&gt;Node11 -->
<g id="edge37_Node000014_Node000011" class="edge">
<title>Node14&#45;&gt;Node11</title>
<g id="a_edge37_Node000014_Node000011"><a xlink:title=" ">
<path fill="none" stroke="#63b8ff" d="M571.25,-389.52C518.14,-380.61 389.16,-358.98 321.71,-347.66"/>
<polygon fill="#63b8ff" stroke="#63b8ff" points="322.27,-344.21 311.83,-346.01 321.11,-351.11 322.27,-344.21"/>
</a>
</g>
</g>
<!-- Node15 -->
<g id="Node000015" class="node">
<title>Node15</title>
<g id="a_Node000015"><a xlink:href="as__const_8h.html" target="_top" xlink:title=" ">
<polygon fill="white" stroke="#666666" points="512,-349 444,-349 444,-330 512,-330 512,-349"/>
<text text-anchor="middle" x="478" y="-337" font-family="Helvetica,sans-Serif" font-size="10.00">as_const.h</text>
</a>
</g>
</g>
<!-- Node14&#45;&gt;Node15 -->
<g id="edge14_Node000014_Node000015" class="edge">
<title>Node14&#45;&gt;Node15</title>
<g id="a_edge14_Node000014_Node000015"><a xlink:title=" ">
<path fill="none" stroke="#63b8ff" d="M576.2,-384.98C557.38,-376.46 528.18,-363.23 506.5,-353.41"/>
<polygon fill="#63b8ff" stroke="#63b8ff" points="507.69,-350.11 497.14,-349.17 504.8,-356.48 507.69,-350.11"/>
</a>
</g>
</g>
<!-- Node16 -->
<g id="Node000016" class="node">
<title>Node16</title>
<g id="a_Node000016"><a xlink:href="deprecate_8h.html" target="_top" xlink:title=" ">
<polygon fill="white" stroke="#666666" points="790,-129 716,-129 716,-110 790,-110 790,-129"/>
<text text-anchor="middle" x="753" y="-117" font-family="Helvetica,sans-Serif" font-size="10.00">deprecate.h</text>
</a>
</g>
</g>
<!-- Node14&#45;&gt;Node16 -->
<g id="edge15_Node000014_Node000016" class="edge">
<title>Node14&#45;&gt;Node16</title>
<g id="a_edge15_Node000014_Node000016"><a xlink:title=" ">
<path fill="none" stroke="#63b8ff" d="M618.61,-387.3C660.76,-376.17 745.03,-353.49 750,-349 769.53,-331.35 767.02,-319.85 772,-294 782.76,-238.11 767.5,-170.82 758.61,-138.96"/>
<polygon fill="#63b8ff" stroke="#63b8ff" points="761.94,-137.86 755.79,-129.24 755.22,-139.82 761.94,-137.86"/>
</a>
</g>
</g>
<!-- Node17 -->
<g id="Node000017" class="node">
<title>Node17</title>
<g id="a_Node000017"><a xlink:href="type_8h.html" target="_top" xlink:title="Defines typet, type_with_subtypet and type_with_subtypest.">
<polygon fill="white" stroke="#666666" points="724.5,-349 677.5,-349 677.5,-330 724.5,-330 724.5,-349"/>
<text text-anchor="middle" x="701" y="-337" font-family="Helvetica,sans-Serif" font-size="10.00">type.h</text>
</a>
</g>
</g>
<!-- Node14&#45;&gt;Node17 -->
<g id="edge16_Node000014_Node000017" class="edge">
<title>Node14&#45;&gt;Node17</title>
<g id="a_edge16_Node000014_Node000017"><a xlink:title=" ">
<path fill="none" stroke="#63b8ff" d="M612.03,-384.98C628.93,-376.54 655.06,-363.47 674.64,-353.68"/>
<polygon fill="#63b8ff" stroke="#63b8ff" points="676.28,-356.77 683.66,-349.17 673.15,-350.51 676.28,-356.77"/>
</a>
</g>
</g>
<!-- Node38 -->
<g id="Node000038" class="node">
<title>Node38</title>
<g id="a_Node000038"><a xlink:href="validation__mode_8h.html" target="_top" xlink:title=" ">
<polygon fill="white" stroke="#666666" points="707.5,-239 600.5,-239 600.5,-220 707.5,-220 707.5,-239"/>
<text text-anchor="middle" x="654" y="-227" font-family="Helvetica,sans-Serif" font-size="10.00">validation_mode.h</text>
</a>
</g>
</g>
<!-- Node14&#45;&gt;Node38 -->
<g id="edge36_Node000014_Node000038" class="edge">
<title>Node14&#45;&gt;Node38</title>
<g id="a_edge36_Node000014_Node000038"><a xlink:title=" ">
<path fill="none" stroke="#63b8ff" d="M571.13,-392.94C519.08,-390.79 402.56,-380.38 435,-330 469.02,-277.17 538.71,-252.07 590.38,-240.35"/>
<polygon fill="#63b8ff" stroke="#63b8ff" points="591.42,-243.71 600.46,-238.18 589.95,-236.87 591.42,-243.71"/>
</a>
</g>
</g>
<!-- Node39 -->
<g id="Node000039" class="node">
<title>Node39</title>
<g id="a_Node000039"><a xlink:href="validate__types_8h.html" target="_top" xlink:title=" ">
<polygon fill="white" stroke="#666666" points="763,-294 665,-294 665,-275 763,-275 763,-294"/>
<text text-anchor="middle" x="714" y="-282" font-family="Helvetica,sans-Serif" font-size="10.00">validate_types.h</text>
</a>
</g>
</g>
<!-- Node14&#45;&gt;Node39 -->
<g id="edge35_Node000014_Node000039" class="edge">
<title>Node14&#45;&gt;Node39</title>
<g id="a_edge35_Node000014_Node000039"><a xlink:title=" ">
<path fill="none" stroke="#63b8ff" d="M618.78,-386.68C657.56,-375.44 730.5,-353.8 734,-349 744.08,-335.19 735.84,-316.15 727.08,-302.53"/>
<polygon fill="#63b8ff" stroke="#63b8ff" points="729.77,-300.26 721.16,-294.09 724.04,-304.29 729.77,-300.26"/>
</a>
</g>
</g>
<!-- Node40 -->
<g id="Node000040" class="node">
<title>Node40</title>
<g id="a_Node000040"><a xlink:href="validate__expressions_8h.html" target="_top" xlink:title=" ">
<polygon fill="white" stroke="#666666" points="659.5,-349 530.5,-349 530.5,-330 659.5,-330 659.5,-349"/>
<text text-anchor="middle" x="595" y="-337" font-family="Helvetica,sans-Serif" font-size="10.00">validate_expressions.h</text>
</a>
</g>
</g>
<!-- Node14&#45;&gt;Node40 -->
<g id="edge34_Node000014_Node000040" class="edge">
<title>Node14&#45;&gt;Node40</title>
<g id="a_edge34_Node000014_Node000040"><a xlink:title=" ">
<path fill="none" stroke="#63b8ff" d="M595,-384.75C595,-377.8 595,-367.85 595,-359.13"/>
<polygon fill="#63b8ff" stroke="#63b8ff" points="598.5,-359.09 595,-349.09 591.5,-359.09 598.5,-359.09"/>
</a>
</g>
</g>
<!-- Node18 -->
<g id="Node000018" class="node">
<title>Node18</title>
<g id="a_Node000018"><a xlink:href="source__location_8h.html" target="_top" xlink:title=" ">
<polygon fill="white" stroke="#666666" points="565,-184 463,-184 463,-165 565,-165 565,-184"/>
<text text-anchor="middle" x="514" y="-172" font-family="Helvetica,sans-Serif" font-size="10.00">source_location.h</text>
</a>
</g>
</g>
<!-- Node17&#45;&gt;Node18 -->
<g id="edge17_Node000017_Node000018" class="edge">
<title>Node17&#45;&gt;Node18</title>
<g id="a_edge17_Node000017_Node000018"><a xlink:title=" ">
<path fill="none" stroke="#63b8ff" d="M677.24,-331.72C623.77,-315.94 496.77,-275.31 473,-239 462.21,-222.51 478.19,-203.51 493.24,-190.63"/>
<polygon fill="#63b8ff" stroke="#63b8ff" points="495.72,-193.13 501.34,-184.15 491.34,-187.67 495.72,-193.13"/>
</a>
</g>
</g>
<!-- Node36 -->
<g id="Node000036" class="node">
<title>Node36</title>
<g id="a_Node000036"><a xlink:href="validate_8h.html" target="_top" xlink:title=" ">
<polygon fill="white" stroke="#666666" points="425.5,-294 360.5,-294 360.5,-275 425.5,-275 425.5,-294"/>
<text text-anchor="middle" x="393" y="-282" font-family="Helvetica,sans-Serif" font-size="10.00">validate.h</text>
</a>
</g>
</g>
<!-- Node17&#45;&gt;Node36 -->
<g id="edge25_Node000017_Node000036" class="edge">
<title>Node17&#45;&gt;Node36</title>
<g id="a_edge25_Node000017_Node000036"><a xlink:title=" ">
<path fill="none" stroke="#63b8ff" d="M677.3,-331.91C674.51,-331.22 671.7,-330.57 669,-330 568.19,-308.75 541.59,-311.17 440,-294 438.54,-293.75 437.06,-293.5 435.57,-293.24"/>
<polygon fill="#63b8ff" stroke="#63b8ff" points="436.05,-289.78 425.6,-291.5 434.84,-296.67 436.05,-289.78"/>
</a>
</g>
</g>
<!-- Node17&#45;&gt;Node38 -->
<g id="edge33_Node000017_Node000038" class="edge">
<title>Node17&#45;&gt;Node38</title>
<g id="a_edge33_Node000017_Node000038"><a xlink:title=" ">
<path fill="none" stroke="#63b8ff" d="M687.63,-329.7C676.91,-321.79 662.59,-309.11 656,-294 649.86,-279.92 649.81,-262.38 651.04,-249.3"/>
<polygon fill="#63b8ff" stroke="#63b8ff" points="654.54,-249.52 652.33,-239.15 647.59,-248.63 654.54,-249.52"/>
</a>
</g>
</g>
<!-- Node17&#45;&gt;Node39 -->
<g id="edge32_Node000017_Node000039" class="edge">
<title>Node17&#45;&gt;Node39</title>
<g id="a_edge32_Node000017_Node000039"><a xlink:title=" ">
<path fill="none" stroke="#63b8ff" d="M703.15,-329.75C704.87,-322.72 707.35,-312.62 709.5,-303.84"/>
<polygon fill="#63b8ff" stroke="#63b8ff" points="712.91,-304.63 711.89,-294.09 706.11,-302.97 712.91,-304.63"/>
</a>
</g>
</g>
<!-- Node18&#45;&gt;Node5 -->
<g id="edge24_Node000018_Node000005" class="edge">
<title>Node18&#45;&gt;Node5</title>
<g id="a_edge24_Node000018_Node000005"><a xlink:title=" ">
<path fill="none" stroke="#63b8ff" d="M519.39,-164.75C524.8,-155.86 533.28,-141.64 540,-129 558.58,-94.04 578.15,-52.06 588.84,-28.62"/>
<polygon fill="#63b8ff" stroke="#63b8ff" points="592.15,-29.8 593.09,-19.24 585.77,-26.91 592.15,-29.8"/>
</a>
</g>
</g>
<!-- Node18&#45;&gt;Node16 -->
<g id="edge18_Node000018_Node000016" class="edge">
<title>Node18&#45;&gt;Node16</title>
<g id="a_edge18_Node000018_Node000016"><a xlink:title=" ">
<path fill="none" stroke="#63b8ff" d="M552.4,-164.98C594.23,-155.71 661.17,-140.86 706.08,-130.9"/>
<polygon fill="#63b8ff" stroke="#63b8ff" points="706.87,-134.31 715.88,-128.73 705.35,-127.48 706.87,-134.31"/>
</a>
</g>
</g>
<!-- Node19 -->
<g id="Node000019" class="node">
<title>Node19</title>
<g id="a_Node000019"><a xlink:href="irep_8h.html" target="_top" xlink:title=" ">
<polygon fill="#fff0f0" stroke="red" points="531,-129 487,-129 487,-110 531,-110 531,-129"/>
<text text-anchor="middle" x="509" y="-117" font-family="Helvetica,sans-Serif" font-size="10.00">irep.h</text>
</a>
</g>
</g>
<!-- Node18&#45;&gt;Node19 -->
<g id="edge19_Node000018_Node000019" class="edge">
<title>Node18&#45;&gt;Node19</title>
<g id="a_edge19_Node000018_Node000019"><a xlink:title=" ">
<path fill="none" stroke="#63b8ff" d="M513.17,-164.75C512.52,-157.8 511.58,-147.85 510.76,-139.13"/>
<polygon fill="#63b8ff" stroke="#63b8ff" points="514.23,-138.72 509.81,-129.09 507.27,-139.37 514.23,-138.72"/>
</a>
</g>
</g>
<!-- Node18&#45;&gt;Node35 -->
<g id="edge23_Node000018_Node000035" class="edge">
<title>Node18&#45;&gt;Node35</title>
<g id="a_edge23_Node000018_Node000035"><a xlink:title=" ">
<path fill="none" stroke="#63b8ff" d="M489.26,-164.98C463.63,-156.16 423.37,-142.31 394.59,-132.41"/>
<polygon fill="#63b8ff" stroke="#63b8ff" points="395.53,-129.03 384.94,-129.08 393.25,-135.65 395.53,-129.03"/>
</a>
</g>
</g>
<!-- Node19&#45;&gt;Node2 -->
<g id="edge22_Node000019_Node000002" class="edge">
<title>Node19&#45;&gt;Node2</title>
<g id="a_edge22_Node000019_Node000002"><a xlink:title=" ">
<path fill="none" stroke="#63b8ff" d="M531.24,-115.02C584,-106.77 717.95,-85.83 793.68,-73.99"/>
<polygon fill="#63b8ff" stroke="#63b8ff" points="794.62,-77.39 803.96,-72.38 793.54,-70.47 794.62,-77.39"/>
</a>
</g>
</g>
<!-- Node19&#45;&gt;Node5 -->
<g id="edge20_Node000019_Node000005" class="edge">
<title>Node19&#45;&gt;Node5</title>
<g id="a_edge20_Node000019_Node000005"><a xlink:title=" ">
<path fill="none" stroke="#63b8ff" d="M512.8,-109.69C518.59,-96.84 530.49,-72.6 545,-55 554.21,-43.83 566.44,-33.2 576.72,-25.14"/>
<polygon fill="#63b8ff" stroke="#63b8ff" points="578.94,-27.85 584.79,-19.02 574.71,-22.28 578.94,-27.85"/>
</a>
</g>
</g>
<!-- Node19&#45;&gt;Node20 -->
<g id="edge21_Node000019_Node000020" class="edge">
<title>Node19&#45;&gt;Node20</title>
<g id="a_edge21_Node000019_Node000020"><a xlink:title=" ">
<path fill="none" stroke="#63b8ff" d="M486.93,-115.8C416.2,-107.14 194.79,-80.04 109.74,-69.63"/>
<polygon fill="#63b8ff" stroke="#63b8ff" points="109.95,-66.13 99.6,-68.39 109.1,-73.08 109.95,-66.13"/>
</a>
</g>
</g>
<!-- Node36&#45;&gt;Node6 -->
<g id="edge26_Node000036_Node000006" class="edge">
<title>Node36&#45;&gt;Node6</title>
<g id="a_edge26_Node000036_Node000006"><a xlink:title=" ">
<path fill="none" stroke="#63b8ff" d="M396.1,-274.95C402.38,-256.86 416,-213.27 416,-175.5 416,-175.5 416,-175.5 416,-118.5 416,-87.19 416,-50.77 416,-29.23"/>
<polygon fill="#63b8ff" stroke="#63b8ff" points="419.5,-29.18 416,-19.18 412.5,-29.18 419.5,-29.18"/>
</a>
</g>
</g>
<!-- Node37 -->
<g id="Node000037" class="node">
<title>Node37</title>
<g id="a_Node000037"><a xlink:href="exception__utils_8h.html" target="_top" xlink:title=" ">
<polygon fill="white" stroke="#666666" points="582,-239 482,-239 482,-220 582,-220 582,-239"/>
<text text-anchor="middle" x="532" y="-227" font-family="Helvetica,sans-Serif" font-size="10.00">exception_utils.h</text>
</a>
</g>
</g>
<!-- Node36&#45;&gt;Node37 -->
<g id="edge27_Node000036_Node000037" class="edge">
<title>Node36&#45;&gt;Node37</title>
<g id="a_edge27_Node000036_Node000037"><a xlink:title=" ">
<path fill="none" stroke="#63b8ff" d="M415.33,-274.98C438.2,-266.27 473.96,-252.63 499.86,-242.75"/>
<polygon fill="#63b8ff" stroke="#63b8ff" points="501.16,-246 509.26,-239.17 498.67,-239.46 501.16,-246"/>
</a>
</g>
</g>
<!-- Node36&#45;&gt;Node38 -->
<g id="edge31_Node000036_Node000038" class="edge">
<title>Node36&#45;&gt;Node38</title>
<g id="a_edge31_Node000036_Node000038"><a xlink:title=" ">
<path fill="none" stroke="#63b8ff" d="M425.53,-276.89C469.82,-267.9 549.59,-251.7 602.17,-241.02"/>
<polygon fill="#63b8ff" stroke="#63b8ff" points="602.88,-244.45 611.98,-239.03 601.49,-237.59 602.88,-244.45"/>
</a>
</g>
</g>
<!-- Node37&#45;&gt;Node2 -->
<g id="edge29_Node000037_Node000002" class="edge">
<title>Node37&#45;&gt;Node2</title>
<g id="a_edge29_Node000037_Node000002"><a xlink:title=" ">
<path fill="none" stroke="#63b8ff" d="M548.75,-219.97C565.03,-211.46 590.26,-197.73 611,-184 655.92,-154.26 659.25,-134.93 707,-110 735.88,-94.92 770.78,-83.86 798.63,-76.53"/>
<polygon fill="#63b8ff" stroke="#63b8ff" points="799.72,-79.86 808.55,-74 797.99,-73.08 799.72,-79.86"/>
</a>
</g>
</g>
<!-- Node37&#45;&gt;Node5 -->
<g id="edge28_Node000037_Node000005" class="edge">
<title>Node37&#45;&gt;Node5</title>
<g id="a_edge28_Node000037_Node000005"><a xlink:title=" ">
<path fill="none" stroke="#63b8ff" d="M543.34,-219.97C553.2,-211.88 566.97,-198.77 574,-184 598.64,-132.21 599.45,-62.48 598.17,-29.41"/>
<polygon fill="#63b8ff" stroke="#63b8ff" points="601.67,-29.14 597.67,-19.33 594.67,-29.49 601.67,-29.14"/>
</a>
</g>
</g>
<!-- Node37&#45;&gt;Node18 -->
<g id="edge30_Node000037_Node000018" class="edge">
<title>Node37&#45;&gt;Node18</title>
<g id="a_edge30_Node000037_Node000018"><a xlink:title=" ">
<path fill="none" stroke="#63b8ff" d="M529.03,-219.75C526.64,-212.72 523.21,-202.62 520.23,-193.84"/>
<polygon fill="#63b8ff" stroke="#63b8ff" points="523.45,-192.43 516.92,-184.09 516.82,-194.68 523.45,-192.43"/>
</a>
</g>
</g>
<!-- Node41&#45;&gt;Node12 -->
<g id="edge41_Node000041_Node000012" class="edge">
<title>Node41&#45;&gt;Node12</title>
<g id="a_edge41_Node000041_Node000012"><a xlink:title=" ">
<path fill="none" stroke="#63b8ff" d="M222.76,-604.75C229.47,-597.18 239.34,-586.05 247.51,-576.84"/>
<polygon fill="#63b8ff" stroke="#63b8ff" points="250.37,-578.89 254.38,-569.09 245.13,-574.25 250.37,-578.89"/>
</a>
</g>
</g>
<!-- Node41&#45;&gt;Node19 -->
<g id="edge40_Node000041_Node000019" class="edge">
<title>Node41&#45;&gt;Node19</title>
<g id="a_edge40_Node000041_Node000019"><a xlink:title=" ">
<path fill="none" stroke="#63b8ff" d="M215.4,-604.82C216.22,-586.49 218,-542.45 218,-505.5 218,-505.5 218,-505.5 218,-393.5 218,-252.62 401.65,-163.29 477.16,-132.51"/>
<polygon fill="#63b8ff" stroke="#63b8ff" points="478.66,-135.68 486.65,-128.72 476.06,-129.18 478.66,-135.68"/>
</a>
</g>
</g>
<!-- Node42 -->
<g id="Node000042" class="node">
<title>Node42</title>
<g id="a_Node000042"><a xlink:title=" ">
<polygon fill="#e0e0e0" stroke="#999999" points="190,-569 104,-569 104,-550 190,-550 190,-569"/>
<text text-anchor="middle" x="147" y="-557" font-family="Helvetica,sans-Serif" font-size="10.00">unordered_set</text>
</a>
</g>
</g>
<!-- Node41&#45;&gt;Node42 -->
<g id="edge42_Node000041_Node000042" class="edge">
<title>Node41&#45;&gt;Node42</title>
<g id="a_edge42_Node000041_Node000042"><a xlink:title=" ">
<path fill="none" stroke="#63b8ff" d="M204.07,-604.98C193.92,-597.07 178.58,-585.11 166.35,-575.58"/>
<polygon fill="#63b8ff" stroke="#63b8ff" points="168.16,-572.56 158.12,-569.17 163.86,-578.08 168.16,-572.56"/>
</a>
</g>
</g>
<!-- Node44 -->
<g id="Node000044" class="node">
<title>Node44</title>
<g id="a_Node000044"><a xlink:href="mathematical__types_8h.html" target="_top" xlink:title="Mathematical types.">
<polygon fill="white" stroke="#666666" points="1093,-514 967,-514 967,-495 1093,-495 1093,-514"/>
<text text-anchor="middle" x="1030" y="-502" font-family="Helvetica,sans-Serif" font-size="10.00">mathematical_types.h</text>
</a>
</g>
</g>
<!-- Node43&#45;&gt;Node44 -->
<g id="edge44_Node000043_Node000044" class="edge">
<title>Node43&#45;&gt;Node44</title>
<g id="a_edge44_Node000043_Node000044"><a xlink:title=" ">
<path fill="none" stroke="#63b8ff" d="M786.24,-604.84C833.07,-585.76 945.32,-540.01 999.6,-517.89"/>
<polygon fill="#63b8ff" stroke="#63b8ff" points="1001.09,-521.06 1009.03,-514.05 998.45,-514.58 1001.09,-521.06"/>
</a>
</g>
</g>
<!-- Node43&#45;&gt;Node49 -->
<g id="edge57_Node000043_Node000049" class="edge">
<title>Node43&#45;&gt;Node49</title>
<g id="a_edge57_Node000043_Node000049"><a xlink:title=" ">
<path fill="none" stroke="#63b8ff" d="M765,-604.75C765,-597.8 765,-587.85 765,-579.13"/>
<polygon fill="#63b8ff" stroke="#63b8ff" points="768.5,-579.09 765,-569.09 761.5,-579.09 768.5,-579.09"/>
</a>
</g>
</g>
<!-- Node44&#45;&gt;Node2 -->
<g id="edge51_Node000044_Node000002" class="edge">
<title>Node44&#45;&gt;Node2</title>
<g id="a_edge51_Node000044_Node000002"><a xlink:title=" ">
<path fill="none" stroke="#63b8ff" d="M1071.55,-495C1119.85,-482.4 1193,-453.72 1193,-395.5 1193,-395.5 1193,-395.5 1193,-173.5 1193,-113.32 999.42,-82.7 902.27,-71.12"/>
<polygon fill="#63b8ff" stroke="#63b8ff" points="902.38,-67.61 892.04,-69.93 901.57,-74.56 902.38,-67.61"/>
</a>
</g>
</g>
<!-- Node44&#45;&gt;Node17 -->
<g id="edge56_Node000044_Node000017" class="edge">
<title>Node44&#45;&gt;Node17</title>
<g id="a_edge56_Node000044_Node000017"><a xlink:title=" ">
<path fill="none" stroke="#63b8ff" d="M1012.77,-494.97C958.82,-468.24 792.84,-386 727.66,-353.71"/>
<polygon fill="#63b8ff" stroke="#63b8ff" points="728.97,-350.45 718.45,-349.15 725.86,-356.72 728.97,-350.45"/>
</a>
</g>
</g>
<!-- Node45 -->
<g id="Node000045" class="node">
<title>Node45</title>
<g id="a_Node000045"><a xlink:href="expr__cast_8h.html" target="_top" xlink:title="Templated functions to cast to specific exprt&#45;derived classes.">
<polygon fill="white" stroke="#666666" points="646.5,-459 573.5,-459 573.5,-440 646.5,-440 646.5,-459"/>
<text text-anchor="middle" x="610" y="-447" font-family="Helvetica,sans-Serif" font-size="10.00">expr_cast.h</text>
</a>
</g>
</g>
<!-- Node44&#45;&gt;Node45 -->
<g id="edge45_Node000044_Node000045" class="edge">
<title>Node44&#45;&gt;Node45</title>
<g id="a_edge45_Node000044_Node000045"><a xlink:title=" ">
<path fill="none" stroke="#63b8ff" d="M966.67,-495.51C881.64,-484.78 732.53,-465.96 656.88,-456.42"/>
<polygon fill="#63b8ff" stroke="#63b8ff" points="657.06,-452.91 646.7,-455.13 656.19,-459.86 657.06,-452.91"/>
</a>
</g>
</g>
<!-- Node47 -->
<g id="Node000047" class="node">
<title>Node47</title>
<g id="a_Node000047"><a xlink:href="mp__arith_8h.html" target="_top" xlink:title=" ">
<polygon fill="white" stroke="#666666" points="1064.5,-459 995.5,-459 995.5,-440 1064.5,-440 1064.5,-459"/>
<text text-anchor="middle" x="1030" y="-447" font-family="Helvetica,sans-Serif" font-size="10.00">mp_arith.h</text>
</a>
</g>
</g>
<!-- Node44&#45;&gt;Node47 -->
<g id="edge52_Node000044_Node000047" class="edge">
<title>Node44&#45;&gt;Node47</title>
<g id="a_edge52_Node000044_Node000047"><a xlink:title=" ">
<path fill="none" stroke="#63b8ff" d="M1030,-494.75C1030,-487.8 1030,-477.85 1030,-469.13"/>
<polygon fill="#63b8ff" stroke="#63b8ff" points="1033.5,-469.09 1030,-459.09 1026.5,-469.09 1033.5,-469.09"/>
</a>
</g>
</g>
<!-- Node45&#45;&gt;Node2 -->
<g id="edge49_Node000045_Node000002" class="edge">
<title>Node45&#45;&gt;Node2</title>
<g id="a_edge49_Node000045_Node000002"><a xlink:title=" ">
<path fill="none" stroke="#63b8ff" d="M644.7,-439.96C706.45,-422.45 829,-376.26 829,-285.5 829,-285.5 829,-285.5 829,-173.5 829,-141.56 837.16,-105.1 842.78,-83.77"/>
<polygon fill="#63b8ff" stroke="#63b8ff" points="846.17,-84.66 845.44,-74.09 839.42,-82.81 846.17,-84.66"/>
</a>
</g>
</g>
<!-- Node45&#45;&gt;Node6 -->
<g id="edge47_Node000045_Node000006" class="edge">
<title>Node45&#45;&gt;Node6</title>
<g id="a_edge47_Node000045_Node000006"><a xlink:title=" ">
<path fill="none" stroke="#63b8ff" d="M578.18,-439.99C521.45,-422.95 403.95,-378.81 352,-294 308.76,-223.4 292.61,-187.01 323,-110 337.4,-73.5 372.22,-42.5 394.93,-25.22"/>
<polygon fill="#63b8ff" stroke="#63b8ff" points="397.28,-27.83 403.25,-19.08 393.13,-22.2 397.28,-27.83"/>
</a>
</g>
</g>
<!-- Node45&#45;&gt;Node11 -->
<g id="edge48_Node000045_Node000011" class="edge">
<title>Node45&#45;&gt;Node11</title>
<g id="a_edge48_Node000045_Node000011"><a xlink:title=" ">
<path fill="none" stroke="#63b8ff" d="M573.19,-441.98C534.68,-434.66 472.74,-421.48 421,-404 379.12,-389.85 332.74,-367.83 304.73,-353.79"/>
<polygon fill="#63b8ff" stroke="#63b8ff" points="306.14,-350.58 295.63,-349.19 302.98,-356.82 306.14,-350.58"/>
</a>
</g>
</g>
<!-- Node45&#45;&gt;Node14 -->
<g id="edge50_Node000045_Node000014" class="edge">
<title>Node45&#45;&gt;Node14</title>
<g id="a_edge50_Node000045_Node000014"><a xlink:title=" ">
<path fill="none" stroke="#63b8ff" d="M607.52,-439.75C605.54,-432.72 602.68,-422.62 600.19,-413.84"/>
<polygon fill="#63b8ff" stroke="#63b8ff" points="603.52,-412.76 597.43,-404.09 596.79,-414.66 603.52,-412.76"/>
</a>
</g>
</g>
<!-- Node46 -->
<g id="Node000046" class="node">
<title>Node46</title>
<g id="a_Node000046"><a xlink:title=" ">
<polygon fill="#e0e0e0" stroke="#999999" points="693.5,-404 636.5,-404 636.5,-385 693.5,-385 693.5,-404"/>
<text text-anchor="middle" x="665" y="-392" font-family="Helvetica,sans-Serif" font-size="10.00">typeinfo</text>
</a>
</g>
</g>
<!-- Node45&#45;&gt;Node46 -->
<g id="edge46_Node000045_Node000046" class="edge">
<title>Node45&#45;&gt;Node46</title>
<g id="a_edge46_Node000045_Node000046"><a xlink:title=" ">
<path fill="none" stroke="#63b8ff" d="M619.08,-439.75C627.09,-432.03 638.96,-420.6 648.62,-411.28"/>
<polygon fill="#63b8ff" stroke="#63b8ff" points="651.31,-413.55 656.09,-404.09 646.46,-408.51 651.31,-413.55"/>
</a>
</g>
</g>
<!-- Node47&#45;&gt;Node5 -->
<g id="edge54_Node000047_Node000005" class="edge">
<title>Node47&#45;&gt;Node5</title>
<g id="a_edge54_Node000047_Node000005"><a xlink:title=" ">
<path fill="none" stroke="#63b8ff" d="M1019.28,-439.84C1004.93,-427.19 982.73,-403.18 996,-385 1081.57,-267.79 1307,-430.62 1307,-285.5 1307,-285.5 1307,-285.5 1307,-118.5 1307,-49 768.43,-18.64 629.42,-11.96"/>
<polygon fill="#63b8ff" stroke="#63b8ff" points="629.18,-8.44 619.03,-11.47 628.85,-15.44 629.18,-8.44"/>
</a>
</g>
</g>
<!-- Node23 -->
<g id="Node000023" class="node">
<title>Node23</title>
<g id="a_Node000023"><a xlink:title=" ">
<polygon fill="#e0e0e0" stroke="#999999" points="1053,-404 1005,-404 1005,-385 1053,-385 1053,-404"/>
<text text-anchor="middle" x="1029" y="-392" font-family="Helvetica,sans-Serif" font-size="10.00">iosfwd</text>
</a>
</g>
</g>
<!-- Node47&#45;&gt;Node23 -->
<g id="edge53_Node000047_Node000023" class="edge">
<title>Node47&#45;&gt;Node23</title>
<g id="a_edge53_Node000047_Node000023"><a xlink:title=" ">
<path fill="none" stroke="#63b8ff" d="M1029.83,-439.75C1029.7,-432.8 1029.52,-422.85 1029.35,-414.13"/>
<polygon fill="#63b8ff" stroke="#63b8ff" points="1032.85,-414.02 1029.16,-404.09 1025.85,-414.15 1032.85,-414.02"/>
</a>
</g>
</g>
<!-- Node48 -->
<g id="Node000048" class="node">
<title>Node48</title>
<g id="a_Node000048"><a xlink:title=" ">
<polygon fill="#e0e0e0" stroke="#999999" points="1165,-404 1071,-404 1071,-385 1165,-385 1165,-404"/>
<text text-anchor="middle" x="1118" y="-392" font-family="Helvetica,sans-Serif" font-size="10.00">big&#45;int/bigint.hh</text>
</a>
</g>
</g>
<!-- Node47&#45;&gt;Node48 -->
<g id="edge55_Node000047_Node000048" class="edge">
<title>Node47&#45;&gt;Node48</title>
<g id="a_edge55_Node000047_Node000048"><a xlink:title=" ">
<path fill="none" stroke="#63b8ff" d="M1044.14,-439.98C1057.79,-431.77 1078.69,-419.18 1094.78,-409.49"/>
<polygon fill="#63b8ff" stroke="#63b8ff" points="1096.84,-412.33 1103.6,-404.17 1093.23,-406.33 1096.84,-412.33"/>
</a>
</g>
</g>
<!-- Node49&#45;&gt;Node2 -->
<g id="edge60_Node000049_Node000002" class="edge">
<title>Node49&#45;&gt;Node2</title>
<g id="a_edge60_Node000049_Node000002"><a xlink:title=" ">
<path fill="none" stroke="#63b8ff" d="M798.51,-557.91C905.36,-555.13 1231,-539.36 1231,-450.5 1231,-450.5 1231,-450.5 1231,-173.5 1231,-106.06 1008.21,-78.67 902.47,-69.47"/>
<polygon fill="#63b8ff" stroke="#63b8ff" points="902.57,-65.96 892.31,-68.61 901.98,-72.94 902.57,-65.96"/>
</a>
</g>
</g>
<!-- Node49&#45;&gt;Node16 -->
<g id="edge58_Node000049_Node000016" class="edge">
<title>Node49&#45;&gt;Node16</title>
<g id="a_edge58_Node000049_Node000016"><a xlink:title=" ">
<path fill="none" stroke="#63b8ff" d="M782.67,-549.88C809.98,-535.45 861.41,-503.53 882,-459 885.54,-451.33 882.38,-448.44 882,-440 880.89,-415.48 883.28,-408.73 877,-385 849.53,-281.17 824.74,-261.21 777,-165 772.56,-156.06 767.33,-146.27 762.88,-138.17"/>
<polygon fill="#63b8ff" stroke="#63b8ff" points="765.87,-136.33 757.96,-129.27 759.74,-139.72 765.87,-136.33"/>
</a>
</g>
</g>
<!-- Node49&#45;&gt;Node45 -->
<g id="edge59_Node000049_Node000045" class="edge">
<title>Node49&#45;&gt;Node45</title>
<g id="a_edge59_Node000049_Node000045"><a xlink:title=" ">
<path fill="none" stroke="#63b8ff" d="M731.29,-550.68C697.06,-542.14 647.14,-527.82 633,-514 620.83,-502.1 615.07,-483.27 612.36,-469.2"/>
<polygon fill="#63b8ff" stroke="#63b8ff" points="615.79,-468.5 610.77,-459.16 608.87,-469.59 615.79,-468.5"/>
</a>
</g>
</g>
<!-- Node50 -->
<g id="Node000050" class="node">
<title>Node50</title>
<g id="a_Node000050"><a xlink:href="std__types_8h.html" target="_top" xlink:title="Pre&#45;defined types.">
<polygon fill="white" stroke="#666666" points="714.5,-514 641.5,-514 641.5,-495 714.5,-495 714.5,-514"/>
<text text-anchor="middle" x="678" y="-502" font-family="Helvetica,sans-Serif" font-size="10.00">std_types.h</text>
</a>
</g>
</g>
<!-- Node49&#45;&gt;Node50 -->
<g id="edge61_Node000049_Node000050" class="edge">
<title>Node49&#45;&gt;Node50</title>
<g id="a_edge61_Node000049_Node000050"><a xlink:title=" ">
<path fill="none" stroke="#63b8ff" d="M751.02,-549.98C737.53,-541.77 716.87,-529.18 700.96,-519.49"/>
<polygon fill="#63b8ff" stroke="#63b8ff" points="702.59,-516.38 692.23,-514.17 698.95,-522.36 702.59,-516.38"/>
</a>
</g>
</g>
<!-- Node50&#45;&gt;Node2 -->
<g id="edge64_Node000050_Node000002" class="edge">
<title>Node50&#45;&gt;Node2</title>
<g id="a_edge64_Node000050_Node000002"><a xlink:title=" ">
<path fill="none" stroke="#63b8ff" d="M685.93,-494.79C697.18,-482.48 718.46,-459.34 737,-440 799.1,-375.22 867,-375.24 867,-285.5 867,-285.5 867,-285.5 867,-173.5 867,-141.56 858.84,-105.1 853.22,-83.77"/>
<polygon fill="#63b8ff" stroke="#63b8ff" points="856.58,-82.81 850.56,-74.09 849.83,-84.66 856.58,-82.81"/>
</a>
</g>
</g>
<!-- Node50&#45;&gt;Node14 -->
<g id="edge62_Node000050_Node000014" class="edge">
<title>Node50&#45;&gt;Node14</title>
<g id="a_edge62_Node000050_Node000014"><a xlink:title=" ">
<path fill="none" stroke="#63b8ff" d="M676.71,-494.93C674.42,-481.96 668.63,-457.07 656,-440 646.74,-427.49 632.95,-417.01 620.82,-409.37"/>
<polygon fill="#63b8ff" stroke="#63b8ff" points="622.35,-406.21 611.97,-404.09 618.77,-412.22 622.35,-406.21"/>
</a>
</g>
</g>
<!-- Node50&#45;&gt;Node36 -->
<g id="edge65_Node000050_Node000036" class="edge">
<title>Node50&#45;&gt;Node36</title>
<g id="a_edge65_Node000050_Node000036"><a xlink:title=" ">
<path fill="none" stroke="#63b8ff" d="M649.56,-494.87C626.06,-487.14 592.25,-474.63 565,-459 496.35,-419.64 475.11,-410.24 425,-349 413.9,-335.43 405.26,-317.37 399.78,-303.98"/>
<polygon fill="#63b8ff" stroke="#63b8ff" points="402.95,-302.48 396.07,-294.42 396.42,-305.01 402.95,-302.48"/>
</a>
</g>
</g>
<!-- Node50&#45;&gt;Node45 -->
<g id="edge63_Node000050_Node000045" class="edge">
<title>Node50&#45;&gt;Node45</title>
<g id="a_edge63_Node000050_Node000045"><a xlink:title=" ">
<path fill="none" stroke="#63b8ff" d="M667.07,-494.98C656.92,-487.07 641.58,-475.11 629.35,-465.58"/>
<polygon fill="#63b8ff" stroke="#63b8ff" points="631.16,-462.56 621.12,-459.17 626.86,-468.08 631.16,-462.56"/>
</a>
</g>
</g>
<!-- Node50&#45;&gt;Node28 -->
<g id="edge66_Node000050_Node000028" class="edge">
<title>Node50&#45;&gt;Node28</title>
<g id="a_edge66_Node000050_Node000028"><a xlink:title=" ">
<path fill="none" stroke="#63b8ff" d="M701.78,-494.98C726.23,-486.23 764.53,-472.51 792.15,-462.62"/>
<polygon fill="#63b8ff" stroke="#63b8ff" points="793.55,-465.84 801.79,-459.17 791.19,-459.25 793.55,-465.84"/>
</a>
</g>
</g>
</g>
</svg>
