<?xml version="1.0" encoding="UTF-8" standalone="no"?>
<!DOCTYPE svg PUBLIC "-//W3C//DTD SVG 1.1//EN"
 "http://www.w3.org/Graphics/SVG/1.1/DTD/svg11.dtd">
<!-- Generated by graphviz version 2.43.0 (0)
 -->
<!-- Title: /home/runner/work/cbmc/cbmc/src/cprover/chc_db.h Pages: 1 -->
<svg width="1407pt" height="698pt"
 viewBox="0.00 0.00 1407.20 698.00" xmlns="http://www.w3.org/2000/svg" xmlns:xlink="http://www.w3.org/1999/xlink">
<g id="graph0" class="graph" transform="scale(1 1) rotate(0) translate(4 694)">
<title>/home/runner/work/cbmc/cbmc/src/cprover/chc_db.h</title>
<!-- Node1 -->
<g id="Node000001" class="node">
<title>Node1</title>
<g id="a_Node000001"><a xlink:title="CHC (Constrained Horn Clause) database.">
<polygon fill="#999999" stroke="#666666" points="522.5,-690 373.5,-690 373.5,-660 522.5,-660 522.5,-690"/>
<text text-anchor="start" x="381.5" y="-678" font-family="Helvetica,sans-Serif" font-size="10.00">/home/runner/work/cbmc</text>
<text text-anchor="middle" x="448" y="-667" font-family="Helvetica,sans-Serif" font-size="10.00">/cbmc/src/cprover/chc_db.h</text>
</a>
</g>
</g>
<!-- Node2 -->
<g id="Node000002" class="node">
<title>Node2</title>
<g id="a_Node000002"><a xlink:href="expr__iterator_8h.html" target="_top" xlink:title="Forward depth&#45;first search iterators These iterators&#39; copy operations are expensive,...">
<polygon fill="white" stroke="#666666" points="440.5,-459 333.5,-459 333.5,-440 440.5,-440 440.5,-459"/>
<text text-anchor="middle" x="387" y="-447" font-family="Helvetica,sans-Serif" font-size="10.00">util/expr_iterator.h</text>
</a>
</g>
</g>
<!-- Node1&#45;&gt;Node2 -->
<g id="edge1_Node000001_Node000002" class="edge">
<title>Node1&#45;&gt;Node2</title>
<g id="a_edge1_Node000001_Node000002"><a xlink:title=" ">
<path fill="none" stroke="#63b8ff" d="M444.09,-659.68C433.45,-620.68 403.95,-512.61 392.06,-469.05"/>
<polygon fill="#63b8ff" stroke="#63b8ff" points="395.39,-467.96 389.38,-459.23 388.64,-469.8 395.39,-467.96"/>
</a>
</g>
</g>
<!-- Node5 -->
<g id="Node000005" class="node">
<title>Node5</title>
<g id="a_Node000005"><a xlink:title=" ">
<polygon fill="#e0e0e0" stroke="#999999" points="498.5,-349 433.5,-349 433.5,-330 498.5,-330 498.5,-349"/>
<text text-anchor="middle" x="466" y="-337" font-family="Helvetica,sans-Serif" font-size="10.00">functional</text>
</a>
</g>
</g>
<!-- Node1&#45;&gt;Node5 -->
<g id="edge68_Node000001_Node000005" class="edge">
<title>Node1&#45;&gt;Node5</title>
<g id="a_edge68_Node000001_Node000005"><a xlink:title=" ">
<path fill="none" stroke="#63b8ff" d="M455,-659.7C464.69,-638.54 481,-597.44 481,-560.5 481,-560.5 481,-560.5 481,-448.5 481,-416.89 474.62,-380.56 470.18,-359.13"/>
<polygon fill="#63b8ff" stroke="#63b8ff" points="473.55,-358.16 468.02,-349.12 466.71,-359.64 473.55,-358.16"/>
</a>
</g>
</g>
<!-- Node6 -->
<g id="Node000006" class="node">
<title>Node6</title>
<g id="a_Node000006"><a xlink:title=" ">
<polygon fill="#e0e0e0" stroke="#999999" points="202,-404 170,-404 170,-385 202,-385 202,-404"/>
<text text-anchor="middle" x="186" y="-392" font-family="Helvetica,sans-Serif" font-size="10.00">set</text>
</a>
</g>
</g>
<!-- Node1&#45;&gt;Node6 -->
<g id="edge70_Node000001_Node000006" class="edge">
<title>Node1&#45;&gt;Node6</title>
<g id="a_edge70_Node000001_Node000006"><a xlink:title=" ">
<path fill="none" stroke="#63b8ff" d="M373.3,-660.09C320.47,-645.44 259,-616.38 259,-560.5 259,-560.5 259,-560.5 259,-503.5 259,-464.97 226.71,-429.92 205.08,-410.77"/>
<polygon fill="#63b8ff" stroke="#63b8ff" points="207.29,-408.05 197.41,-404.23 202.75,-413.38 207.29,-408.05"/>
</a>
</g>
</g>
<!-- Node15 -->
<g id="Node000015" class="node">
<title>Node15</title>
<g id="a_Node000015"><a xlink:title=" ">
<polygon fill="#e0e0e0" stroke="#999999" points="279.5,-74 232.5,-74 232.5,-55 279.5,-55 279.5,-74"/>
<text text-anchor="middle" x="256" y="-62" font-family="Helvetica,sans-Serif" font-size="10.00">vector</text>
</a>
</g>
</g>
<!-- Node1&#45;&gt;Node15 -->
<g id="edge71_Node000001_Node000015" class="edge">
<title>Node1&#45;&gt;Node15</title>
<g id="a_edge71_Node000001_Node000015"><a xlink:title=" ">
<path fill="none" stroke="#63b8ff" d="M373.27,-670.41C245.8,-662.22 0,-636.57 0,-560.5 0,-560.5 0,-560.5 0,-173.5 0,-78.06 152.9,-65.64 222.37,-64.91"/>
<polygon fill="#63b8ff" stroke="#63b8ff" points="222.38,-68.41 232.38,-64.88 222.37,-61.41 222.38,-68.41"/>
</a>
</g>
</g>
<!-- Node40 -->
<g id="Node000040" class="node">
<title>Node40</title>
<g id="a_Node000040"><a xlink:href="find__symbols_8h.html" target="_top" xlink:title=" ">
<polygon fill="white" stroke="#666666" points="218.5,-459 109.5,-459 109.5,-440 218.5,-440 218.5,-459"/>
<text text-anchor="middle" x="164" y="-447" font-family="Helvetica,sans-Serif" font-size="10.00">util/find_symbols.h</text>
</a>
</g>
</g>
<!-- Node1&#45;&gt;Node40 -->
<g id="edge39_Node000001_Node000040" class="edge">
<title>Node1&#45;&gt;Node40</title>
<g id="a_edge39_Node000001_Node000040"><a xlink:title=" ">
<path fill="none" stroke="#63b8ff" d="M373.42,-671.12C331.65,-665.99 280.9,-653.49 245,-624 195.4,-583.25 174.54,-505.26 167.28,-469.39"/>
<polygon fill="#63b8ff" stroke="#63b8ff" points="170.68,-468.51 165.39,-459.33 163.8,-469.81 170.68,-468.51"/>
</a>
</g>
</g>
<!-- Node42 -->
<g id="Node000042" class="node">
<title>Node42</title>
<g id="a_Node000042"><a xlink:href="mathematical__expr_8h.html" target="_top" xlink:title="API to expression classes for &#39;mathematical&#39; expressions.">
<polygon fill="white" stroke="#666666" points="874.5,-624 735.5,-624 735.5,-605 874.5,-605 874.5,-624"/>
<text text-anchor="middle" x="805" y="-612" font-family="Helvetica,sans-Serif" font-size="10.00">util/mathematical_expr.h</text>
</a>
</g>
</g>
<!-- Node1&#45;&gt;Node42 -->
<g id="edge43_Node000001_Node000042" class="edge">
<title>Node1&#45;&gt;Node42</title>
<g id="a_edge43_Node000001_Node000042"><a xlink:title=" ">
<path fill="none" stroke="#63b8ff" d="M522.84,-661.74C588.21,-651.03 681.95,-635.66 743.15,-625.63"/>
<polygon fill="#63b8ff" stroke="#63b8ff" points="743.76,-629.08 753.06,-624.01 742.63,-622.17 743.76,-629.08"/>
</a>
</g>
</g>
<!-- Node48 -->
<g id="Node000048" class="node">
<title>Node48</title>
<g id="a_Node000048"><a xlink:href="std__expr_8h.html" target="_top" xlink:title="API to expression classes.">
<polygon fill="white" stroke="#666666" points="857.5,-569 790.5,-569 790.5,-550 857.5,-550 857.5,-569"/>
<text text-anchor="middle" x="824" y="-557" font-family="Helvetica,sans-Serif" font-size="10.00">std_expr.h</text>
</a>
</g>
</g>
<!-- Node1&#45;&gt;Node48 -->
<g id="edge67_Node000001_Node000048" class="edge">
<title>Node1&#45;&gt;Node48</title>
<g id="a_edge67_Node000001_Node000048"><a xlink:title=" ">
<path fill="none" stroke="#63b8ff" d="M494.48,-659.97C569.58,-637.3 716.18,-593.05 785.68,-572.07"/>
<polygon fill="#63b8ff" stroke="#63b8ff" points="786.8,-575.39 795.36,-569.14 784.78,-568.68 786.8,-575.39"/>
</a>
</g>
</g>
<!-- Node50 -->
<g id="Node000050" class="node">
<title>Node50</title>
<g id="a_Node000050"><a xlink:title=" ">
<polygon fill="#e0e0e0" stroke="#999999" points="931,-624 893,-624 893,-605 931,-605 931,-624"/>
<text text-anchor="middle" x="912" y="-612" font-family="Helvetica,sans-Serif" font-size="10.00">map</text>
</a>
</g>
</g>
<!-- Node1&#45;&gt;Node50 -->
<g id="edge69_Node000001_Node000050" class="edge">
<title>Node1&#45;&gt;Node50</title>
<g id="a_edge69_Node000001_Node000050"><a xlink:title=" ">
<path fill="none" stroke="#63b8ff" d="M522.71,-669.55C607.93,-663.55 751.45,-650.64 882.99,-623.85"/>
<polygon fill="#63b8ff" stroke="#63b8ff" points="883.75,-627.27 892.84,-621.82 882.34,-620.41 883.75,-627.27"/>
</a>
</g>
</g>
<!-- Node3 -->
<g id="Node000003" class="node">
<title>Node3</title>
<g id="a_Node000003"><a xlink:title=" ">
<polygon fill="#e0e0e0" stroke="#999999" points="305.5,-404 258.5,-404 258.5,-385 305.5,-385 305.5,-404"/>
<text text-anchor="middle" x="282" y="-392" font-family="Helvetica,sans-Serif" font-size="10.00">deque</text>
</a>
</g>
</g>
<!-- Node2&#45;&gt;Node3 -->
<g id="edge2_Node000002_Node000003" class="edge">
<title>Node2&#45;&gt;Node3</title>
<g id="a_edge2_Node000002_Node000003"><a xlink:title=" ">
<path fill="none" stroke="#63b8ff" d="M370.13,-439.98C353.39,-431.54 327.5,-418.47 308.11,-408.68"/>
<polygon fill="#63b8ff" stroke="#63b8ff" points="309.68,-405.55 299.18,-404.17 306.53,-411.8 309.68,-405.55"/>
</a>
</g>
</g>
<!-- Node4 -->
<g id="Node000004" class="node">
<title>Node4</title>
<g id="a_Node000004"><a xlink:title=" ">
<polygon fill="#e0e0e0" stroke="#999999" points="376.5,-404 323.5,-404 323.5,-385 376.5,-385 376.5,-404"/>
<text text-anchor="middle" x="350" y="-392" font-family="Helvetica,sans-Serif" font-size="10.00">iterator</text>
</a>
</g>
</g>
<!-- Node2&#45;&gt;Node4 -->
<g id="edge3_Node000002_Node000004" class="edge">
<title>Node2&#45;&gt;Node4</title>
<g id="a_edge3_Node000002_Node000004"><a xlink:title=" ">
<path fill="none" stroke="#63b8ff" d="M380.89,-439.75C375.72,-432.34 368.15,-421.5 361.81,-412.41"/>
<polygon fill="#63b8ff" stroke="#63b8ff" points="364.59,-410.29 356,-404.09 358.85,-414.29 364.59,-410.29"/>
</a>
</g>
</g>
<!-- Node2&#45;&gt;Node5 -->
<g id="edge4_Node000002_Node000005" class="edge">
<title>Node2&#45;&gt;Node5</title>
<g id="a_edge4_Node000002_Node000005"><a xlink:title=" ">
<path fill="none" stroke="#63b8ff" d="M393.46,-439.66C406.61,-421.69 436.64,-380.64 453.65,-357.38"/>
<polygon fill="#63b8ff" stroke="#63b8ff" points="456.59,-359.3 459.67,-349.16 450.94,-355.16 456.59,-359.3"/>
</a>
</g>
</g>
<!-- Node2&#45;&gt;Node6 -->
<g id="edge5_Node000002_Node000006" class="edge">
<title>Node2&#45;&gt;Node6</title>
<g id="a_edge5_Node000002_Node000006"><a xlink:title=" ">
<path fill="none" stroke="#63b8ff" d="M353.2,-439.93C318.66,-431.12 263.51,-416.91 216,-404 214.74,-403.66 213.44,-403.3 212.14,-402.94"/>
<polygon fill="#63b8ff" stroke="#63b8ff" points="212.75,-399.48 202.17,-400.15 210.86,-406.22 212.75,-399.48"/>
</a>
</g>
</g>
<!-- Node7 -->
<g id="Node000007" class="node">
<title>Node7</title>
<g id="a_Node000007"><a xlink:title=" ">
<polygon fill="#e0e0e0" stroke="#999999" points="333,-19 269,-19 269,0 333,0 333,-19"/>
<text text-anchor="middle" x="301" y="-7" font-family="Helvetica,sans-Serif" font-size="10.00">algorithm</text>
</a>
</g>
</g>
<!-- Node2&#45;&gt;Node7 -->
<g id="edge6_Node000002_Node000007" class="edge">
<title>Node2&#45;&gt;Node7</title>
<g id="a_edge6_Node000002_Node000007"><a xlink:title=" ">
<path fill="none" stroke="#63b8ff" d="M333.36,-445.1C304.07,-440.26 269.82,-429.14 250,-404 153.69,-281.86 146.26,-189.72 224,-55 232.42,-40.41 247.65,-30.17 262.35,-23.23"/>
<polygon fill="#63b8ff" stroke="#63b8ff" points="264.07,-26.3 271.86,-19.13 261.29,-19.87 264.07,-26.3"/>
</a>
</g>
</g>
<!-- Node8 -->
<g id="Node000008" class="node">
<title>Node8</title>
<g id="a_Node000008"><a xlink:href="expr_8h.html" target="_top" xlink:title=" ">
<polygon fill="white" stroke="#666666" points="728.5,-404 681.5,-404 681.5,-385 728.5,-385 728.5,-404"/>
<text text-anchor="middle" x="705" y="-392" font-family="Helvetica,sans-Serif" font-size="10.00">expr.h</text>
</a>
</g>
</g>
<!-- Node2&#45;&gt;Node8 -->
<g id="edge7_Node000002_Node000008" class="edge">
<title>Node2&#45;&gt;Node8</title>
<g id="a_edge7_Node000002_Node000008"><a xlink:title=" ">
<path fill="none" stroke="#63b8ff" d="M438.09,-439.98C503.57,-429.07 615.28,-410.45 671.13,-401.15"/>
<polygon fill="#63b8ff" stroke="#63b8ff" points="671.91,-404.56 681.2,-399.47 670.76,-397.66 671.91,-404.56"/>
</a>
</g>
</g>
<!-- Node16 -->
<g id="Node000016" class="node">
<title>Node16</title>
<g id="a_Node000016"><a xlink:href="src_2util_2invariant_8h.html" target="_top" xlink:title=" ">
<polygon fill="#fff0f0" stroke="red" points="1041.5,-74 972.5,-74 972.5,-55 1041.5,-55 1041.5,-74"/>
<text text-anchor="middle" x="1007" y="-62" font-family="Helvetica,sans-Serif" font-size="10.00">invariant.h</text>
</a>
</g>
</g>
<!-- Node2&#45;&gt;Node16 -->
<g id="edge38_Node000002_Node000016" class="edge">
<title>Node2&#45;&gt;Node16</title>
<g id="a_edge38_Node000002_Node000016"><a xlink:title=" ">
<path fill="none" stroke="#63b8ff" d="M388.66,-439.74C392.75,-419.49 404.47,-368.26 425,-330 469.67,-246.76 485,-223.72 559,-165 601.51,-131.27 616.14,-125.98 668,-110 770.04,-78.56 896.05,-69.33 961.97,-66.62"/>
<polygon fill="#63b8ff" stroke="#63b8ff" points="962.16,-70.12 972.02,-66.24 961.89,-63.12 962.16,-70.12"/>
</a>
</g>
</g>
<!-- Node8&#45;&gt;Node5 -->
<g id="edge37_Node000008_Node000005" class="edge">
<title>Node8&#45;&gt;Node5</title>
<g id="a_edge37_Node000008_Node000005"><a xlink:title=" ">
<path fill="none" stroke="#63b8ff" d="M681.21,-388.22C641,-379.31 559.08,-361.14 508.71,-349.97"/>
<polygon fill="#63b8ff" stroke="#63b8ff" points="509.3,-346.52 498.78,-347.77 507.78,-353.35 509.3,-346.52"/>
</a>
</g>
</g>
<!-- Node9 -->
<g id="Node000009" class="node">
<title>Node9</title>
<g id="a_Node000009"><a xlink:href="as__const_8h.html" target="_top" xlink:title=" ">
<polygon fill="white" stroke="#666666" points="455,-19 387,-19 387,0 455,0 455,-19"/>
<text text-anchor="middle" x="421" y="-7" font-family="Helvetica,sans-Serif" font-size="10.00">as_const.h</text>
</a>
</g>
</g>
<!-- Node8&#45;&gt;Node9 -->
<g id="edge8_Node000008_Node000009" class="edge">
<title>Node8&#45;&gt;Node9</title>
<g id="a_edge8_Node000008_Node000009"><a xlink:title=" ">
<path fill="none" stroke="#63b8ff" d="M690.3,-384.83C677.74,-376.83 659.87,-363.95 648,-349 558.94,-236.82 616.09,-157.46 516,-55 501.44,-40.09 480.91,-29.62 462.66,-22.6"/>
<polygon fill="#63b8ff" stroke="#63b8ff" points="463.69,-19.25 453.09,-19.14 461.31,-25.83 463.69,-19.25"/>
</a>
</g>
</g>
<!-- Node10 -->
<g id="Node000010" class="node">
<title>Node10</title>
<g id="a_Node000010"><a xlink:href="deprecate_8h.html" target="_top" xlink:title=" ">
<polygon fill="white" stroke="#666666" points="751,-129 677,-129 677,-110 751,-110 751,-129"/>
<text text-anchor="middle" x="714" y="-117" font-family="Helvetica,sans-Serif" font-size="10.00">deprecate.h</text>
</a>
</g>
</g>
<!-- Node8&#45;&gt;Node10 -->
<g id="edge9_Node000008_Node000010" class="edge">
<title>Node8&#45;&gt;Node10</title>
<g id="a_edge9_Node000008_Node000010"><a xlink:title=" ">
<path fill="none" stroke="#63b8ff" d="M689.27,-384.88C677.12,-377.23 661.2,-364.83 654,-349 650.51,-341.31 653,-338.38 654,-330 662.95,-255.08 669.54,-236.38 694,-165 697.09,-155.99 701.33,-146.3 705.1,-138.27"/>
<polygon fill="#63b8ff" stroke="#63b8ff" points="708.3,-139.7 709.53,-129.17 702.01,-136.64 708.3,-139.7"/>
</a>
</g>
</g>
<!-- Node11 -->
<g id="Node000011" class="node">
<title>Node11</title>
<g id="a_Node000011"><a xlink:href="type_8h.html" target="_top" xlink:title="Defines typet, type_with_subtypet and type_with_subtypest.">
<polygon fill="white" stroke="#666666" points="940.5,-349 893.5,-349 893.5,-330 940.5,-330 940.5,-349"/>
<text text-anchor="middle" x="917" y="-337" font-family="Helvetica,sans-Serif" font-size="10.00">type.h</text>
</a>
</g>
</g>
<!-- Node8&#45;&gt;Node11 -->
<g id="edge10_Node000008_Node000011" class="edge">
<title>Node8&#45;&gt;Node11</title>
<g id="a_edge10_Node000008_Node000011"><a xlink:title=" ">
<path fill="none" stroke="#63b8ff" d="M728.91,-387.52C766.7,-378.07 840.37,-359.66 883.45,-348.89"/>
<polygon fill="#63b8ff" stroke="#63b8ff" points="884.33,-352.28 893.18,-346.45 882.63,-345.48 884.33,-352.28"/>
</a>
</g>
</g>
<!-- Node37 -->
<g id="Node000037" class="node">
<title>Node37</title>
<g id="a_Node000037"><a xlink:href="validation__mode_8h.html" target="_top" xlink:title=" ">
<polygon fill="white" stroke="#666666" points="822.5,-239 715.5,-239 715.5,-220 822.5,-220 822.5,-239"/>
<text text-anchor="middle" x="769" y="-227" font-family="Helvetica,sans-Serif" font-size="10.00">validation_mode.h</text>
</a>
</g>
</g>
<!-- Node8&#45;&gt;Node37 -->
<g id="edge36_Node000008_Node000037" class="edge">
<title>Node8&#45;&gt;Node37</title>
<g id="a_edge36_Node000008_Node000037"><a xlink:title=" ">
<path fill="none" stroke="#63b8ff" d="M692.22,-385C681.61,-377.1 667.28,-364.27 661,-349 657.79,-341.19 658.54,-338.08 661,-330 669.6,-301.82 676.83,-295.49 698,-275 710.82,-262.59 727.66,-251.85 741.72,-244.03"/>
<polygon fill="#63b8ff" stroke="#63b8ff" points="743.77,-246.91 750.93,-239.11 740.46,-240.74 743.77,-246.91"/>
</a>
</g>
</g>
<!-- Node38 -->
<g id="Node000038" class="node">
<title>Node38</title>
<g id="a_Node000038"><a xlink:href="validate__types_8h.html" target="_top" xlink:title=" ">
<polygon fill="white" stroke="#666666" points="805,-294 707,-294 707,-275 805,-275 805,-294"/>
<text text-anchor="middle" x="756" y="-282" font-family="Helvetica,sans-Serif" font-size="10.00">validate_types.h</text>
</a>
</g>
</g>
<!-- Node8&#45;&gt;Node38 -->
<g id="edge35_Node000008_Node000038" class="edge">
<title>Node8&#45;&gt;Node38</title>
<g id="a_edge35_Node000008_Node000038"><a xlink:title=" ">
<path fill="none" stroke="#63b8ff" d="M728.55,-390.73C753.12,-386.45 790.45,-375.7 808,-349 819.89,-330.91 799.35,-311.92 780.69,-299.48"/>
<polygon fill="#63b8ff" stroke="#63b8ff" points="782.43,-296.44 772.1,-294.09 778.71,-302.37 782.43,-296.44"/>
</a>
</g>
</g>
<!-- Node39 -->
<g id="Node000039" class="node">
<title>Node39</title>
<g id="a_Node000039"><a xlink:href="validate__expressions_8h.html" target="_top" xlink:title=" ">
<polygon fill="white" stroke="#666666" points="798.5,-349 669.5,-349 669.5,-330 798.5,-330 798.5,-349"/>
<text text-anchor="middle" x="734" y="-337" font-family="Helvetica,sans-Serif" font-size="10.00">validate_expressions.h</text>
</a>
</g>
</g>
<!-- Node8&#45;&gt;Node39 -->
<g id="edge34_Node000008_Node000039" class="edge">
<title>Node8&#45;&gt;Node39</title>
<g id="a_edge34_Node000008_Node000039"><a xlink:title=" ">
<path fill="none" stroke="#63b8ff" d="M709.79,-384.75C713.76,-377.49 719.53,-366.95 724.43,-357.98"/>
<polygon fill="#63b8ff" stroke="#63b8ff" points="727.57,-359.54 729.3,-349.09 721.43,-356.18 727.57,-359.54"/>
</a>
</g>
</g>
<!-- Node12 -->
<g id="Node000012" class="node">
<title>Node12</title>
<g id="a_Node000012"><a xlink:href="source__location_8h.html" target="_top" xlink:title=" ">
<polygon fill="white" stroke="#666666" points="805,-184 703,-184 703,-165 805,-165 805,-184"/>
<text text-anchor="middle" x="754" y="-172" font-family="Helvetica,sans-Serif" font-size="10.00">source_location.h</text>
</a>
</g>
</g>
<!-- Node11&#45;&gt;Node12 -->
<g id="edge11_Node000011_Node000012" class="edge">
<title>Node11&#45;&gt;Node12</title>
<g id="a_edge11_Node000011_Node000012"><a xlink:title=" ">
<path fill="none" stroke="#63b8ff" d="M903.43,-329.89C877.62,-313.56 823.22,-279.33 814,-275 768.57,-253.7 736.28,-279.75 707,-239 694.76,-221.96 713.93,-202.61 731.34,-189.8"/>
<polygon fill="#63b8ff" stroke="#63b8ff" points="733.38,-192.64 739.6,-184.07 729.39,-186.89 733.38,-192.64"/>
</a>
</g>
</g>
<!-- Node35 -->
<g id="Node000035" class="node">
<title>Node35</title>
<g id="a_Node000035"><a xlink:href="validate_8h.html" target="_top" xlink:title=" ">
<polygon fill="white" stroke="#666666" points="964.5,-294 899.5,-294 899.5,-275 964.5,-275 964.5,-294"/>
<text text-anchor="middle" x="932" y="-282" font-family="Helvetica,sans-Serif" font-size="10.00">validate.h</text>
</a>
</g>
</g>
<!-- Node11&#45;&gt;Node35 -->
<g id="edge25_Node000011_Node000035" class="edge">
<title>Node11&#45;&gt;Node35</title>
<g id="a_edge25_Node000011_Node000035"><a xlink:title=" ">
<path fill="none" stroke="#63b8ff" d="M919.48,-329.75C921.46,-322.72 924.32,-312.62 926.81,-303.84"/>
<polygon fill="#63b8ff" stroke="#63b8ff" points="930.21,-304.66 929.57,-294.09 923.48,-302.76 930.21,-304.66"/>
</a>
</g>
</g>
<!-- Node11&#45;&gt;Node37 -->
<g id="edge33_Node000011_Node000037" class="edge">
<title>Node11&#45;&gt;Node37</title>
<g id="a_edge33_Node000011_Node000037"><a xlink:title=" ">
<path fill="none" stroke="#63b8ff" d="M908.48,-329.62C895.8,-316.69 870.91,-292.34 847,-275 830.7,-263.17 810.98,-251.95 795.46,-243.73"/>
<polygon fill="#63b8ff" stroke="#63b8ff" points="796.88,-240.53 786.4,-239.03 793.66,-246.74 796.88,-240.53"/>
</a>
</g>
</g>
<!-- Node11&#45;&gt;Node38 -->
<g id="edge32_Node000011_Node000038" class="edge">
<title>Node11&#45;&gt;Node38</title>
<g id="a_edge32_Node000011_Node000038"><a xlink:title=" ">
<path fill="none" stroke="#63b8ff" d="M893.24,-330.68C866.41,-321.85 822.45,-307.38 791.53,-297.2"/>
<polygon fill="#63b8ff" stroke="#63b8ff" points="792.58,-293.86 781.99,-294.06 790.39,-300.51 792.58,-293.86"/>
</a>
</g>
</g>
<!-- Node12&#45;&gt;Node10 -->
<g id="edge12_Node000012_Node000010" class="edge">
<title>Node12&#45;&gt;Node10</title>
<g id="a_edge12_Node000012_Node000010"><a xlink:title=" ">
<path fill="none" stroke="#63b8ff" d="M747.39,-164.75C741.74,-157.26 733.46,-146.28 726.55,-137.13"/>
<polygon fill="#63b8ff" stroke="#63b8ff" points="729.3,-134.96 720.48,-129.09 723.71,-139.18 729.3,-134.96"/>
</a>
</g>
</g>
<!-- Node13 -->
<g id="Node000013" class="node">
<title>Node13</title>
<g id="a_Node000013"><a xlink:href="irep_8h.html" target="_top" xlink:title=" ">
<polygon fill="white" stroke="#666666" points="497,-129 453,-129 453,-110 497,-110 497,-129"/>
<text text-anchor="middle" x="475" y="-117" font-family="Helvetica,sans-Serif" font-size="10.00">irep.h</text>
</a>
</g>
</g>
<!-- Node12&#45;&gt;Node13 -->
<g id="edge13_Node000012_Node000013" class="edge">
<title>Node12&#45;&gt;Node13</title>
<g id="a_edge13_Node000012_Node000013"><a xlink:title=" ">
<path fill="none" stroke="#63b8ff" d="M709.17,-164.98C652.66,-154.25 556.89,-136.06 507.14,-126.61"/>
<polygon fill="#63b8ff" stroke="#63b8ff" points="507.74,-123.16 497.26,-124.73 506.43,-130.03 507.74,-123.16"/>
</a>
</g>
</g>
<!-- Node14 -->
<g id="Node000014" class="node">
<title>Node14</title>
<g id="a_Node000014"><a xlink:title=" ">
<polygon fill="#e0e0e0" stroke="#999999" points="801,-19 757,-19 757,0 801,0 801,-19"/>
<text text-anchor="middle" x="779" y="-7" font-family="Helvetica,sans-Serif" font-size="10.00">string</text>
</a>
</g>
</g>
<!-- Node12&#45;&gt;Node14 -->
<g id="edge24_Node000012_Node000014" class="edge">
<title>Node12&#45;&gt;Node14</title>
<g id="a_edge24_Node000012_Node000014"><a xlink:title=" ">
<path fill="none" stroke="#63b8ff" d="M755.34,-164.74C759.26,-139.2 770.73,-64.43 776.13,-29.23"/>
<polygon fill="#63b8ff" stroke="#63b8ff" points="779.59,-29.72 777.65,-19.31 772.67,-28.66 779.59,-29.72"/>
</a>
</g>
</g>
<!-- Node34 -->
<g id="Node000034" class="node">
<title>Node34</title>
<g id="a_Node000034"><a xlink:title=" ">
<polygon fill="#e0e0e0" stroke="#999999" points="863,-129 807,-129 807,-110 863,-110 863,-129"/>
<text text-anchor="middle" x="835" y="-117" font-family="Helvetica,sans-Serif" font-size="10.00">optional</text>
</a>
</g>
</g>
<!-- Node12&#45;&gt;Node34 -->
<g id="edge23_Node000012_Node000034" class="edge">
<title>Node12&#45;&gt;Node34</title>
<g id="a_edge23_Node000012_Node000034"><a xlink:title=" ">
<path fill="none" stroke="#63b8ff" d="M767.01,-164.98C779.46,-156.84 798.46,-144.41 813.21,-134.76"/>
<polygon fill="#63b8ff" stroke="#63b8ff" points="815.3,-137.57 821.75,-129.17 811.46,-131.72 815.3,-137.57"/>
</a>
</g>
</g>
<!-- Node13&#45;&gt;Node14 -->
<g id="edge14_Node000013_Node000014" class="edge">
<title>Node13&#45;&gt;Node14</title>
<g id="a_edge14_Node000013_Node000014"><a xlink:title=" ">
<path fill="none" stroke="#63b8ff" d="M488.76,-109.93C510.84,-96.51 555.88,-70.47 597,-55 647.85,-35.87 709.81,-22.76 746.75,-15.96"/>
<polygon fill="#63b8ff" stroke="#63b8ff" points="747.7,-19.34 756.92,-14.13 746.46,-12.45 747.7,-19.34"/>
</a>
</g>
</g>
<!-- Node13&#45;&gt;Node15 -->
<g id="edge15_Node000013_Node000015" class="edge">
<title>Node13&#45;&gt;Node15</title>
<g id="a_edge15_Node000013_Node000015"><a xlink:title=" ">
<path fill="none" stroke="#63b8ff" d="M452.92,-113.35C419.76,-105.58 354.88,-90.28 289.8,-74.16"/>
<polygon fill="#63b8ff" stroke="#63b8ff" points="290.33,-70.69 279.78,-71.68 288.64,-77.48 290.33,-70.69"/>
</a>
</g>
</g>
<!-- Node13&#45;&gt;Node16 -->
<g id="edge16_Node000013_Node000016" class="edge">
<title>Node13&#45;&gt;Node16</title>
<g id="a_edge16_Node000013_Node000016"><a xlink:title=" ">
<path fill="none" stroke="#63b8ff" d="M497.18,-116.29C577.38,-108.3 853.3,-80.81 962.25,-69.96"/>
<polygon fill="#63b8ff" stroke="#63b8ff" points="962.65,-73.44 972.26,-68.96 961.96,-66.47 962.65,-73.44"/>
</a>
</g>
</g>
<!-- Node20 -->
<g id="Node000020" class="node">
<title>Node20</title>
<g id="a_Node000020"><a xlink:href="irep__ids_8h.html" target="_top" xlink:title="util">
<polygon fill="#fff0f0" stroke="red" points="507,-74 443,-74 443,-55 507,-55 507,-74"/>
<text text-anchor="middle" x="475" y="-62" font-family="Helvetica,sans-Serif" font-size="10.00">irep_ids.h</text>
</a>
</g>
</g>
<!-- Node13&#45;&gt;Node20 -->
<g id="edge19_Node000013_Node000020" class="edge">
<title>Node13&#45;&gt;Node20</title>
<g id="a_edge19_Node000013_Node000020"><a xlink:title=" ">
<path fill="none" stroke="#63b8ff" d="M475,-109.75C475,-102.8 475,-92.85 475,-84.13"/>
<polygon fill="#63b8ff" stroke="#63b8ff" points="478.5,-84.09 475,-74.09 471.5,-84.09 478.5,-84.09"/>
</a>
</g>
</g>
<!-- Node31 -->
<g id="Node000031" class="node">
<title>Node31</title>
<g id="a_Node000031"><a xlink:href="forward__list__as__map_8h.html" target="_top" xlink:title=" ">
<polygon fill="#fff0f0" stroke="red" points="424.5,-74 297.5,-74 297.5,-55 424.5,-55 424.5,-74"/>
<text text-anchor="middle" x="361" y="-62" font-family="Helvetica,sans-Serif" font-size="10.00">forward_list_as_map.h</text>
</a>
</g>
</g>
<!-- Node13&#45;&gt;Node31 -->
<g id="edge20_Node000013_Node000031" class="edge">
<title>Node13&#45;&gt;Node31</title>
<g id="a_edge20_Node000013_Node000031"><a xlink:title=" ">
<path fill="none" stroke="#63b8ff" d="M456.68,-109.98C438.34,-101.46 409.89,-88.23 388.77,-78.41"/>
<polygon fill="#63b8ff" stroke="#63b8ff" points="390.19,-75.21 379.65,-74.17 387.24,-81.56 390.19,-75.21"/>
</a>
</g>
</g>
<!-- Node16&#45;&gt;Node14 -->
<g id="edge17_Node000016_Node000014" class="edge">
<title>Node16&#45;&gt;Node14</title>
<g id="a_edge17_Node000016_Node000014"><a xlink:title=" ">
<path fill="none" stroke="#63b8ff" d="M972.37,-55.45C928.52,-45.26 853.58,-27.84 811.01,-17.94"/>
<polygon fill="#63b8ff" stroke="#63b8ff" points="811.71,-14.51 801.18,-15.66 810.13,-21.33 811.71,-14.51"/>
</a>
</g>
</g>
<!-- Node19 -->
<g id="Node000019" class="node">
<title>Node19</title>
<g id="a_Node000019"><a xlink:title=" ">
<polygon fill="#e0e0e0" stroke="#999999" points="1155.5,-19 1086.5,-19 1086.5,0 1155.5,0 1155.5,-19"/>
<text text-anchor="middle" x="1121" y="-7" font-family="Helvetica,sans-Serif" font-size="10.00">type_traits</text>
</a>
</g>
</g>
<!-- Node16&#45;&gt;Node19 -->
<g id="edge18_Node000016_Node000019" class="edge">
<title>Node16&#45;&gt;Node19</title>
<g id="a_edge18_Node000016_Node000019"><a xlink:title=" ">
<path fill="none" stroke="#63b8ff" d="M1025.32,-54.98C1043.66,-46.46 1072.11,-33.23 1093.23,-23.41"/>
<polygon fill="#63b8ff" stroke="#63b8ff" points="1094.76,-26.56 1102.35,-19.17 1091.81,-20.21 1094.76,-26.56"/>
</a>
</g>
</g>
<!-- Node31&#45;&gt;Node7 -->
<g id="edge21_Node000031_Node000007" class="edge">
<title>Node31&#45;&gt;Node7</title>
<g id="a_edge21_Node000031_Node000007"><a xlink:title=" ">
<path fill="none" stroke="#63b8ff" d="M351.36,-54.98C342.49,-47.15 329.13,-35.34 318.39,-25.86"/>
<polygon fill="#63b8ff" stroke="#63b8ff" points="320.63,-23.17 310.82,-19.17 315.99,-28.41 320.63,-23.17"/>
</a>
</g>
</g>
<!-- Node31&#45;&gt;Node9 -->
<g id="edge22_Node000031_Node000009" class="edge">
<title>Node31&#45;&gt;Node9</title>
<g id="a_edge22_Node000031_Node000009"><a xlink:title=" ">
<path fill="none" stroke="#63b8ff" d="M370.64,-54.98C379.51,-47.15 392.87,-35.34 403.61,-25.86"/>
<polygon fill="#63b8ff" stroke="#63b8ff" points="406.01,-28.41 411.18,-19.17 401.37,-23.17 406.01,-28.41"/>
</a>
</g>
</g>
<!-- Node35&#45;&gt;Node19 -->
<g id="edge26_Node000035_Node000019" class="edge">
<title>Node35&#45;&gt;Node19</title>
<g id="a_edge26_Node000035_Node000019"><a xlink:title=" ">
<path fill="none" stroke="#63b8ff" d="M938.07,-274.73C964.9,-235.98 1073.02,-79.8 1109.17,-27.59"/>
<polygon fill="#63b8ff" stroke="#63b8ff" points="1112.23,-29.32 1115.04,-19.11 1106.47,-25.33 1112.23,-29.32"/>
</a>
</g>
</g>
<!-- Node36 -->
<g id="Node000036" class="node">
<title>Node36</title>
<g id="a_Node000036"><a xlink:href="exception__utils_8h.html" target="_top" xlink:title=" ">
<polygon fill="white" stroke="#666666" points="941,-239 841,-239 841,-220 941,-220 941,-239"/>
<text text-anchor="middle" x="891" y="-227" font-family="Helvetica,sans-Serif" font-size="10.00">exception_utils.h</text>
</a>
</g>
</g>
<!-- Node35&#45;&gt;Node36 -->
<g id="edge27_Node000035_Node000036" class="edge">
<title>Node35&#45;&gt;Node36</title>
<g id="a_edge27_Node000035_Node000036"><a xlink:title=" ">
<path fill="none" stroke="#63b8ff" d="M925.23,-274.75C919.44,-267.26 910.94,-256.28 903.86,-247.13"/>
<polygon fill="#63b8ff" stroke="#63b8ff" points="906.53,-244.86 897.64,-239.09 900.99,-249.14 906.53,-244.86"/>
</a>
</g>
</g>
<!-- Node35&#45;&gt;Node37 -->
<g id="edge31_Node000035_Node000037" class="edge">
<title>Node35&#45;&gt;Node37</title>
<g id="a_edge31_Node000035_Node000037"><a xlink:title=" ">
<path fill="none" stroke="#63b8ff" d="M905.81,-274.98C878.56,-266.13 835.7,-252.19 805.22,-242.28"/>
<polygon fill="#63b8ff" stroke="#63b8ff" points="805.99,-238.85 795.39,-239.08 803.82,-245.5 805.99,-238.85"/>
</a>
</g>
</g>
<!-- Node36&#45;&gt;Node12 -->
<g id="edge30_Node000036_Node000012" class="edge">
<title>Node36&#45;&gt;Node12</title>
<g id="a_edge30_Node000036_Node000012"><a xlink:title=" ">
<path fill="none" stroke="#63b8ff" d="M868.99,-219.98C846.55,-211.3 811.52,-197.75 786.01,-187.88"/>
<polygon fill="#63b8ff" stroke="#63b8ff" points="787,-184.51 776.41,-184.17 784.48,-191.04 787,-184.51"/>
</a>
</g>
</g>
<!-- Node36&#45;&gt;Node14 -->
<g id="edge28_Node000036_Node000014" class="edge">
<title>Node36&#45;&gt;Node14</title>
<g id="a_edge28_Node000036_Node000014"><a xlink:title=" ">
<path fill="none" stroke="#63b8ff" d="M891.29,-219.95C891.64,-199.73 890.51,-147.8 872,-110 854.65,-74.57 820.41,-43.05 798.67,-25.4"/>
<polygon fill="#63b8ff" stroke="#63b8ff" points="800.75,-22.59 790.74,-19.13 796.41,-28.08 800.75,-22.59"/>
</a>
</g>
</g>
<!-- Node36&#45;&gt;Node16 -->
<g id="edge29_Node000036_Node000016" class="edge">
<title>Node36&#45;&gt;Node16</title>
<g id="a_edge29_Node000036_Node000016"><a xlink:title=" ">
<path fill="none" stroke="#63b8ff" d="M897.24,-219.74C915.65,-193.87 970.01,-117.48 994.63,-82.88"/>
<polygon fill="#63b8ff" stroke="#63b8ff" points="997.79,-84.48 1000.73,-74.31 992.08,-80.43 997.79,-84.48"/>
</a>
</g>
</g>
<!-- Node40&#45;&gt;Node6 -->
<g id="edge41_Node000040_Node000006" class="edge">
<title>Node40&#45;&gt;Node6</title>
<g id="a_edge41_Node000040_Node000006"><a xlink:title=" ">
<path fill="none" stroke="#63b8ff" d="M167.63,-439.75C170.58,-432.65 174.83,-422.4 178.51,-413.56"/>
<polygon fill="#63b8ff" stroke="#63b8ff" points="181.83,-414.67 182.43,-404.09 175.37,-411.98 181.83,-414.67"/>
</a>
</g>
</g>
<!-- Node40&#45;&gt;Node13 -->
<g id="edge40_Node000040_Node000013" class="edge">
<title>Node40&#45;&gt;Node13</title>
<g id="a_edge40_Node000040_Node000013"><a xlink:title=" ">
<path fill="none" stroke="#63b8ff" d="M161.03,-439.94C155.03,-421.83 142,-378.2 142,-340.5 142,-340.5 142,-340.5 142,-228.5 142,-165.63 359.51,-133.84 442.95,-123.96"/>
<polygon fill="#63b8ff" stroke="#63b8ff" points="443.36,-127.43 452.89,-122.81 442.56,-120.48 443.36,-127.43"/>
</a>
</g>
</g>
<!-- Node41 -->
<g id="Node000041" class="node">
<title>Node41</title>
<g id="a_Node000041"><a xlink:title=" ">
<polygon fill="#e0e0e0" stroke="#999999" points="114,-404 28,-404 28,-385 114,-385 114,-404"/>
<text text-anchor="middle" x="71" y="-392" font-family="Helvetica,sans-Serif" font-size="10.00">unordered_set</text>
</a>
</g>
</g>
<!-- Node40&#45;&gt;Node41 -->
<g id="edge42_Node000040_Node000041" class="edge">
<title>Node40&#45;&gt;Node41</title>
<g id="a_edge42_Node000040_Node000041"><a xlink:title=" ">
<path fill="none" stroke="#63b8ff" d="M149.06,-439.98C134.5,-431.69 112.13,-418.94 95.07,-409.22"/>
<polygon fill="#63b8ff" stroke="#63b8ff" points="96.64,-406.08 86.21,-404.17 93.17,-412.16 96.64,-406.08"/>
</a>
</g>
</g>
<!-- Node43 -->
<g id="Node000043" class="node">
<title>Node43</title>
<g id="a_Node000043"><a xlink:href="mathematical__types_8h.html" target="_top" xlink:title="Mathematical types.">
<polygon fill="white" stroke="#666666" points="1260,-514 1134,-514 1134,-495 1260,-495 1260,-514"/>
<text text-anchor="middle" x="1197" y="-502" font-family="Helvetica,sans-Serif" font-size="10.00">mathematical_types.h</text>
</a>
</g>
</g>
<!-- Node42&#45;&gt;Node43 -->
<g id="edge44_Node000042_Node000043" class="edge">
<title>Node42&#45;&gt;Node43</title>
<g id="a_edge44_Node000042_Node000043"><a xlink:title=" ">
<path fill="none" stroke="#63b8ff" d="M836.09,-604.94C906.28,-585.6 1077.03,-538.55 1155.86,-516.83"/>
<polygon fill="#63b8ff" stroke="#63b8ff" points="1157.2,-520.1 1165.91,-514.07 1155.34,-513.35 1157.2,-520.1"/>
</a>
</g>
</g>
<!-- Node42&#45;&gt;Node48 -->
<g id="edge57_Node000042_Node000048" class="edge">
<title>Node42&#45;&gt;Node48</title>
<g id="a_edge57_Node000042_Node000048"><a xlink:title=" ">
<path fill="none" stroke="#63b8ff" d="M808.14,-604.75C810.68,-597.65 814.36,-587.4 817.53,-578.56"/>
<polygon fill="#63b8ff" stroke="#63b8ff" points="820.84,-579.68 820.92,-569.09 814.25,-577.32 820.84,-579.68"/>
</a>
</g>
</g>
<!-- Node43&#45;&gt;Node11 -->
<g id="edge56_Node000043_Node000011" class="edge">
<title>Node43&#45;&gt;Node11</title>
<g id="a_edge56_Node000043_Node000011"><a xlink:title=" ">
<path fill="none" stroke="#63b8ff" d="M1189.85,-494.96C1171.32,-473.34 1119.3,-416 1064,-385 1027.85,-364.74 981.41,-352.67 950.5,-346.33"/>
<polygon fill="#63b8ff" stroke="#63b8ff" points="951.13,-342.88 940.65,-344.39 949.78,-349.75 951.13,-342.88"/>
</a>
</g>
</g>
<!-- Node43&#45;&gt;Node16 -->
<g id="edge51_Node000043_Node000016" class="edge">
<title>Node43&#45;&gt;Node16</title>
<g id="a_edge51_Node000043_Node000016"><a xlink:title=" ">
<path fill="none" stroke="#63b8ff" d="M1250.05,-494.98C1317.86,-481.34 1423.23,-449.31 1394,-385 1319.51,-221.08 1113.08,-113.6 1036.28,-78.26"/>
<polygon fill="#63b8ff" stroke="#63b8ff" points="1037.71,-75.07 1027.16,-74.12 1034.82,-81.44 1037.71,-75.07"/>
</a>
</g>
</g>
<!-- Node44 -->
<g id="Node000044" class="node">
<title>Node44</title>
<g id="a_Node000044"><a xlink:href="expr__cast_8h.html" target="_top" xlink:title="Templated functions to cast to specific exprt&#45;derived classes.">
<polygon fill="white" stroke="#666666" points="1095.5,-459 1022.5,-459 1022.5,-440 1095.5,-440 1095.5,-459"/>
<text text-anchor="middle" x="1059" y="-447" font-family="Helvetica,sans-Serif" font-size="10.00">expr_cast.h</text>
</a>
</g>
</g>
<!-- Node43&#45;&gt;Node44 -->
<g id="edge45_Node000043_Node000044" class="edge">
<title>Node43&#45;&gt;Node44</title>
<g id="a_edge45_Node000043_Node000044"><a xlink:title=" ">
<path fill="none" stroke="#63b8ff" d="M1174.83,-494.98C1152.23,-486.3 1116.94,-472.75 1091.25,-462.88"/>
<polygon fill="#63b8ff" stroke="#63b8ff" points="1092.17,-459.49 1081.58,-459.17 1089.66,-466.02 1092.17,-459.49"/>
</a>
</g>
</g>
<!-- Node46 -->
<g id="Node000046" class="node">
<title>Node46</title>
<g id="a_Node000046"><a xlink:href="mp__arith_8h.html" target="_top" xlink:title=" ">
<polygon fill="white" stroke="#666666" points="1300.5,-459 1231.5,-459 1231.5,-440 1300.5,-440 1300.5,-459"/>
<text text-anchor="middle" x="1266" y="-447" font-family="Helvetica,sans-Serif" font-size="10.00">mp_arith.h</text>
</a>
</g>
</g>
<!-- Node43&#45;&gt;Node46 -->
<g id="edge52_Node000043_Node000046" class="edge">
<title>Node43&#45;&gt;Node46</title>
<g id="a_edge52_Node000043_Node000046"><a xlink:title=" ">
<path fill="none" stroke="#63b8ff" d="M1208.09,-494.98C1218.49,-487 1234.26,-474.88 1246.72,-465.31"/>
<polygon fill="#63b8ff" stroke="#63b8ff" points="1248.91,-468.04 1254.71,-459.17 1244.65,-462.49 1248.91,-468.04"/>
</a>
</g>
</g>
<!-- Node44&#45;&gt;Node5 -->
<g id="edge48_Node000044_Node000005" class="edge">
<title>Node44&#45;&gt;Node5</title>
<g id="a_edge48_Node000044_Node000005"><a xlink:title=" ">
<path fill="none" stroke="#63b8ff" d="M1022.19,-444.64C932.35,-435.18 706.72,-411.05 673,-404 610.08,-390.84 538.85,-366.93 498.49,-352.5"/>
<polygon fill="#63b8ff" stroke="#63b8ff" points="499.52,-349.15 488.92,-349.05 497.14,-355.73 499.52,-349.15"/>
</a>
</g>
</g>
<!-- Node44&#45;&gt;Node8 -->
<g id="edge50_Node000044_Node000008" class="edge">
<title>Node44&#45;&gt;Node8</title>
<g id="a_edge50_Node000044_Node000008"><a xlink:title=" ">
<path fill="none" stroke="#63b8ff" d="M1022.45,-443.03C953.53,-432.71 805.33,-410.52 738.68,-400.54"/>
<polygon fill="#63b8ff" stroke="#63b8ff" points="739.12,-397.07 728.71,-399.05 738.08,-403.99 739.12,-397.07"/>
</a>
</g>
</g>
<!-- Node44&#45;&gt;Node16 -->
<g id="edge49_Node000044_Node000016" class="edge">
<title>Node44&#45;&gt;Node16</title>
<g id="a_edge49_Node000044_Node000016"><a xlink:title=" ">
<path fill="none" stroke="#63b8ff" d="M1062.24,-439.96C1068.79,-421.9 1083,-378.34 1083,-340.5 1083,-340.5 1083,-340.5 1083,-173.5 1083,-143.33 1076.34,-134.69 1059,-110 1050.89,-98.45 1039.12,-88.04 1028.82,-80.2"/>
<polygon fill="#63b8ff" stroke="#63b8ff" points="1030.78,-77.3 1020.63,-74.25 1026.66,-82.96 1030.78,-77.3"/>
</a>
</g>
</g>
<!-- Node44&#45;&gt;Node19 -->
<g id="edge47_Node000044_Node000019" class="edge">
<title>Node44&#45;&gt;Node19</title>
<g id="a_edge47_Node000044_Node000019"><a xlink:title=" ">
<path fill="none" stroke="#63b8ff" d="M1066.54,-439.99C1073.6,-431.5 1083.82,-417.78 1089,-404 1097.68,-380.94 1093.54,-373.52 1096,-349 1108.22,-227.43 1117.04,-80.73 1119.96,-29.36"/>
<polygon fill="#63b8ff" stroke="#63b8ff" points="1123.47,-29.33 1120.53,-19.15 1116.48,-28.93 1123.47,-29.33"/>
</a>
</g>
</g>
<!-- Node45 -->
<g id="Node000045" class="node">
<title>Node45</title>
<g id="a_Node000045"><a xlink:title=" ">
<polygon fill="#e0e0e0" stroke="#999999" points="1054.5,-404 997.5,-404 997.5,-385 1054.5,-385 1054.5,-404"/>
<text text-anchor="middle" x="1026" y="-392" font-family="Helvetica,sans-Serif" font-size="10.00">typeinfo</text>
</a>
</g>
</g>
<!-- Node44&#45;&gt;Node45 -->
<g id="edge46_Node000044_Node000045" class="edge">
<title>Node44&#45;&gt;Node45</title>
<g id="a_edge46_Node000044_Node000045"><a xlink:title=" ">
<path fill="none" stroke="#63b8ff" d="M1053.55,-439.75C1048.99,-432.42 1042.33,-421.73 1036.71,-412.7"/>
<polygon fill="#63b8ff" stroke="#63b8ff" points="1039.6,-410.73 1031.35,-404.09 1033.66,-414.43 1039.6,-410.73"/>
</a>
</g>
</g>
<!-- Node46&#45;&gt;Node14 -->
<g id="edge54_Node000046_Node000014" class="edge">
<title>Node46&#45;&gt;Node14</title>
<g id="a_edge54_Node000046_Node000014"><a xlink:title=" ">
<path fill="none" stroke="#63b8ff" d="M1241.68,-439.93C1203.97,-426.86 1128.98,-401.7 1064,-385 985.4,-364.8 963.78,-368.47 885,-349 863.97,-343.8 715.73,-306.44 698,-294 644.51,-256.48 611,-240.84 611,-175.5 611,-175.5 611,-175.5 611,-118.5 611,-54.7 697.79,-26.82 746.61,-16.18"/>
<polygon fill="#63b8ff" stroke="#63b8ff" points="747.6,-19.55 756.69,-14.11 746.19,-12.7 747.6,-19.55"/>
</a>
</g>
</g>
<!-- Node22 -->
<g id="Node000022" class="node">
<title>Node22</title>
<g id="a_Node000022"><a xlink:title=" ">
<polygon fill="#e0e0e0" stroke="#999999" points="1385,-404 1337,-404 1337,-385 1385,-385 1385,-404"/>
<text text-anchor="middle" x="1361" y="-392" font-family="Helvetica,sans-Serif" font-size="10.00">iosfwd</text>
</a>
</g>
</g>
<!-- Node46&#45;&gt;Node22 -->
<g id="edge53_Node000046_Node000022" class="edge">
<title>Node46&#45;&gt;Node22</title>
<g id="a_edge53_Node000046_Node000022"><a xlink:title=" ">
<path fill="none" stroke="#63b8ff" d="M1281.26,-439.98C1296.13,-431.69 1318.98,-418.94 1336.42,-409.22"/>
<polygon fill="#63b8ff" stroke="#63b8ff" points="1338.43,-412.1 1345.46,-404.17 1335.02,-405.99 1338.43,-412.1"/>
</a>
</g>
</g>
<!-- Node47 -->
<g id="Node000047" class="node">
<title>Node47</title>
<g id="a_Node000047"><a xlink:title=" ">
<polygon fill="#e0e0e0" stroke="#999999" points="1319,-404 1225,-404 1225,-385 1319,-385 1319,-404"/>
<text text-anchor="middle" x="1272" y="-392" font-family="Helvetica,sans-Serif" font-size="10.00">big&#45;int/bigint.hh</text>
</a>
</g>
</g>
<!-- Node46&#45;&gt;Node47 -->
<g id="edge55_Node000046_Node000047" class="edge">
<title>Node46&#45;&gt;Node47</title>
<g id="a_edge55_Node000046_Node000047"><a xlink:title=" ">
<path fill="none" stroke="#63b8ff" d="M1266.99,-439.75C1267.78,-432.8 1268.9,-422.85 1269.89,-414.13"/>
<polygon fill="#63b8ff" stroke="#63b8ff" points="1273.38,-414.42 1271.03,-404.09 1266.42,-413.63 1273.38,-414.42"/>
</a>
</g>
</g>
<!-- Node48&#45;&gt;Node10 -->
<g id="edge58_Node000048_Node000010" class="edge">
<title>Node48&#45;&gt;Node10</title>
<g id="a_edge58_Node000048_Node000010"><a xlink:title=" ">
<path fill="none" stroke="#63b8ff" d="M790.22,-553.55C712.38,-541.21 527,-505.98 527,-450.5 527,-450.5 527,-450.5 527,-283.5 527,-203.83 624.64,-154.19 678.81,-132.78"/>
<polygon fill="#63b8ff" stroke="#63b8ff" points="680.31,-135.96 688.39,-129.11 677.8,-129.42 680.31,-135.96"/>
</a>
</g>
</g>
<!-- Node48&#45;&gt;Node16 -->
<g id="edge60_Node000048_Node000016" class="edge">
<title>Node48&#45;&gt;Node16</title>
<g id="a_edge60_Node000048_Node000016"><a xlink:title=" ">
<path fill="none" stroke="#63b8ff" d="M825.37,-549.8C828.93,-529.24 839.91,-476.65 864,-440 915.39,-361.81 1007,-379.07 1007,-285.5 1007,-285.5 1007,-285.5 1007,-173.5 1007,-142.19 1007,-105.77 1007,-84.23"/>
<polygon fill="#63b8ff" stroke="#63b8ff" points="1010.5,-84.18 1007,-74.18 1003.5,-84.18 1010.5,-84.18"/>
</a>
</g>
</g>
<!-- Node48&#45;&gt;Node44 -->
<g id="edge59_Node000048_Node000044" class="edge">
<title>Node48&#45;&gt;Node44</title>
<g id="a_edge59_Node000048_Node000044"><a xlink:title=" ">
<path fill="none" stroke="#63b8ff" d="M857.61,-550.07C885.7,-542.43 926.45,-529.93 960,-514 989.14,-500.16 1020.02,-479.22 1039.39,-465.21"/>
<polygon fill="#63b8ff" stroke="#63b8ff" points="1041.68,-467.87 1047.68,-459.14 1037.54,-462.23 1041.68,-467.87"/>
</a>
</g>
</g>
<!-- Node49 -->
<g id="Node000049" class="node">
<title>Node49</title>
<g id="a_Node000049"><a xlink:href="std__types_8h.html" target="_top" xlink:title="Pre&#45;defined types.">
<polygon fill="white" stroke="#666666" points="950.5,-514 877.5,-514 877.5,-495 950.5,-495 950.5,-514"/>
<text text-anchor="middle" x="914" y="-502" font-family="Helvetica,sans-Serif" font-size="10.00">std_types.h</text>
</a>
</g>
</g>
<!-- Node48&#45;&gt;Node49 -->
<g id="edge61_Node000048_Node000049" class="edge">
<title>Node48&#45;&gt;Node49</title>
<g id="a_edge61_Node000048_Node000049"><a xlink:title=" ">
<path fill="none" stroke="#63b8ff" d="M838.46,-549.98C852.42,-541.77 873.79,-529.18 890.25,-519.49"/>
<polygon fill="#63b8ff" stroke="#63b8ff" points="892.44,-522.26 899.28,-514.17 888.88,-516.23 892.44,-522.26"/>
</a>
</g>
</g>
<!-- Node49&#45;&gt;Node8 -->
<g id="edge62_Node000049_Node000008" class="edge">
<title>Node49&#45;&gt;Node8</title>
<g id="a_edge62_Node000049_Node000008"><a xlink:title=" ">
<path fill="none" stroke="#63b8ff" d="M883.41,-494.96C858.1,-487.29 821.64,-474.81 792,-459 766.29,-445.28 739.64,-424.74 722.73,-410.76"/>
<polygon fill="#63b8ff" stroke="#63b8ff" points="724.73,-407.87 714.82,-404.12 720.23,-413.23 724.73,-407.87"/>
</a>
</g>
</g>
<!-- Node49&#45;&gt;Node16 -->
<g id="edge64_Node000049_Node000016" class="edge">
<title>Node49&#45;&gt;Node16</title>
<g id="a_edge64_Node000049_Node000016"><a xlink:title=" ">
<path fill="none" stroke="#63b8ff" d="M932.44,-494.87C946.37,-487.38 964.77,-475.18 975,-459 992.89,-430.71 974.24,-415.04 989,-385 998.44,-365.79 1009.92,-367.32 1021,-349 1036.62,-323.18 1045,-315.67 1045,-285.5 1045,-285.5 1045,-285.5 1045,-173.5 1045,-140.02 1028.55,-103.84 1017.3,-83.01"/>
<polygon fill="#63b8ff" stroke="#63b8ff" points="1020.24,-81.1 1012.28,-74.1 1014.13,-84.53 1020.24,-81.1"/>
</a>
</g>
</g>
<!-- Node49&#45;&gt;Node35 -->
<g id="edge65_Node000049_Node000035" class="edge">
<title>Node49&#45;&gt;Node35</title>
<g id="a_edge65_Node000049_Node000035"><a xlink:title=" ">
<path fill="none" stroke="#63b8ff" d="M898.81,-494.92C881.02,-483.63 855.03,-462.56 864,-440 884.57,-388.29 929.43,-400.71 950,-349 956.01,-333.9 949.83,-316.04 943.13,-303.11"/>
<polygon fill="#63b8ff" stroke="#63b8ff" points="946.1,-301.25 938.09,-294.31 940.02,-304.73 946.1,-301.25"/>
</a>
</g>
</g>
<!-- Node49&#45;&gt;Node44 -->
<g id="edge63_Node000049_Node000044" class="edge">
<title>Node49&#45;&gt;Node44</title>
<g id="a_edge63_Node000049_Node000044"><a xlink:title=" ">
<path fill="none" stroke="#63b8ff" d="M937.3,-494.98C961.25,-486.23 998.78,-472.51 1025.83,-462.62"/>
<polygon fill="#63b8ff" stroke="#63b8ff" points="1027.09,-465.89 1035.28,-459.17 1024.69,-459.32 1027.09,-465.89"/>
</a>
</g>
</g>
<!-- Node27 -->
<g id="Node000027" class="node">
<title>Node27</title>
<g id="a_Node000027"><a xlink:title=" ">
<polygon fill="#e0e0e0" stroke="#999999" points="965.5,-459 872.5,-459 872.5,-440 965.5,-440 965.5,-459"/>
<text text-anchor="middle" x="919" y="-447" font-family="Helvetica,sans-Serif" font-size="10.00">unordered_map</text>
</a>
</g>
</g>
<!-- Node49&#45;&gt;Node27 -->
<g id="edge66_Node000049_Node000027" class="edge">
<title>Node49&#45;&gt;Node27</title>
<g id="a_edge66_Node000049_Node000027"><a xlink:title=" ">
<path fill="none" stroke="#63b8ff" d="M914.83,-494.75C915.48,-487.8 916.42,-477.85 917.24,-469.13"/>
<polygon fill="#63b8ff" stroke="#63b8ff" points="920.73,-469.37 918.19,-459.09 913.77,-468.72 920.73,-469.37"/>
</a>
</g>
</g>
</g>
</svg>
