<?xml version="1.0" encoding="UTF-8" standalone="no"?>
<!DOCTYPE svg PUBLIC "-//W3C//DTD SVG 1.1//EN"
 "http://www.w3.org/Graphics/SVG/1.1/DTD/svg11.dtd">
<!-- Generated by graphviz version 2.43.0 (0)
 -->
<!-- Title: resolution_visitort Pages: 1 -->
<svg width="1337pt" height="402pt"
 viewBox="0.00 0.00 1337.00 401.52" xmlns="http://www.w3.org/2000/svg" xmlns:xlink="http://www.w3.org/1999/xlink">
<g id="graph0" class="graph" transform="scale(1 1) rotate(0) translate(4 397.52)">
<title>resolution_visitort</title>
<!-- Node1 -->
<g id="Node000001" class="node">
<title>Node1</title>
<g id="a_Node000001"><a xlink:title="Traverses the clauses in order (wto) and resolving all predicates (symbols) that are not a head of a ...">
<polygon fill="#999999" stroke="#666666" points="1329,-228.02 1224,-228.02 1224,-209.02 1329,-209.02 1329,-228.02"/>
<text text-anchor="middle" x="1276.5" y="-216.02" font-family="Helvetica,sans-Serif" font-size="10.00">resolution_visitort</text>
</a>
</g>
</g>
<!-- Node2 -->
<g id="Node000002" class="node">
<title>Node2</title>
<g id="a_Node000002"><a xlink:href="classwto__element__visitort.html" target="_top" xlink:title="Bourdoncle Components over the cut&#45;point graph of CHCs is a weak topological ordering (wto) on cut&#45;po...">
<polygon fill="white" stroke="#666666" points="1123.5,-302.02 1003.5,-302.02 1003.5,-283.02 1123.5,-283.02 1123.5,-302.02"/>
<text text-anchor="middle" x="1063.5" y="-290.02" font-family="Helvetica,sans-Serif" font-size="10.00">wto_element_visitort</text>
</a>
</g>
</g>
<!-- Node2&#45;&gt;Node1 -->
<g id="edge1_Node000001_Node000002" class="edge">
<title>Node2&#45;&gt;Node1</title>
<g id="a_edge1_Node000001_Node000002"><a xlink:title=" ">
<path fill="none" stroke="#63b8ff" d="M1111.71,-280.33C1119.52,-278.16 1127.51,-275.85 1135,-273.52 1166.95,-263.61 1174.85,-260.72 1206,-248.52 1222.4,-242.11 1240.67,-234.19 1254.37,-228.1"/>
<polygon fill="#63b8ff" stroke="#63b8ff" points="1110.7,-276.98 1101.97,-282.99 1112.54,-283.73 1110.7,-276.98"/>
</a>
</g>
</g>
<!-- Node3 -->
<g id="Node000003" class="node">
<title>Node3</title>
<g id="a_Node000003"><a xlink:href="classchc__dbt.html" target="_top" xlink:title=" ">
<polygon fill="white" stroke="#666666" points="1090.5,-203.02 1036.5,-203.02 1036.5,-184.02 1090.5,-184.02 1090.5,-203.02"/>
<text text-anchor="middle" x="1063.5" y="-191.02" font-family="Helvetica,sans-Serif" font-size="10.00">chc_dbt</text>
</a>
</g>
</g>
<!-- Node3&#45;&gt;Node1 -->
<g id="edge2_Node000001_Node000003" class="edge">
<title>Node3&#45;&gt;Node1</title>
<g id="a_edge2_Node000001_Node000003"><a xlink:title=" ">
<path fill="none" stroke="#9a32cd" stroke-dasharray="5,2" d="M1100.89,-191.92C1129.62,-191.29 1170.62,-191.78 1206,-197.52 1220.81,-199.93 1236.86,-204.63 1249.81,-208.98"/>
<polygon fill="#9a32cd" stroke="#9a32cd" points="1100.41,-188.43 1090.51,-192.21 1100.61,-195.43 1100.41,-188.43"/>
</a>
</g>
<text text-anchor="middle" x="1179.5" y="-211.52" font-family="Helvetica,sans-Serif" font-size="10.00" fill="grey"> m_db</text>
<text text-anchor="middle" x="1179.5" y="-200.52" font-family="Helvetica,sans-Serif" font-size="10.00" fill="grey">m_new_db</text>
</g>
<!-- Node4 -->
<g id="Node000004" class="node">
<title>Node4</title>
<g id="a_Node000004"><a xlink:title=" ">
<polygon fill="white" stroke="#666666" points="849,-353.02 696,-353.02 696,-334.02 849,-334.02 849,-353.02"/>
<text text-anchor="middle" x="772.5" y="-341.02" font-family="Helvetica,sans-Serif" font-size="10.00">std::vector&lt; horn_clauset &gt;</text>
</a>
</g>
</g>
<!-- Node4&#45;&gt;Node3 -->
<g id="edge3_Node000003_Node000004" class="edge">
<title>Node4&#45;&gt;Node3</title>
<g id="a_edge3_Node000003_Node000004"><a xlink:title=" ">
<path fill="none" stroke="#9a32cd" stroke-dasharray="5,2" d="M795.5,-327.95C833.8,-301.43 915.94,-247.22 992,-214.52 1006.2,-208.42 1022.72,-203.4 1036.21,-199.79"/>
<polygon fill="#9a32cd" stroke="#9a32cd" points="793.35,-325.18 787.15,-333.77 797.36,-330.92 793.35,-325.18"/>
</a>
</g>
<text text-anchor="middle" x="920.5" y="-282.52" font-family="Helvetica,sans-Serif" font-size="10.00" fill="grey"> m_clauses</text>
</g>
<!-- Node28 -->
<g id="Node000028" class="node">
<title>Node28</title>
<g id="a_Node000028"><a xlink:title=" ">
<polygon fill="white" stroke="#666666" points="1135,-265.02 992,-265.02 992,-224.02 1135,-224.02 1135,-265.02"/>
<text text-anchor="start" x="1000" y="-253.02" font-family="Helvetica,sans-Serif" font-size="10.00">std::unordered_map</text>
<text text-anchor="start" x="1000" y="-242.02" font-family="Helvetica,sans-Serif" font-size="10.00">&lt; std::size_t, std::</text>
<text text-anchor="middle" x="1063.5" y="-231.02" font-family="Helvetica,sans-Serif" font-size="10.00">vector&lt; horn_clauset &gt; &gt;</text>
</a>
</g>
</g>
<!-- Node4&#45;&gt;Node28 -->
<g id="edge25_Node000028_Node000004" class="edge">
<title>Node4&#45;&gt;Node28</title>
<g id="a_edge25_Node000028_Node000004"><a xlink:title=" ">
<path fill="none" stroke="#9a32cd" stroke-dasharray="5,2" d="M859.48,-340.29C897.32,-335.33 940.66,-324.48 974,-301.52 986.19,-293.13 980.64,-283 992,-273.52 995.66,-270.47 999.68,-267.71 1003.9,-265.21"/>
<polygon fill="#9a32cd" stroke="#9a32cd" points="858.99,-336.83 849.48,-341.49 859.82,-343.78 858.99,-336.83"/>
</a>
</g>
<text text-anchor="middle" x="920.5" y="-342.52" font-family="Helvetica,sans-Serif" font-size="10.00" fill="grey"> elements</text>
</g>
<!-- Node5 -->
<g id="Node000005" class="node">
<title>Node5</title>
<g id="a_Node000005"><a xlink:href="classhorn__clauset.html" target="_top" xlink:title=" ">
<polygon fill="white" stroke="#666666" points="525,-391.02 446,-391.02 446,-372.02 525,-372.02 525,-391.02"/>
<text text-anchor="middle" x="485.5" y="-379.02" font-family="Helvetica,sans-Serif" font-size="10.00">horn_clauset</text>
</a>
</g>
</g>
<!-- Node5&#45;&gt;Node4 -->
<g id="edge4_Node000004_Node000005" class="edge">
<title>Node5&#45;&gt;Node4</title>
<g id="a_edge4_Node000004_Node000005"><a xlink:title=" ">
<path fill="none" stroke="#9a32cd" stroke-dasharray="5,2" d="M535.01,-375.77C573.75,-371.1 629.4,-364.21 678,-357.52 688.16,-356.13 698.94,-354.58 709.42,-353.03"/>
<polygon fill="#9a32cd" stroke="#9a32cd" points="534.56,-372.3 525.05,-376.97 535.4,-379.25 534.56,-372.3"/>
</a>
</g>
<text text-anchor="middle" x="625" y="-374.52" font-family="Helvetica,sans-Serif" font-size="10.00" fill="grey"> elements</text>
</g>
<!-- Node6 -->
<g id="Node000006" class="node">
<title>Node6</title>
<g id="a_Node000006"><a xlink:href="classforall__exprt.html" target="_top" xlink:title="A forall expression.">
<polygon fill="white" stroke="#666666" points="328,-392.02 255,-392.02 255,-373.02 328,-373.02 328,-392.02"/>
<text text-anchor="middle" x="291.5" y="-380.02" font-family="Helvetica,sans-Serif" font-size="10.00">forall_exprt</text>
</a>
</g>
</g>
<!-- Node6&#45;&gt;Node5 -->
<g id="edge5_Node000005_Node000006" class="edge">
<title>Node6&#45;&gt;Node5</title>
<g id="a_edge5_Node000005_Node000006"><a xlink:title=" ">
<path fill="none" stroke="#9a32cd" stroke-dasharray="5,2" d="M338.39,-382.29C371.14,-382.11 414.71,-381.89 445.73,-381.73"/>
<polygon fill="#9a32cd" stroke="#9a32cd" points="338.15,-378.79 328.16,-382.34 338.18,-385.79 338.15,-378.79"/>
</a>
</g>
<text text-anchor="middle" x="374.5" y="-385.52" font-family="Helvetica,sans-Serif" font-size="10.00" fill="grey"> m_chc</text>
</g>
<!-- Node7 -->
<g id="Node000007" class="node">
<title>Node7</title>
<g id="a_Node000007"><a xlink:href="classquantifier__exprt.html" target="_top" xlink:title="A base class for quantifier expressions.">
<polygon fill="white" stroke="#666666" points="214,-392.02 120,-392.02 120,-373.02 214,-373.02 214,-392.02"/>
<text text-anchor="middle" x="167" y="-380.02" font-family="Helvetica,sans-Serif" font-size="10.00">quantifier_exprt</text>
</a>
</g>
</g>
<!-- Node7&#45;&gt;Node6 -->
<g id="edge6_Node000006_Node000007" class="edge">
<title>Node7&#45;&gt;Node6</title>
<g id="a_edge6_Node000006_Node000007"><a xlink:title=" ">
<path fill="none" stroke="#63b8ff" d="M224.52,-382.52C234.83,-382.52 245.33,-382.52 254.82,-382.52"/>
<polygon fill="#63b8ff" stroke="#63b8ff" points="224.31,-379.02 214.31,-382.52 224.31,-386.02 224.31,-379.02"/>
</a>
</g>
</g>
<!-- Node8 -->
<g id="Node000008" class="node">
<title>Node8</title>
<g id="a_Node000008"><a xlink:href="classbinding__exprt.html" target="_top" xlink:title="A base class for variable bindings (quantifiers, let, lambda)">
<polygon fill="#fff0f0" stroke="red" points="83,-392.02 0,-392.02 0,-373.02 83,-373.02 83,-392.02"/>
<text text-anchor="middle" x="41.5" y="-380.02" font-family="Helvetica,sans-Serif" font-size="10.00">binding_exprt</text>
</a>
</g>
</g>
<!-- Node8&#45;&gt;Node7 -->
<g id="edge7_Node000007_Node000008" class="edge">
<title>Node8&#45;&gt;Node7</title>
<g id="a_edge7_Node000007_Node000008"><a xlink:title=" ">
<path fill="none" stroke="#63b8ff" d="M93.35,-382.52C102.08,-382.52 111.11,-382.52 119.71,-382.52"/>
<polygon fill="#63b8ff" stroke="#63b8ff" points="93.28,-379.02 83.28,-382.52 93.28,-386.02 93.28,-379.02"/>
</a>
</g>
</g>
<!-- Node18 -->
<g id="Node000018" class="node">
<title>Node18</title>
<g id="a_Node000018"><a xlink:title=" ">
<polygon fill="white" stroke="#666666" points="534,-353.02 437,-353.02 437,-334.02 534,-334.02 534,-353.02"/>
<text text-anchor="middle" x="485.5" y="-341.02" font-family="Helvetica,sans-Serif" font-size="10.00">std::vector&lt; T &gt;</text>
</a>
</g>
</g>
<!-- Node18&#45;&gt;Node4 -->
<g id="edge8_Node000004_Node000018" class="edge">
<title>Node18&#45;&gt;Node4</title>
<g id="a_edge8_Node000004_Node000018"><a xlink:title=" ">
<path fill="none" stroke="orange" stroke-dasharray="5,2" d="M544.38,-343.52C588.1,-343.52 648.48,-343.52 695.99,-343.52"/>
<polygon fill="orange" stroke="orange" points="544.2,-340.02 534.2,-343.52 544.2,-347.02 544.2,-340.02"/>
</a>
</g>
<text text-anchor="middle" x="625" y="-346.52" font-family="Helvetica,sans-Serif" font-size="10.00" fill="grey"> &lt; horn_clauset &gt;</text>
</g>
<!-- Node19 -->
<g id="Node000019" class="node">
<title>Node19</title>
<g id="a_Node000019"><a xlink:title=" ">
<polygon fill="white" stroke="#666666" points="306,-324.02 277,-324.02 277,-305.02 306,-305.02 306,-324.02"/>
<text text-anchor="middle" x="291.5" y="-312.02" font-family="Helvetica,sans-Serif" font-size="10.00">T</text>
</a>
</g>
</g>
<!-- Node19&#45;&gt;Node18 -->
<g id="edge9_Node000018_Node000019" class="edge">
<title>Node19&#45;&gt;Node18</title>
<g id="a_edge9_Node000018_Node000019"><a xlink:title=" ">
<path fill="none" stroke="#9a32cd" stroke-dasharray="5,2" d="M316.11,-319.9C326.47,-322.14 338.8,-324.65 350,-326.52 378.67,-331.32 410.98,-335.45 436.75,-338.43"/>
<polygon fill="#9a32cd" stroke="#9a32cd" points="316.67,-316.44 306.15,-317.69 315.16,-323.27 316.67,-316.44"/>
</a>
</g>
<text text-anchor="middle" x="374.5" y="-337.52" font-family="Helvetica,sans-Serif" font-size="10.00" fill="grey"> elements</text>
</g>
<!-- Node27 -->
<g id="Node000027" class="node">
<title>Node27</title>
<g id="a_Node000027"><a xlink:title=" ">
<polygon fill="white" stroke="#666666" points="536,-223.02 435,-223.02 435,-204.02 536,-204.02 536,-223.02"/>
<text text-anchor="middle" x="485.5" y="-211.02" font-family="Helvetica,sans-Serif" font-size="10.00">std::map&lt; K, T &gt;</text>
</a>
</g>
</g>
<!-- Node19&#45;&gt;Node27 -->
<g id="edge22_Node000027_Node000019" class="edge">
<title>Node19&#45;&gt;Node27</title>
<g id="a_edge22_Node000027_Node000019"><a xlink:title=" ">
<path fill="none" stroke="#9a32cd" stroke-dasharray="5,2" d="M314.8,-300.75C325.42,-294.25 338.32,-286.41 350,-279.52 371.6,-266.78 379.27,-267.02 399,-251.52 408.15,-244.34 407.04,-238.54 417,-232.52 423.36,-228.68 430.52,-225.6 437.74,-223.12"/>
<polygon fill="#9a32cd" stroke="#9a32cd" points="312.83,-297.86 306.15,-306.07 316.5,-303.82 312.83,-297.86"/>
</a>
</g>
<text text-anchor="middle" x="374.5" y="-282.52" font-family="Helvetica,sans-Serif" font-size="10.00" fill="grey"> elements</text>
</g>
<!-- Node29 -->
<g id="Node000029" class="node">
<title>Node29</title>
<g id="a_Node000029"><a xlink:title=" ">
<polygon fill="white" stroke="#666666" points="542.5,-271.52 428.5,-271.52 428.5,-241.52 542.5,-241.52 542.5,-271.52"/>
<text text-anchor="start" x="436.5" y="-259.52" font-family="Helvetica,sans-Serif" font-size="10.00">std::unordered_map</text>
<text text-anchor="middle" x="485.5" y="-248.52" font-family="Helvetica,sans-Serif" font-size="10.00">&lt; K, T &gt;</text>
</a>
</g>
</g>
<!-- Node19&#45;&gt;Node29 -->
<g id="edge28_Node000029_Node000019" class="edge">
<title>Node19&#45;&gt;Node29</title>
<g id="a_edge28_Node000029_Node000019"><a xlink:title=" ">
<path fill="none" stroke="#9a32cd" stroke-dasharray="5,2" d="M316.17,-311C337.97,-307.43 371.08,-301.19 399,-292.52 417.3,-286.84 437.07,-278.66 452.97,-271.54"/>
<polygon fill="#9a32cd" stroke="#9a32cd" points="315.49,-307.56 306.16,-312.58 316.59,-314.47 315.49,-307.56"/>
</a>
</g>
<text text-anchor="middle" x="374.5" y="-307.52" font-family="Helvetica,sans-Serif" font-size="10.00" fill="grey"> elements</text>
</g>
<!-- Node21 -->
<g id="Node000021" class="node">
<title>Node21</title>
<g id="a_Node000021"><a xlink:title=" ">
<polygon fill="white" stroke="#666666" points="832,-113.02 713,-113.02 713,-72.02 832,-72.02 832,-113.02"/>
<text text-anchor="start" x="721" y="-101.02" font-family="Helvetica,sans-Serif" font-size="10.00">std::unordered_set</text>
<text text-anchor="start" x="721" y="-90.02" font-family="Helvetica,sans-Serif" font-size="10.00">&lt; symbol_exprt, irep</text>
<text text-anchor="middle" x="772.5" y="-79.02" font-family="Helvetica,sans-Serif" font-size="10.00">_hash &gt;</text>
</a>
</g>
</g>
<!-- Node21&#45;&gt;Node3 -->
<g id="edge10_Node000003_Node000021" class="edge">
<title>Node21&#45;&gt;Node3</title>
<g id="a_edge10_Node000003_Node000021"><a xlink:title=" ">
<path fill="none" stroke="#9a32cd" stroke-dasharray="5,2" d="M842.41,-95C882.24,-98.49 932.52,-106.48 974,-124.52 1006.87,-138.82 1038.21,-168.21 1053.24,-183.61"/>
<polygon fill="#9a32cd" stroke="#9a32cd" points="842.51,-91.5 832.26,-94.19 841.95,-98.48 842.51,-91.5"/>
</a>
</g>
<text text-anchor="middle" x="920.5" y="-127.52" font-family="Helvetica,sans-Serif" font-size="10.00" fill="grey"> m_state_preds</text>
</g>
<!-- Node22 -->
<g id="Node000022" class="node">
<title>Node22</title>
<g id="a_Node000022"><a xlink:href="classsymbol__exprt.html" target="_top" xlink:title="Expression to hold a symbol (variable)">
<polygon fill="white" stroke="#666666" points="527,-61.02 444,-61.02 444,-42.02 527,-42.02 527,-61.02"/>
<text text-anchor="middle" x="485.5" y="-49.02" font-family="Helvetica,sans-Serif" font-size="10.00">symbol_exprt</text>
</a>
</g>
</g>
<!-- Node22&#45;&gt;Node21 -->
<g id="edge11_Node000021_Node000022" class="edge">
<title>Node22&#45;&gt;Node21</title>
<g id="a_edge11_Node000021_Node000022"><a xlink:title=" ">
<path fill="none" stroke="#9a32cd" stroke-dasharray="5,2" d="M510.16,-36.62C526.76,-27.07 549.86,-15.56 572,-10.52 617.94,-0.08 633.91,6.07 678,-10.52 710.33,-22.69 738.77,-51.68 755.56,-71.71"/>
<polygon fill="#9a32cd" stroke="#9a32cd" points="508,-33.83 501.19,-41.95 511.57,-39.85 508,-33.83"/>
</a>
</g>
<text text-anchor="middle" x="625" y="-13.52" font-family="Helvetica,sans-Serif" font-size="10.00" fill="grey"> keys</text>
</g>
<!-- Node23 -->
<g id="Node000023" class="node">
<title>Node23</title>
<g id="a_Node000023"><a xlink:href="classnullary__exprt.html" target="_top" xlink:title="An expression without operands.">
<polygon fill="white" stroke="#666666" points="332,-107.02 251,-107.02 251,-88.02 332,-88.02 332,-107.02"/>
<text text-anchor="middle" x="291.5" y="-95.02" font-family="Helvetica,sans-Serif" font-size="10.00">nullary_exprt</text>
</a>
</g>
</g>
<!-- Node23&#45;&gt;Node22 -->
<g id="edge12_Node000022_Node000023" class="edge">
<title>Node23&#45;&gt;Node22</title>
<g id="a_edge12_Node000022_Node000023"><a xlink:title=" ">
<path fill="none" stroke="#63b8ff" d="M342.3,-85.59C374.21,-77.95 415.05,-68.16 444.77,-61.04"/>
<polygon fill="#63b8ff" stroke="#63b8ff" points="341.19,-82.26 332.28,-87.99 342.82,-89.07 341.19,-82.26"/>
</a>
</g>
</g>
<!-- Node10 -->
<g id="Node000010" class="node">
<title>Node10</title>
<g id="a_Node000010"><a xlink:href="classexpr__protectedt.html" target="_top" xlink:title="Base class for all expressions.">
<polygon fill="white" stroke="#666666" points="214,-115.02 120,-115.02 120,-96.02 214,-96.02 214,-115.02"/>
<text text-anchor="middle" x="167" y="-103.02" font-family="Helvetica,sans-Serif" font-size="10.00">expr_protectedt</text>
</a>
</g>
</g>
<!-- Node10&#45;&gt;Node23 -->
<g id="edge13_Node000023_Node000010" class="edge">
<title>Node10&#45;&gt;Node23</title>
<g id="a_edge13_Node000023_Node000010"><a xlink:title=" ">
<path fill="none" stroke="#63b8ff" d="M224.35,-101.84C233.33,-101.26 242.45,-100.66 250.93,-100.11"/>
<polygon fill="#63b8ff" stroke="#63b8ff" points="224.06,-98.36 214.31,-102.5 224.52,-105.34 224.06,-98.36"/>
</a>
</g>
</g>
<!-- Node11 -->
<g id="Node000011" class="node">
<title>Node11</title>
<g id="a_Node000011"><a xlink:href="classexprt.html" target="_top" xlink:title="Base class for all expressions.">
<polygon fill="#fff0f0" stroke="red" points="62.5,-140.02 20.5,-140.02 20.5,-121.02 62.5,-121.02 62.5,-140.02"/>
<text text-anchor="middle" x="41.5" y="-128.02" font-family="Helvetica,sans-Serif" font-size="10.00">exprt</text>
</a>
</g>
</g>
<!-- Node11&#45;&gt;Node10 -->
<g id="edge14_Node000010_Node000011" class="edge">
<title>Node11&#45;&gt;Node10</title>
<g id="a_edge14_Node000010_Node000011"><a xlink:title=" ">
<path fill="none" stroke="#63b8ff" d="M72.81,-124.39C87.01,-121.51 104.23,-118.03 119.99,-114.84"/>
<polygon fill="#63b8ff" stroke="#63b8ff" points="71.72,-121.04 62.62,-126.45 73.11,-127.9 71.72,-121.04"/>
</a>
</g>
</g>
<!-- Node26 -->
<g id="Node000026" class="node">
<title>Node26</title>
<g id="a_Node000026"><a xlink:title=" ">
<polygon fill="white" stroke="#666666" points="832,-208.52 713,-208.52 713,-178.52 832,-178.52 832,-208.52"/>
<text text-anchor="start" x="721" y="-196.52" font-family="Helvetica,sans-Serif" font-size="10.00">std::map&lt; exprt, chc</text>
<text text-anchor="middle" x="772.5" y="-185.52" font-family="Helvetica,sans-Serif" font-size="10.00">_sett &gt;</text>
</a>
</g>
</g>
<!-- Node11&#45;&gt;Node26 -->
<g id="edge18_Node000026_Node000011" class="edge">
<title>Node11&#45;&gt;Node26</title>
<g id="a_edge18_Node000026_Node000011"><a xlink:title=" ">
<path fill="none" stroke="#9a32cd" stroke-dasharray="5,2" d="M72.88,-133.15C183.44,-142.7 565.55,-175.73 712.9,-188.46"/>
<polygon fill="#9a32cd" stroke="#9a32cd" points="73.02,-129.65 62.76,-132.28 72.42,-136.62 73.02,-129.65"/>
</a>
</g>
<text text-anchor="middle" x="291.5" y="-159.52" font-family="Helvetica,sans-Serif" font-size="10.00" fill="grey"> keys</text>
</g>
<!-- Node24 -->
<g id="Node000024" class="node">
<title>Node24</title>
<g id="a_Node000024"><a xlink:title=" ">
<polygon fill="white" stroke="#666666" points="554,-139.02 417,-139.02 417,-120.02 554,-120.02 554,-139.02"/>
<text text-anchor="middle" x="485.5" y="-127.02" font-family="Helvetica,sans-Serif" font-size="10.00">std::unordered_set&lt; K &gt;</text>
</a>
</g>
</g>
<!-- Node24&#45;&gt;Node3 -->
<g id="edge23_Node000003_Node000024" class="edge">
<title>Node24&#45;&gt;Node3</title>
<g id="a_edge23_Node000003_Node000024"><a xlink:title=" ">
<path fill="none" stroke="#9a32cd" stroke-dasharray="5,2" d="M564.41,-134.96C599.18,-137.46 640.65,-140.52 678,-143.52 754.05,-149.64 773.3,-149.01 849,-158.52 916.83,-167.05 996.12,-181.14 1036.3,-188.58"/>
<polygon fill="#9a32cd" stroke="#9a32cd" points="564.54,-131.46 554.32,-134.24 564.04,-138.45 564.54,-131.46"/>
</a>
</g>
<text text-anchor="middle" x="772.5" y="-161.52" font-family="Helvetica,sans-Serif" font-size="10.00" fill="grey"> m_empty_set</text>
</g>
<!-- Node24&#45;&gt;Node21 -->
<g id="edge15_Node000021_Node000024" class="edge">
<title>Node24&#45;&gt;Node21</title>
<g id="a_edge15_Node000021_Node000024"><a xlink:title=" ">
<path fill="none" stroke="orange" stroke-dasharray="5,2" d="M512.56,-115.38C529.06,-107.23 551.16,-97.79 572,-93.52 618.66,-83.98 672.75,-84.4 712.83,-86.83"/>
<polygon fill="orange" stroke="orange" points="510.86,-112.32 503.54,-119.98 514.03,-118.56 510.86,-112.32"/>
</a>
</g>
<text text-anchor="start" x="572" y="-107.52" font-family="Helvetica,sans-Serif" font-size="10.00" fill="grey"> &lt; symbol_exprt, irep</text>
<text text-anchor="middle" x="625" y="-96.52" font-family="Helvetica,sans-Serif" font-size="10.00" fill="grey">_hash &gt;</text>
</g>
<!-- Node24&#45;&gt;Node26 -->
<g id="edge19_Node000026_Node000024" class="edge">
<title>Node24&#45;&gt;Node26</title>
<g id="a_edge19_Node000026_Node000024"><a xlink:title=" ">
<path fill="none" stroke="#9a32cd" stroke-dasharray="5,2" d="M563.2,-140.72C598.41,-146.47 640.56,-154.24 678,-163.52 694.71,-167.67 712.79,-173.21 728.56,-178.41"/>
<polygon fill="#9a32cd" stroke="#9a32cd" points="563.42,-137.21 552.99,-139.07 562.31,-144.12 563.42,-137.21"/>
</a>
</g>
<text text-anchor="middle" x="625" y="-166.52" font-family="Helvetica,sans-Serif" font-size="10.00" fill="grey"> elements</text>
</g>
<!-- Node30 -->
<g id="Node000030" class="node">
<title>Node30</title>
<g id="a_Node000030"><a xlink:title=" ">
<polygon fill="white" stroke="#666666" points="974,-69.52 867,-69.52 867,-39.52 974,-39.52 974,-69.52"/>
<text text-anchor="start" x="875" y="-57.52" font-family="Helvetica,sans-Serif" font-size="10.00">std::unordered_set</text>
<text text-anchor="middle" x="920.5" y="-46.52" font-family="Helvetica,sans-Serif" font-size="10.00">&lt; std::size_t &gt;</text>
</a>
</g>
</g>
<!-- Node24&#45;&gt;Node30 -->
<g id="edge30_Node000030_Node000024" class="edge">
<title>Node24&#45;&gt;Node30</title>
<g id="a_edge30_Node000030_Node000024"><a xlink:title=" ">
<path fill="none" stroke="orange" stroke-dasharray="5,2" d="M504.14,-113.03C520.39,-98.95 545.89,-79.59 572,-70.52 671.7,-35.9 797.21,-41.09 866.83,-47.87"/>
<polygon fill="orange" stroke="orange" points="501.65,-110.56 496.52,-119.83 506.31,-115.78 501.65,-110.56"/>
</a>
</g>
<text text-anchor="middle" x="625" y="-73.52" font-family="Helvetica,sans-Serif" font-size="10.00" fill="grey"> &lt; std::size_t &gt;</text>
</g>
<!-- Node25 -->
<g id="Node000025" class="node">
<title>Node25</title>
<g id="a_Node000025"><a xlink:title=" ">
<polygon fill="white" stroke="#666666" points="306,-222.02 277,-222.02 277,-203.02 306,-203.02 306,-222.02"/>
<text text-anchor="middle" x="291.5" y="-210.02" font-family="Helvetica,sans-Serif" font-size="10.00">K</text>
</a>
</g>
</g>
<!-- Node25&#45;&gt;Node24 -->
<g id="edge16_Node000024_Node000025" class="edge">
<title>Node25&#45;&gt;Node24</title>
<g id="a_edge16_Node000024_Node000025"><a xlink:title=" ">
<path fill="none" stroke="#9a32cd" stroke-dasharray="5,2" d="M315.5,-202.58C352.75,-186.48 425.8,-154.9 462.44,-139.06"/>
<polygon fill="#9a32cd" stroke="#9a32cd" points="313.79,-199.51 306,-206.69 316.57,-205.93 313.79,-199.51"/>
</a>
</g>
<text text-anchor="middle" x="374.5" y="-189.52" font-family="Helvetica,sans-Serif" font-size="10.00" fill="grey"> keys</text>
</g>
<!-- Node25&#45;&gt;Node27 -->
<g id="edge21_Node000027_Node000025" class="edge">
<title>Node25&#45;&gt;Node27</title>
<g id="a_edge21_Node000027_Node000025"><a xlink:title=" ">
<path fill="none" stroke="#9a32cd" stroke-dasharray="5,2" d="M316.13,-212.65C345.51,-212.8 396.42,-213.07 434.59,-213.26"/>
<polygon fill="#9a32cd" stroke="#9a32cd" points="316.02,-209.15 306,-212.59 315.98,-216.15 316.02,-209.15"/>
</a>
</g>
<text text-anchor="middle" x="374.5" y="-216.52" font-family="Helvetica,sans-Serif" font-size="10.00" fill="grey"> keys</text>
</g>
<!-- Node25&#45;&gt;Node29 -->
<g id="edge27_Node000029_Node000025" class="edge">
<title>Node25&#45;&gt;Node29</title>
<g id="a_edge27_Node000029_Node000025"><a xlink:title=" ">
<path fill="none" stroke="#9a32cd" stroke-dasharray="5,2" d="M315.95,-217.9C343.69,-224.26 390.81,-235.05 428.19,-243.62"/>
<polygon fill="#9a32cd" stroke="#9a32cd" points="316.53,-214.44 306,-215.62 314.97,-221.26 316.53,-214.44"/>
</a>
</g>
<text text-anchor="middle" x="374.5" y="-239.52" font-family="Helvetica,sans-Serif" font-size="10.00" fill="grey"> keys</text>
</g>
<!-- Node26&#45;&gt;Node3 -->
<g id="edge17_Node000003_Node000026" class="edge">
<title>Node26&#45;&gt;Node3</title>
<g id="a_edge17_Node000003_Node000026"><a xlink:title=" ">
<path fill="none" stroke="#9a32cd" stroke-dasharray="5,2" d="M842.47,-193.52C904.67,-193.52 992.86,-193.52 1036.27,-193.52"/>
<polygon fill="#9a32cd" stroke="#9a32cd" points="842.33,-190.02 832.33,-193.52 842.33,-197.02 842.33,-190.02"/>
</a>
</g>
<text text-anchor="middle" x="920.5" y="-207.52" font-family="Helvetica,sans-Serif" font-size="10.00" fill="grey"> m_body_idx</text>
<text text-anchor="middle" x="920.5" y="-196.52" font-family="Helvetica,sans-Serif" font-size="10.00" fill="grey">m_head_idx</text>
</g>
<!-- Node27&#45;&gt;Node26 -->
<g id="edge20_Node000026_Node000027" class="edge">
<title>Node27&#45;&gt;Node26</title>
<g id="a_edge20_Node000026_Node000027"><a xlink:title=" ">
<path fill="none" stroke="orange" stroke-dasharray="5,2" d="M546.28,-209.33C595.25,-205.89 664.16,-201.06 712.83,-197.64"/>
<polygon fill="orange" stroke="orange" points="545.87,-205.85 536.14,-210.04 546.36,-212.83 545.87,-205.85"/>
</a>
</g>
<text text-anchor="middle" x="625" y="-210.52" font-family="Helvetica,sans-Serif" font-size="10.00" fill="grey"> &lt; exprt, chc_sett &gt;</text>
</g>
<!-- Node28&#45;&gt;Node1 -->
<g id="edge24_Node000001_Node000028" class="edge">
<title>Node28&#45;&gt;Node1</title>
<g id="a_edge24_Node000001_Node000028"><a xlink:title=" ">
<path fill="none" stroke="#9a32cd" stroke-dasharray="5,2" d="M1145.04,-234.6C1171.43,-231.35 1200.03,-227.82 1223.71,-224.91"/>
<polygon fill="#9a32cd" stroke="#9a32cd" points="1144.55,-231.13 1135.05,-235.83 1145.41,-238.08 1144.55,-231.13"/>
</a>
</g>
<text text-anchor="middle" x="1179.5" y="-236.52" font-family="Helvetica,sans-Serif" font-size="10.00" fill="grey"> m_def</text>
</g>
<!-- Node29&#45;&gt;Node28 -->
<g id="edge26_Node000028_Node000029" class="edge">
<title>Node29&#45;&gt;Node28</title>
<g id="a_edge26_Node000028_Node000029"><a xlink:title=" ">
<path fill="none" stroke="orange" stroke-dasharray="5,2" d="M552.75,-255.14C662.09,-252.87 879.37,-248.34 991.65,-246"/>
<polygon fill="orange" stroke="orange" points="552.44,-251.65 542.52,-255.36 552.59,-258.65 552.44,-251.65"/>
</a>
</g>
<text text-anchor="start" x="706" y="-266.52" font-family="Helvetica,sans-Serif" font-size="10.00" fill="grey"> &lt; std::size_t, std</text>
<text text-anchor="middle" x="772.5" y="-255.52" font-family="Helvetica,sans-Serif" font-size="10.00" fill="grey">::vector&lt; horn_clauset &gt; &gt;</text>
</g>
<!-- Node30&#45;&gt;Node1 -->
<g id="edge29_Node000001_Node000030" class="edge">
<title>Node30&#45;&gt;Node1</title>
<g id="a_edge29_Node000001_Node000030"><a xlink:title=" ">
<path fill="none" stroke="#9a32cd" stroke-dasharray="5,2" d="M963.47,-73.97C1039.61,-109.24 1197.85,-182.55 1254.64,-208.86"/>
<polygon fill="#9a32cd" stroke="#9a32cd" points="964.71,-70.69 954.17,-69.66 961.77,-77.04 964.71,-70.69"/>
</a>
</g>
<text text-anchor="middle" x="1063.5" y="-153.52" font-family="Helvetica,sans-Serif" font-size="10.00" fill="grey"> m_heads</text>
</g>
</g>
</svg>
