<?xml version="1.0" encoding="UTF-8" standalone="no"?>
<!DOCTYPE svg PUBLIC "-//W3C//DTD SVG 1.1//EN"
 "http://www.w3.org/Graphics/SVG/1.1/DTD/svg11.dtd">
<!-- Generated by graphviz version 2.43.0 (0)
 -->
<!-- Title: horn_clauset Pages: 1 -->
<svg width="102pt" height="373pt"
 viewBox="0.00 0.00 102.00 373.00" xmlns="http://www.w3.org/2000/svg" xmlns:xlink="http://www.w3.org/1999/xlink">
<g id="graph0" class="graph" transform="scale(1 1) rotate(0) translate(4 369)">
<title>horn_clauset</title>
<!-- Node1 -->
<g id="Node000001" class="node">
<title>Node1</title>
<g id="a_Node000001"><a xlink:title=" ">
<polygon fill="#999999" stroke="#666666" points="86.5,-19 7.5,-19 7.5,0 86.5,0 86.5,-19"/>
<text text-anchor="middle" x="47" y="-7" font-family="Helvetica,sans-Serif" font-size="10.00">horn_clauset</text>
</a>
</g>
</g>
<!-- Node2 -->
<g id="Node000002" class="node">
<title>Node2</title>
<g id="a_Node000002"><a xlink:href="classforall__exprt.html" target="_top" xlink:title="A forall expression.">
<polygon fill="white" stroke="#666666" points="83.5,-85 10.5,-85 10.5,-66 83.5,-66 83.5,-85"/>
<text text-anchor="middle" x="47" y="-73" font-family="Helvetica,sans-Serif" font-size="10.00">forall_exprt</text>
</a>
</g>
</g>
<!-- Node2&#45;&gt;Node1 -->
<g id="edge1_Node000001_Node000002" class="edge">
<title>Node2&#45;&gt;Node1</title>
<g id="a_edge1_Node000001_Node000002"><a xlink:title=" ">
<path fill="none" stroke="#9a32cd" stroke-dasharray="5,2" d="M47,-55.58C47,-43.63 47,-28.72 47,-19.41"/>
<polygon fill="#9a32cd" stroke="#9a32cd" points="43.5,-55.87 47,-65.87 50.5,-55.87 43.5,-55.87"/>
</a>
</g>
<text text-anchor="middle" x="64.5" y="-40" font-family="Helvetica,sans-Serif" font-size="10.00" fill="grey"> m_chc</text>
</g>
<!-- Node3 -->
<g id="Node000003" class="node">
<title>Node3</title>
<g id="a_Node000003"><a xlink:href="classquantifier__exprt.html" target="_top" xlink:title="A base class for quantifier expressions.">
<polygon fill="white" stroke="#666666" points="94,-141 0,-141 0,-122 94,-122 94,-141"/>
<text text-anchor="middle" x="47" y="-129" font-family="Helvetica,sans-Serif" font-size="10.00">quantifier_exprt</text>
</a>
</g>
</g>
<!-- Node3&#45;&gt;Node2 -->
<g id="edge2_Node000002_Node000003" class="edge">
<title>Node3&#45;&gt;Node2</title>
<g id="a_edge2_Node000002_Node000003"><a xlink:title=" ">
<path fill="none" stroke="#63b8ff" d="M47,-111.3C47,-102.41 47,-92.28 47,-85.25"/>
<polygon fill="#63b8ff" stroke="#63b8ff" points="43.5,-111.58 47,-121.58 50.5,-111.58 43.5,-111.58"/>
</a>
</g>
</g>
<!-- Node4 -->
<g id="Node000004" class="node">
<title>Node4</title>
<g id="a_Node000004"><a xlink:href="classbinding__exprt.html" target="_top" xlink:title="A base class for variable bindings (quantifiers, let, lambda)">
<polygon fill="white" stroke="#666666" points="88.5,-197 5.5,-197 5.5,-178 88.5,-178 88.5,-197"/>
<text text-anchor="middle" x="47" y="-185" font-family="Helvetica,sans-Serif" font-size="10.00">binding_exprt</text>
</a>
</g>
</g>
<!-- Node4&#45;&gt;Node3 -->
<g id="edge3_Node000003_Node000004" class="edge">
<title>Node4&#45;&gt;Node3</title>
<g id="a_edge3_Node000003_Node000004"><a xlink:title=" ">
<path fill="none" stroke="#63b8ff" d="M47,-167.3C47,-158.41 47,-148.28 47,-141.25"/>
<polygon fill="#63b8ff" stroke="#63b8ff" points="43.5,-167.58 47,-177.58 50.5,-167.58 43.5,-167.58"/>
</a>
</g>
</g>
<!-- Node5 -->
<g id="Node000005" class="node">
<title>Node5</title>
<g id="a_Node000005"><a xlink:href="classbinary__exprt.html" target="_top" xlink:title="A base class for binary expressions.">
<polygon fill="white" stroke="#666666" points="86,-253 8,-253 8,-234 86,-234 86,-253"/>
<text text-anchor="middle" x="47" y="-241" font-family="Helvetica,sans-Serif" font-size="10.00">binary_exprt</text>
</a>
</g>
</g>
<!-- Node5&#45;&gt;Node4 -->
<g id="edge4_Node000004_Node000005" class="edge">
<title>Node5&#45;&gt;Node4</title>
<g id="a_edge4_Node000004_Node000005"><a xlink:title=" ">
<path fill="none" stroke="#63b8ff" d="M47,-223.3C47,-214.41 47,-204.28 47,-197.25"/>
<polygon fill="#63b8ff" stroke="#63b8ff" points="43.5,-223.58 47,-233.58 50.5,-223.58 43.5,-223.58"/>
</a>
</g>
</g>
<!-- Node6 -->
<g id="Node000006" class="node">
<title>Node6</title>
<g id="a_Node000006"><a xlink:href="classexpr__protectedt.html" target="_top" xlink:title="Base class for all expressions.">
<polygon fill="white" stroke="#666666" points="94,-309 0,-309 0,-290 94,-290 94,-309"/>
<text text-anchor="middle" x="47" y="-297" font-family="Helvetica,sans-Serif" font-size="10.00">expr_protectedt</text>
</a>
</g>
</g>
<!-- Node6&#45;&gt;Node5 -->
<g id="edge5_Node000005_Node000006" class="edge">
<title>Node6&#45;&gt;Node5</title>
<g id="a_edge5_Node000005_Node000006"><a xlink:title=" ">
<path fill="none" stroke="#63b8ff" d="M47,-279.3C47,-270.41 47,-260.28 47,-253.25"/>
<polygon fill="#63b8ff" stroke="#63b8ff" points="43.5,-279.58 47,-289.58 50.5,-279.58 43.5,-279.58"/>
</a>
</g>
</g>
<!-- Node7 -->
<g id="Node000007" class="node">
<title>Node7</title>
<g id="a_Node000007"><a xlink:href="classexprt.html" target="_top" xlink:title="Base class for all expressions.">
<polygon fill="#fff0f0" stroke="red" points="68,-365 26,-365 26,-346 68,-346 68,-365"/>
<text text-anchor="middle" x="47" y="-353" font-family="Helvetica,sans-Serif" font-size="10.00">exprt</text>
</a>
</g>
</g>
<!-- Node7&#45;&gt;Node6 -->
<g id="edge6_Node000006_Node000007" class="edge">
<title>Node7&#45;&gt;Node6</title>
<g id="a_edge6_Node000006_Node000007"><a xlink:title=" ">
<path fill="none" stroke="#63b8ff" d="M47,-335.3C47,-326.41 47,-316.28 47,-309.25"/>
<polygon fill="#63b8ff" stroke="#63b8ff" points="43.5,-335.58 47,-345.58 50.5,-335.58 43.5,-335.58"/>
</a>
</g>
</g>
</g>
</svg>
