<?xml version="1.0" encoding="UTF-8" standalone="no"?>
<!DOCTYPE svg PUBLIC "-//W3C//DTD SVG 1.1//EN"
 "http://www.w3.org/Graphics/SVG/1.1/DTD/svg11.dtd">
<!-- Generated by graphviz version 2.43.0 (0)
 -->
<!-- Title: wto_singletont Pages: 1 -->
<svg width="215pt" height="395pt"
 viewBox="0.00 0.00 214.50 395.00" xmlns="http://www.w3.org/2000/svg" xmlns:xlink="http://www.w3.org/1999/xlink">
<g id="graph0" class="graph" transform="scale(1 1) rotate(0) translate(4 391)">
<title>wto_singletont</title>
<!-- Node1 -->
<g id="Node000001" class="node">
<title>Node1</title>
<g id="a_Node000001"><a xlink:title=" ">
<polygon fill="#999999" stroke="#666666" points="102.5,-19 13.5,-19 13.5,0 102.5,0 102.5,-19"/>
<text text-anchor="middle" x="58" y="-7" font-family="Helvetica,sans-Serif" font-size="10.00">wto_singletont</text>
</a>
</g>
</g>
<!-- Node2 -->
<g id="Node000002" class="node">
<title>Node2</title>
<g id="a_Node000002"><a xlink:href="classwto__elementt.html" target="_top" xlink:title=" ">
<polygon fill="white" stroke="#666666" points="84,-85 0,-85 0,-66 84,-66 84,-85"/>
<text text-anchor="middle" x="42" y="-73" font-family="Helvetica,sans-Serif" font-size="10.00">wto_elementt</text>
</a>
</g>
</g>
<!-- Node2&#45;&gt;Node1 -->
<g id="edge1_Node000001_Node000002" class="edge">
<title>Node2&#45;&gt;Node1</title>
<g id="a_edge1_Node000001_Node000002"><a xlink:title=" ">
<path fill="none" stroke="#63b8ff" d="M46.64,-55.95C49.64,-43.93 53.42,-28.82 55.77,-19.41"/>
<polygon fill="#63b8ff" stroke="#63b8ff" points="43.19,-55.32 44.16,-65.87 49.98,-57.02 43.19,-55.32"/>
</a>
</g>
</g>
<!-- Node3 -->
<g id="Node000003" class="node">
<title>Node3</title>
<g id="a_Node000003"><a xlink:href="classsymbol__exprt.html" target="_top" xlink:title="Expression to hold a symbol (variable)">
<polygon fill="white" stroke="#666666" points="185.5,-85 102.5,-85 102.5,-66 185.5,-66 185.5,-85"/>
<text text-anchor="middle" x="144" y="-73" font-family="Helvetica,sans-Serif" font-size="10.00">symbol_exprt</text>
</a>
</g>
</g>
<!-- Node3&#45;&gt;Node1 -->
<g id="edge2_Node000001_Node000003" class="edge">
<title>Node3&#45;&gt;Node1</title>
<g id="a_edge2_Node000001_Node000003"><a xlink:title=" ">
<path fill="none" stroke="#9a32cd" stroke-dasharray="5,2" d="M124.29,-59.83C107.43,-47.28 83.71,-29.63 69.69,-19.2"/>
<polygon fill="#9a32cd" stroke="#9a32cd" points="122.29,-62.71 132.4,-65.87 126.47,-57.09 122.29,-62.71"/>
</a>
</g>
<text text-anchor="middle" x="138" y="-40" font-family="Helvetica,sans-Serif" font-size="10.00" fill="grey"> m_singleton</text>
</g>
<!-- Node4 -->
<g id="Node000004" class="node">
<title>Node4</title>
<g id="a_Node000004"><a xlink:href="classnullary__exprt.html" target="_top" xlink:title="An expression without operands.">
<polygon fill="white" stroke="#666666" points="184.5,-141 103.5,-141 103.5,-122 184.5,-122 184.5,-141"/>
<text text-anchor="middle" x="144" y="-129" font-family="Helvetica,sans-Serif" font-size="10.00">nullary_exprt</text>
</a>
</g>
</g>
<!-- Node4&#45;&gt;Node3 -->
<g id="edge3_Node000003_Node000004" class="edge">
<title>Node4&#45;&gt;Node3</title>
<g id="a_edge3_Node000003_Node000004"><a xlink:title=" ">
<path fill="none" stroke="#63b8ff" d="M144,-111.3C144,-102.41 144,-92.28 144,-85.25"/>
<polygon fill="#63b8ff" stroke="#63b8ff" points="140.5,-111.58 144,-121.58 147.5,-111.58 140.5,-111.58"/>
</a>
</g>
</g>
<!-- Node5 -->
<g id="Node000005" class="node">
<title>Node5</title>
<g id="a_Node000005"><a xlink:href="classexpr__protectedt.html" target="_top" xlink:title="Base class for all expressions.">
<polygon fill="white" stroke="#666666" points="191,-197 97,-197 97,-178 191,-178 191,-197"/>
<text text-anchor="middle" x="144" y="-185" font-family="Helvetica,sans-Serif" font-size="10.00">expr_protectedt</text>
</a>
</g>
</g>
<!-- Node5&#45;&gt;Node4 -->
<g id="edge4_Node000004_Node000005" class="edge">
<title>Node5&#45;&gt;Node4</title>
<g id="a_edge4_Node000004_Node000005"><a xlink:title=" ">
<path fill="none" stroke="#63b8ff" d="M144,-167.3C144,-158.41 144,-148.28 144,-141.25"/>
<polygon fill="#63b8ff" stroke="#63b8ff" points="140.5,-167.58 144,-177.58 147.5,-167.58 140.5,-167.58"/>
</a>
</g>
</g>
<!-- Node6 -->
<g id="Node000006" class="node">
<title>Node6</title>
<g id="a_Node000006"><a xlink:href="classexprt.html" target="_top" xlink:title="Base class for all expressions.">
<polygon fill="white" stroke="#666666" points="165,-253 123,-253 123,-234 165,-234 165,-253"/>
<text text-anchor="middle" x="144" y="-241" font-family="Helvetica,sans-Serif" font-size="10.00">exprt</text>
</a>
</g>
</g>
<!-- Node6&#45;&gt;Node5 -->
<g id="edge5_Node000005_Node000006" class="edge">
<title>Node6&#45;&gt;Node5</title>
<g id="a_edge5_Node000005_Node000006"><a xlink:title=" ">
<path fill="none" stroke="#63b8ff" d="M144,-223.3C144,-214.41 144,-204.28 144,-197.25"/>
<polygon fill="#63b8ff" stroke="#63b8ff" points="140.5,-223.58 144,-233.58 147.5,-223.58 140.5,-223.58"/>
</a>
</g>
</g>
<!-- Node7 -->
<g id="Node000007" class="node">
<title>Node7</title>
<g id="a_Node000007"><a xlink:href="classirept.html" target="_top" xlink:title="There are a large number of kinds of tree structured or tree&#45;like data in CPROVER.">
<polygon fill="white" stroke="#666666" points="163.5,-309 124.5,-309 124.5,-290 163.5,-290 163.5,-309"/>
<text text-anchor="middle" x="144" y="-297" font-family="Helvetica,sans-Serif" font-size="10.00">irept</text>
</a>
</g>
</g>
<!-- Node7&#45;&gt;Node6 -->
<g id="edge6_Node000006_Node000007" class="edge">
<title>Node7&#45;&gt;Node6</title>
<g id="a_edge6_Node000006_Node000007"><a xlink:title=" ">
<path fill="none" stroke="#63b8ff" d="M144,-279.3C144,-270.41 144,-260.28 144,-253.25"/>
<polygon fill="#63b8ff" stroke="#63b8ff" points="140.5,-279.58 144,-289.58 147.5,-279.58 140.5,-279.58"/>
</a>
</g>
</g>
<!-- Node8 -->
<g id="Node000008" class="node">
<title>Node8</title>
<g id="a_Node000008"><a xlink:href="classsharing__treet.html" target="_top" xlink:title=" ">
<polygon fill="#fff0f0" stroke="red" points="206.5,-387 81.5,-387 81.5,-346 206.5,-346 206.5,-387"/>
<text text-anchor="start" x="89.5" y="-375" font-family="Helvetica,sans-Serif" font-size="10.00">sharing_treet&lt; irept,</text>
<text text-anchor="start" x="89.5" y="-364" font-family="Helvetica,sans-Serif" font-size="10.00"> forward_list_as_mapt</text>
<text text-anchor="middle" x="144" y="-353" font-family="Helvetica,sans-Serif" font-size="10.00">&lt; irep_idt, irept &gt; &gt;</text>
</a>
</g>
</g>
<!-- Node8&#45;&gt;Node7 -->
<g id="edge7_Node000007_Node000008" class="edge">
<title>Node8&#45;&gt;Node7</title>
<g id="a_edge7_Node000007_Node000008"><a xlink:title=" ">
<path fill="none" stroke="#63b8ff" d="M144,-335.76C144,-326.06 144,-316.02 144,-309.15"/>
<polygon fill="#63b8ff" stroke="#63b8ff" points="140.5,-336 144,-346 147.5,-336 140.5,-336"/>
</a>
</g>
</g>
</g>
</svg>
